M48
; DRILL file {KiCad (5.1.4)-1} date 1/10/2019 12:47:13 PM
; FORMAT={-:-/ absolute / inch / decimal}
; #@! TF.CreationDate,2019-10-01T12:47:13+13:00
; #@! TF.GenerationSoftware,Kicad,Pcbnew,(5.1.4)-1
; #@! TF.FileFunction,Plated,1,2,PTH
FMAT,2
INCH
T1C0.0157
T2C0.0236
T3C0.0579
%
G90
G05
T1
X-0.7731Y3.3919
X-0.7681Y4.1419
X-0.7631Y2.6419
X-0.7631Y1.8919
X-0.7631Y0.3919
X-0.7619Y1.1419
X-0.46Y-0.195
X-0.455Y1.18
X-0.4519Y1.8181
X-0.4481Y3.3181
X-0.4469Y4.0681
X-0.4469Y2.5681
X-0.4469Y1.0681
X-0.4469Y0.3181
X-0.445Y2.7
X-0.44Y4.2
X-0.44Y0.455
X-0.4Y3.25
X-0.4Y1.75
X-0.16Y0.455
X-0.075Y4.2
X-0.06Y1.18
X-0.05Y2.7
X-0.0269Y4.1419
X-0.025Y3.25
X-0.025Y1.75
X-0.0119Y3.3919
X-0.0119Y2.6419
X-0.0119Y1.8919
X-0.0119Y0.3919
X-0.0069Y1.1419
X0.29Y-0.105
X0.2969Y1.0681
X0.2981Y1.8181
X0.3Y0.45
X0.3019Y0.3181
X0.3031Y3.3181
X0.3031Y2.5681
X0.305Y2.7
X0.31Y4.2
X0.3119Y4.0681
X0.325Y1.0
X0.345Y1.75
X0.35Y3.25
X0.675Y4.2
X0.72Y3.25
X0.7281Y4.1419
X0.7381Y3.3919
X0.755Y0.45
X0.85Y2.7
X0.9219Y2.6419
X0.9219Y0.3919
X1.0Y1.75
X1.0131Y1.8919
X1.0469Y3.3181
X1.0569Y4.0681
X1.06Y4.2
X1.1Y3.25
X1.205Y1.0
X1.2081Y1.1419
X1.2319Y2.5681
X1.2381Y0.3181
X1.24Y0.44
X1.245Y2.7
X1.3269Y1.8181
X1.375Y1.75
X1.425Y4.2
X1.47Y3.25
X1.4731Y4.1419
X1.4919Y3.3919
X1.5169Y1.0681
X1.5775Y0.995
X1.69Y0.44
X1.7969Y3.3181
X1.805Y4.2
X1.8069Y4.0681
X1.825Y2.7
X1.85Y3.25
X1.8631Y0.3919
X1.8669Y2.6419
X2.035Y1.75
X2.0481Y1.8919
X2.1731Y2.5681
X2.175Y4.2
X2.1769Y0.3181
X2.185Y2.7
X2.225Y3.25
X2.2281Y4.1419
X2.2381Y3.3919
X2.25Y0.275
X2.3631Y1.8181
X2.4Y1.75
X2.4Y0.995
X2.4219Y1.1419
X2.5519Y3.3181
X2.56Y4.2
X2.5619Y4.0681
X2.58Y2.7
X2.6Y3.25
X2.6131Y2.6419
X2.7369Y1.0681
X2.745Y1.2
X2.77Y0.25
X2.785Y1.75
X2.7981Y1.8919
X2.8019Y0.3919
X2.9219Y2.5681
X2.925Y4.2
X2.93Y2.7
X2.975Y3.25
X2.9819Y4.1419
X2.9881Y3.3919
X3.1119Y0.3181
X3.1131Y1.8181
X3.14Y1.2
X3.15Y1.75
X3.1719Y1.1419
X3.23Y0.275
X3.2981Y3.3181
X3.305Y4.2
X3.3081Y4.0681
X3.325Y2.7
X3.35Y3.25
X3.3619Y2.6419
X3.4881Y1.0681
X3.49Y1.2
X3.535Y1.75
X3.5469Y1.8919
X3.6669Y2.5681
X3.675Y4.2
X3.675Y2.7
X3.725Y3.25
X3.7281Y4.1419
X3.7381Y3.3919
X3.8581Y1.8181
X3.885Y1.2
X3.9Y1.75
X3.9231Y1.1419
X4.0481Y3.3181
X4.05Y2.7
X4.055Y4.2
X4.0581Y4.0681
X4.1Y3.25
X4.1119Y2.6419
X4.2369Y1.0681
X4.24Y1.2
X4.285Y1.75
X4.3019Y1.8919
X4.4219Y2.5681
X4.425Y4.2
X4.43Y2.7
X4.47Y3.245
X4.4769Y4.1419
X4.4869Y3.3919
X4.6119Y1.8181
X4.635Y1.2
X4.65Y1.75
X4.6731Y1.1419
X4.7981Y3.3181
X4.8069Y4.0681
X4.81Y4.2
X4.825Y2.7
X4.85Y3.25
X4.8669Y2.6419
X4.9831Y1.0681
X4.99Y1.2
X5.035Y1.75
X5.0481Y1.8919
X5.1731Y2.5681
X5.175Y4.2
X5.185Y2.7
X5.2049Y0.515
X5.2181Y4.1419
X5.22Y3.25
X5.2419Y3.3919
X5.3569Y1.8181
X5.39Y1.2
X5.4Y1.75
X5.4269Y1.1419
X5.4497Y2.0203
X5.5481Y3.3181
X5.5581Y4.0681
X5.56Y4.2
X5.575Y2.7
X5.6Y3.25
X5.6131Y2.6419
X5.7Y0.25
X5.7131Y0.3919
X5.7381Y1.0681
X5.74Y1.2
X5.785Y1.75
X5.7981Y1.8919
X5.9231Y2.5681
X5.925Y4.2
X5.93Y2.7
X5.97Y3.25
X5.9719Y4.1419
X5.9881Y3.3919
X6.0231Y0.3181
X6.1081Y1.8181
X6.11Y0.255
X6.14Y1.2
X6.15Y1.75
X6.1769Y1.1419
X6.1997Y2.0203
X6.3019Y3.3181
X6.3081Y4.0681
X6.31Y4.2
X6.325Y2.7
X6.35Y3.25
X6.3619Y2.6419
X6.4869Y1.0681
X6.495Y1.2
X6.535Y1.75
X6.5481Y1.8919
X6.6681Y2.5681
X6.675Y4.2
X6.685Y2.7
X6.72Y3.25
X6.7231Y4.1419
X6.7369Y3.3919
X6.8525Y1.2775
X6.8569Y1.8181
X6.885Y1.2
X6.9Y1.75
X6.9231Y1.1419
X7.0519Y3.3181
X7.06Y4.2
X7.0631Y4.0681
X7.075Y2.7
X7.1Y3.25
X7.1119Y2.6419
X7.2369Y1.0681
X7.245Y1.2
X7.285Y1.75
X7.2981Y1.8919
X7.4219Y2.5681
X7.425Y4.2
X7.43Y2.7
X7.475Y3.25
X7.4769Y4.1419
X7.4881Y3.3919
X7.6025Y1.2775
X7.6131Y1.8181
X7.64Y1.2
X7.65Y1.75
X7.6731Y1.1419
X7.7981Y3.3181
X7.81Y4.2
X7.8119Y4.0681
X7.825Y2.7
X7.85Y3.25
X7.8631Y2.6419
X7.9869Y1.0681
X7.995Y1.2
X8.035Y1.75
X8.0469Y1.8919
X8.175Y4.2
X8.1769Y2.5681
X8.18Y2.7
X8.2219Y4.1419
X8.225Y3.25
X8.2381Y3.3919
X8.3631Y1.8181
X8.395Y1.2
X8.4Y1.75
X8.4231Y1.1419
X8.495Y0.255
X8.5219Y0.3919
X8.5469Y3.3181
X8.5569Y4.0681
X8.56Y4.2
X8.575Y2.7
X8.6Y3.25
X8.6131Y2.6419
X8.7319Y1.0681
X8.745Y1.2
X8.785Y1.75
X8.8019Y1.8919
X8.8269Y0.3181
X8.835Y0.44
X8.9172Y0.5622
X8.9231Y2.5681
X8.925Y4.2
X8.93Y2.7
X8.97Y3.25
X8.9769Y4.1419
X8.9881Y3.3919
X9.1081Y1.8181
X9.14Y1.2
X9.15Y1.75
X9.1731Y1.1419
X9.2969Y3.3181
X9.3081Y4.0681
X9.31Y4.2
X9.325Y2.7
X9.35Y3.25
X9.35Y0.44
X9.35Y0.265
X9.3669Y2.6419
X9.4775Y0.5325
X9.4869Y1.0681
X9.495Y1.2
X9.535Y0.265
X9.5431Y0.3919
X9.545Y1.75
X9.5469Y1.8919
X9.6731Y2.5681
X9.675Y4.2
X9.685Y2.7
X9.725Y3.25
X9.7281Y4.1419
X9.7381Y3.3919
X9.8569Y0.3181
X9.8631Y1.8181
X9.87Y0.45
X9.9Y1.75
X10.0519Y3.3181
X10.06Y4.2
X10.0619Y4.0681
X10.075Y2.7
X10.1Y3.25
X10.1131Y2.6419
X10.175Y1.2
X10.2081Y1.1419
X10.3Y0.45
X10.4219Y2.5681
X10.425Y4.2
X10.435Y2.7
X10.4681Y4.1419
X10.4881Y0.3919
X10.5169Y1.0681
X10.53Y1.2
X10.76Y1.75
X10.7681Y1.8919
X10.7969Y0.3181
X10.805Y4.2
X10.8081Y4.0681
X10.825Y0.445
X10.85Y3.25
X10.8619Y3.3919
X11.0Y2.7
X11.0469Y2.6419
X11.075Y0.445
X11.0819Y1.8181
X11.13Y1.75
X11.1669Y3.3181
X11.175Y4.2
X11.2Y1.2
X11.225Y3.25
X11.2269Y4.1419
X11.2369Y1.1419
X11.2381Y0.3919
X11.3581Y2.5681
X11.37Y2.7
X11.5481Y1.0681
X11.55Y1.2
X11.5519Y4.0681
X11.5531Y0.3181
X11.555Y4.2
X11.6Y0.45
X11.82Y0.45
X11.93Y4.2
X11.95Y2.7
X11.955Y1.2
X11.975Y3.25
X11.9769Y4.1419
X11.9781Y3.3919
X11.985Y1.75
X11.9869Y2.6419
X11.9869Y1.1419
X11.9881Y1.8919
X11.9881Y0.3919
X12.265Y3.72
X12.2919Y3.3181
X12.2969Y2.5681
X12.2981Y1.0681
X12.2981Y0.3181
X12.3031Y1.8181
X12.3119Y4.0681
X12.37Y2.96
X12.37Y2.71
X12.405Y3.315
X12.415Y3.0667
X12.4158Y2.11
X12.4158Y0.495
X12.43Y4.14
X12.4688Y1.9062
X12.4688Y1.5262
X12.4688Y1.0625
X12.4688Y0.5
X12.47Y4.07
X12.47Y3.39
X12.47Y2.825
X12.47Y2.57
X12.5022Y1.3635
X12.505Y3.0382
X12.515Y3.44
X12.515Y3.13
X12.5341Y3.0096
X12.535Y2.235
X12.545Y2.9712
X12.5625Y1.1562
X12.5625Y0.4688
X12.5631Y1.8181
X12.565Y2.2
X12.575Y2.805
X12.5776Y3.72
X12.6Y3.35
X12.605Y3.475
X12.61Y3.76
X12.62Y3.855
X12.6279Y3.805
X12.66Y2.055
X12.6915Y2.01
X12.6978Y2.7872
X12.6978Y2.6378
X12.7Y3.35
X12.72Y2.235
X12.72Y0.605
X12.73Y2.61
X12.755Y1.28
X12.7598Y2.6451
X12.785Y1.25
X12.7923Y2.6227
X12.82Y0.565
X12.82Y0.055
X12.82Y-0.035
X12.8238Y2.6513
X12.8481Y3.53
X12.85Y2.2
X12.85Y-0.14
X12.855Y3.35
X12.855Y2.625
X12.885Y0.545
X12.8867Y2.6617
X12.9Y-0.05
X12.915Y0.25
X12.9182Y2.6268
X12.9505Y3.805
X12.9669Y4.1007
X12.995Y3.72
X13.03Y3.855
X13.06Y3.755
X13.065Y0.255
X13.0742Y0.31
X13.105Y2.905
X13.11Y3.535
X13.115Y3.0
X13.1202Y0.2698
X13.14Y2.935
X13.149Y2.04
X13.16Y0.2628
X13.17Y2.97
X13.19Y2.04
X13.1938Y3.2212
X13.205Y0.295
X13.215Y3.03
X13.235Y3.09
X13.24Y0.245
X13.36Y3.08
X13.37Y3.255
X12.6277Y4.0933
X12.6279Y4.0411
X12.6611Y4.0933
X12.6613Y4.0411
X12.6946Y4.0933
X12.6948Y4.0411
X12.7281Y4.0933
X12.7283Y4.0411
X12.7615Y4.0933
X12.7617Y4.0411
X12.795Y4.0933
X12.7952Y4.0411
X12.8285Y4.0933
X12.8287Y4.0411
X12.8621Y4.0933
X12.8621Y4.0411
T3
X7.54Y2.955
X7.79Y3.055
X7.7275Y0.705
X7.9775Y0.805
X7.54Y3.705
X7.79Y3.805
X3.04Y2.955
X3.29Y3.055
X6.2275Y0.705
X6.4775Y0.805
X9.04Y3.705
X9.29Y3.805
X6.415Y2.205
X6.665Y2.305
X10.54Y3.705
X10.79Y3.805
X12.04Y1.455
X12.29Y1.555
X6.04Y3.705
X6.29Y3.805
X0.04Y2.205
X0.29Y2.305
X10.2587Y0.705
X10.5087Y0.805
X5.29Y2.955
X5.54Y3.055
X-0.71Y-0.045
X-0.46Y0.055
X12.04Y2.205
X12.29Y2.305
X8.57Y-0.045
X8.82Y0.055
X8.1025Y1.455
X8.3525Y1.555
X2.665Y2.205
X2.915Y2.305
X8.8525Y1.455
X9.1025Y1.555
X7.165Y2.205
X7.415Y2.305
X6.79Y3.705
X7.04Y3.805
X5.1025Y1.455
X5.3525Y1.555
X12.04Y2.955
X12.29Y3.055
X1.915Y-0.045
X2.165Y0.055
X2.1025Y1.455
X2.3525Y1.555
X-0.71Y2.955
X-0.46Y3.055
X0.9775Y-0.045
X1.2275Y0.055
X2.8525Y1.455
X3.1025Y1.555
X10.54Y-0.045
X10.79Y0.055
X3.415Y2.205
X3.665Y2.305
X11.29Y3.705
X11.54Y3.805
X-0.71Y2.205
X-0.46Y2.305
X9.2275Y0.705
X9.4775Y0.805
X3.04Y3.705
X3.29Y3.805
X6.04Y2.955
X6.29Y3.055
X1.54Y3.705
X1.79Y3.805
X2.29Y2.955
X2.54Y3.055
X0.79Y3.705
X1.04Y3.805
X5.4775Y0.705
X5.7275Y0.805
X0.04Y3.705
X0.29Y3.805
X4.915Y2.205
X5.165Y2.305
X10.915Y2.955
X11.165Y3.055
X10.8212Y1.455
X11.0712Y1.555
X5.665Y2.205
X5.915Y2.305
X3.2275Y0.705
X3.4775Y0.805
X4.3525Y1.455
X4.6025Y1.555
X-0.71Y3.705
X-0.46Y3.805
X12.04Y0.705
X12.29Y0.805
X4.7275Y0.705
X4.9775Y0.805
X10.165Y2.205
X10.415Y2.305
X5.8525Y1.455
X6.1025Y1.555
X1.915Y2.205
X2.165Y2.305
X7.3525Y1.455
X7.6025Y1.555
X-0.71Y1.455
X-0.46Y1.555
X5.29Y3.705
X5.54Y3.805
X0.04Y0.705
X0.29Y0.805
X9.79Y2.955
X10.04Y3.055
X0.04Y-0.045
X0.29Y0.055
X11.1025Y2.205
X11.3525Y2.305
X8.29Y3.705
X8.54Y3.805
X1.2588Y0.705
X1.5088Y0.805
X3.6025Y1.455
X3.8525Y1.555
X3.9775Y0.705
X4.2275Y0.805
X9.79Y3.705
X10.04Y3.805
X6.79Y2.955
X7.04Y3.055
X9.6025Y-0.045
X9.8525Y0.055
X1.54Y2.955
X1.79Y3.055
X5.76Y-0.045
X6.01Y0.055
X4.54Y2.955
X4.79Y3.055
X11.29Y-0.045
X11.54Y0.055
X0.04Y2.955
X0.29Y3.055
X9.415Y2.205
X9.665Y2.305
X2.4775Y0.705
X2.7275Y0.805
X3.79Y2.955
X4.04Y3.055
X2.29Y3.705
X2.54Y3.805
X8.4775Y0.705
X8.7275Y0.805
X9.04Y2.955
X9.29Y3.055
X6.9775Y0.705
X7.2275Y0.805
X0.04Y1.455
X0.29Y1.555
X-0.71Y0.705
X-0.46Y0.805
X9.6025Y1.455
X9.8525Y1.555
X7.915Y2.205
X8.165Y2.305
X12.04Y3.705
X12.29Y3.805
X11.29Y0.705
X11.54Y0.805
X0.9775Y2.205
X1.2275Y2.305
X6.6025Y1.455
X6.8525Y1.555
X4.165Y2.205
X4.415Y2.305
X0.79Y2.955
X1.04Y3.055
X2.8525Y-0.045
X3.1025Y0.055
X8.29Y2.955
X8.54Y3.055
X12.04Y-0.045
X12.29Y0.055
X1.0713Y1.455
X1.3213Y1.555
X3.79Y3.705
X4.04Y3.805
X8.665Y2.205
X8.915Y2.305
X4.54Y3.705
X4.79Y3.805
T2
G00X12.5747Y4.197
M15
G01X12.5747Y4.2285
M16
G05
G00X12.5747Y4.0501
M15
G01X12.5747Y4.1092
M16
G05
G00X12.9153Y4.197
M15
G01X12.9153Y4.2285
M16
G05
G00X12.9153Y4.0501
M15
G01X12.9153Y4.1092
M16
G05
T0
M30
