G04 #@! TF.GenerationSoftware,KiCad,Pcbnew,(5.1.4)-1*
G04 #@! TF.CreationDate,2019-10-01T12:46:34+13:00*
G04 #@! TF.ProjectId,keyboard,6b657962-6f61-4726-942e-6b696361645f,rev?*
G04 #@! TF.SameCoordinates,Original*
G04 #@! TF.FileFunction,Paste,Top*
G04 #@! TF.FilePolarity,Positive*
%FSLAX46Y46*%
G04 Gerber Fmt 4.6, Leading zero omitted, Abs format (unit mm)*
G04 Created by KiCad (PCBNEW (5.1.4)-1) date 2019-10-01 12:46:34*
%MOMM*%
%LPD*%
G04 APERTURE LIST*
%ADD10R,1.350000X0.950000*%
G04 APERTURE END LIST*
D10*
X243980000Y7417000D03*
X243980000Y10617000D03*
X248780000Y10617000D03*
X248780000Y7417000D03*
X310756000Y105740000D03*
X310756000Y102540000D03*
X305956000Y102540000D03*
X305956000Y105740000D03*
X305956000Y83490000D03*
X305956000Y86690000D03*
X310756000Y86690000D03*
X310756000Y83490000D03*
X310756000Y67640000D03*
X310756000Y64440000D03*
X305956000Y64440000D03*
X305956000Y67640000D03*
X291706000Y105740000D03*
X291706000Y102540000D03*
X286906000Y102540000D03*
X286906000Y105740000D03*
X305956000Y45390000D03*
X305956000Y48590000D03*
X310756000Y48590000D03*
X310756000Y45390000D03*
X277381000Y83490000D03*
X277381000Y86690000D03*
X282181000Y86690000D03*
X282181000Y83490000D03*
X310756000Y29540000D03*
X310756000Y26340000D03*
X305956000Y26340000D03*
X305956000Y29540000D03*
X286880000Y67640000D03*
X286880000Y64440000D03*
X282080000Y64440000D03*
X282080000Y67640000D03*
X272656000Y105740000D03*
X272656000Y102540000D03*
X267856000Y102540000D03*
X267856000Y105740000D03*
X274968000Y45390000D03*
X274968000Y48590000D03*
X279768000Y48590000D03*
X279768000Y45390000D03*
X248806000Y83490000D03*
X248806000Y86690000D03*
X253606000Y86690000D03*
X253606000Y83490000D03*
X291706000Y29540000D03*
X291706000Y26340000D03*
X286906000Y26340000D03*
X286906000Y29540000D03*
X263131000Y67640000D03*
X263131000Y64440000D03*
X258331000Y64440000D03*
X258331000Y67640000D03*
X253606000Y105740000D03*
X253606000Y102540000D03*
X248806000Y102540000D03*
X248806000Y105740000D03*
X243980000Y45390000D03*
X243980000Y48590000D03*
X248780000Y48590000D03*
X248780000Y45390000D03*
X229756000Y83490000D03*
X229756000Y86690000D03*
X234556000Y86690000D03*
X234556000Y83490000D03*
X265544000Y29540000D03*
X265544000Y26340000D03*
X260744000Y26340000D03*
X260744000Y29540000D03*
X244081000Y67640000D03*
X244081000Y64440000D03*
X239281000Y64440000D03*
X239281000Y67640000D03*
X234556000Y105740000D03*
X234556000Y102540000D03*
X229756000Y102540000D03*
X229756000Y105740000D03*
X224930000Y45390000D03*
X224930000Y48590000D03*
X229730000Y48590000D03*
X229730000Y45390000D03*
X210706000Y83490000D03*
X210706000Y86690000D03*
X215506000Y86690000D03*
X215506000Y83490000D03*
X239255000Y29540000D03*
X239255000Y26340000D03*
X234455000Y26340000D03*
X234455000Y29540000D03*
X225031000Y67640000D03*
X225031000Y64440000D03*
X220231000Y64440000D03*
X220231000Y67640000D03*
X215506000Y105740000D03*
X215506000Y102540000D03*
X210706000Y102540000D03*
X210706000Y105740000D03*
X205880000Y45390000D03*
X205880000Y48590000D03*
X210680000Y48590000D03*
X210680000Y45390000D03*
X191656000Y83490000D03*
X191656000Y86690000D03*
X196456000Y86690000D03*
X196456000Y83490000D03*
X220205000Y29540000D03*
X220205000Y26340000D03*
X215405000Y26340000D03*
X215405000Y29540000D03*
X205981000Y67640000D03*
X205981000Y64440000D03*
X201181000Y64440000D03*
X201181000Y67640000D03*
X196456000Y105740000D03*
X196456000Y102540000D03*
X191656000Y102540000D03*
X191656000Y105740000D03*
X305956000Y7290000D03*
X305956000Y10490000D03*
X310756000Y10490000D03*
X310756000Y7290000D03*
X186830000Y45390000D03*
X186830000Y48590000D03*
X191630000Y48590000D03*
X191630000Y45390000D03*
X172606000Y83490000D03*
X172606000Y86690000D03*
X177406000Y86690000D03*
X177406000Y83490000D03*
X201155000Y29540000D03*
X201155000Y26340000D03*
X196355000Y26340000D03*
X196355000Y29540000D03*
X186931000Y67640000D03*
X186931000Y64440000D03*
X182131000Y64440000D03*
X182131000Y67640000D03*
X177406000Y105740000D03*
X177406000Y102540000D03*
X172606000Y102540000D03*
X172606000Y105740000D03*
X286906000Y7290000D03*
X286906000Y10490000D03*
X291706000Y10490000D03*
X291706000Y7290000D03*
X167780000Y45390000D03*
X167780000Y48590000D03*
X172580000Y48590000D03*
X172580000Y45390000D03*
X153556000Y83490000D03*
X153556000Y86690000D03*
X158356000Y86690000D03*
X158356000Y83490000D03*
X182105000Y29540000D03*
X182105000Y26340000D03*
X177305000Y26340000D03*
X177305000Y29540000D03*
X167881000Y67767000D03*
X167881000Y64567000D03*
X163081000Y64567000D03*
X163081000Y67767000D03*
X158356000Y105740000D03*
X158356000Y102540000D03*
X153556000Y102540000D03*
X153556000Y105740000D03*
X267856000Y7290000D03*
X267856000Y10490000D03*
X272656000Y10490000D03*
X272656000Y7290000D03*
X148730000Y45390000D03*
X148730000Y48590000D03*
X153530000Y48590000D03*
X153530000Y45390000D03*
X134506000Y83490000D03*
X134506000Y86690000D03*
X139306000Y86690000D03*
X139306000Y83490000D03*
X163055000Y29540000D03*
X163055000Y26340000D03*
X158255000Y26340000D03*
X158255000Y29540000D03*
X148831000Y67640000D03*
X148831000Y64440000D03*
X144031000Y64440000D03*
X144031000Y67640000D03*
X139306000Y105740000D03*
X139306000Y102540000D03*
X134506000Y102540000D03*
X134506000Y105740000D03*
X129680000Y45390000D03*
X129680000Y48590000D03*
X134480000Y48590000D03*
X134480000Y45390000D03*
X115456000Y83490000D03*
X115456000Y86690000D03*
X120256000Y86690000D03*
X120256000Y83490000D03*
X144005000Y29540000D03*
X144005000Y26340000D03*
X139205000Y26340000D03*
X139205000Y29540000D03*
X129781000Y67640000D03*
X129781000Y64440000D03*
X124981000Y64440000D03*
X124981000Y67640000D03*
X120256000Y105740000D03*
X120256000Y102540000D03*
X115456000Y102540000D03*
X115456000Y105740000D03*
X217818000Y7290000D03*
X217818000Y10490000D03*
X222618000Y10490000D03*
X222618000Y7290000D03*
X110630000Y45390000D03*
X110630000Y48590000D03*
X115430000Y48590000D03*
X115430000Y45390000D03*
X96406000Y83490000D03*
X96406000Y86690000D03*
X101206000Y86690000D03*
X101206000Y83490000D03*
X124955000Y29540000D03*
X124955000Y26340000D03*
X120155000Y26340000D03*
X120155000Y29540000D03*
X110731000Y67640000D03*
X110731000Y64440000D03*
X105931000Y64440000D03*
X105931000Y67640000D03*
X101206000Y105740000D03*
X101206000Y102540000D03*
X96406000Y102540000D03*
X96406000Y105740000D03*
X146444000Y7290000D03*
X146444000Y10490000D03*
X151244000Y10490000D03*
X151244000Y7290000D03*
X91580000Y45390000D03*
X91580000Y48590000D03*
X96380000Y48590000D03*
X96380000Y45390000D03*
X77356000Y83490000D03*
X77356000Y86690000D03*
X82156000Y86690000D03*
X82156000Y83490000D03*
X105905000Y29540000D03*
X105905000Y26340000D03*
X101105000Y26340000D03*
X101105000Y29540000D03*
X91681000Y67767000D03*
X91681000Y64567000D03*
X86881000Y64567000D03*
X86881000Y67767000D03*
X82156000Y105740000D03*
X82156000Y102540000D03*
X77356000Y102540000D03*
X77356000Y105740000D03*
X72657000Y7417000D03*
X72657000Y10617000D03*
X77457000Y10617000D03*
X77457000Y7417000D03*
X72530000Y45390000D03*
X72530000Y48590000D03*
X77330000Y48590000D03*
X77330000Y45390000D03*
X58306000Y83490000D03*
X58306000Y86690000D03*
X63106000Y86690000D03*
X63106000Y83490000D03*
X86855000Y29540000D03*
X86855000Y26340000D03*
X82055000Y26340000D03*
X82055000Y29540000D03*
X72631000Y67640000D03*
X72631000Y64440000D03*
X67831000Y64440000D03*
X67831000Y67640000D03*
X63106000Y105740000D03*
X63106000Y102540000D03*
X58306000Y102540000D03*
X58306000Y105740000D03*
X48781000Y7290000D03*
X48781000Y10490000D03*
X53581000Y10490000D03*
X53581000Y7290000D03*
X53480000Y45390000D03*
X53480000Y48590000D03*
X58280000Y48590000D03*
X58280000Y45390000D03*
X39256000Y83490000D03*
X39256000Y86690000D03*
X44056000Y86690000D03*
X44056000Y83490000D03*
X67805000Y29540000D03*
X67805000Y26340000D03*
X63005000Y26340000D03*
X63005000Y29540000D03*
X53581000Y67640000D03*
X53581000Y64440000D03*
X48781000Y64440000D03*
X48781000Y67640000D03*
X44056000Y105740000D03*
X44056000Y102540000D03*
X39256000Y102540000D03*
X39256000Y105740000D03*
X24905000Y7290000D03*
X24905000Y10490000D03*
X29705000Y10490000D03*
X29705000Y7290000D03*
X27318000Y45517000D03*
X27318000Y48717000D03*
X32118000Y48717000D03*
X32118000Y45517000D03*
X20206000Y83490000D03*
X20206000Y86690000D03*
X25006000Y86690000D03*
X25006000Y83490000D03*
X36944000Y29540000D03*
X36944000Y26340000D03*
X32144000Y26340000D03*
X32144000Y29540000D03*
X29705000Y67640000D03*
X29705000Y64440000D03*
X24905000Y64440000D03*
X24905000Y67640000D03*
X25006000Y105740000D03*
X25006000Y102540000D03*
X20206000Y102540000D03*
X20206000Y105740000D03*
X1156000Y7290000D03*
X1156000Y10490000D03*
X5956000Y10490000D03*
X5956000Y7290000D03*
X1156000Y45390000D03*
X1156000Y48590000D03*
X5956000Y48590000D03*
X5956000Y45390000D03*
X1156000Y83490000D03*
X1156000Y86690000D03*
X5956000Y86690000D03*
X5956000Y83490000D03*
X5956000Y29540000D03*
X5956000Y26340000D03*
X1156000Y26340000D03*
X1156000Y29540000D03*
X5956000Y67640000D03*
X5956000Y64440000D03*
X1156000Y64440000D03*
X1156000Y67640000D03*
X5956000Y105740000D03*
X5956000Y102540000D03*
X1156000Y102540000D03*
X1156000Y105740000D03*
X-17894000Y7290000D03*
X-17894000Y10490000D03*
X-13094000Y10490000D03*
X-13094000Y7290000D03*
X-17894000Y45390000D03*
X-17894000Y48590000D03*
X-13094000Y48590000D03*
X-13094000Y45390000D03*
X-17894000Y83490000D03*
X-17894000Y86690000D03*
X-13094000Y86690000D03*
X-13094000Y83490000D03*
X-13094000Y29540000D03*
X-13094000Y26340000D03*
X-17894000Y26340000D03*
X-17894000Y29540000D03*
X-13094000Y67640000D03*
X-13094000Y64440000D03*
X-17894000Y64440000D03*
X-17894000Y67640000D03*
X-13094000Y105740000D03*
X-13094000Y102540000D03*
X-17894000Y102540000D03*
X-17894000Y105740000D03*
M02*
