G04 #@! TF.GenerationSoftware,KiCad,Pcbnew,(5.1.4)-1*
G04 #@! TF.CreationDate,2019-10-01T12:46:35+13:00*
G04 #@! TF.ProjectId,keyboard,6b657962-6f61-4726-942e-6b696361645f,rev?*
G04 #@! TF.SameCoordinates,Original*
G04 #@! TF.FileFunction,Legend,Top*
G04 #@! TF.FilePolarity,Positive*
%FSLAX46Y46*%
G04 Gerber Fmt 4.6, Leading zero omitted, Abs format (unit mm)*
G04 Created by KiCad (PCBNEW (5.1.4)-1) date 2019-10-01 12:46:35*
%MOMM*%
%LPD*%
G04 APERTURE LIST*
%ADD10C,0.150000*%
%ADD11C,0.120000*%
%ADD12C,0.250000*%
%ADD13C,0.200000*%
%ADD14C,0.254000*%
G04 APERTURE END LIST*
D10*
X340685380Y87312904D02*
X340209190Y86979571D01*
X340685380Y86741476D02*
X339685380Y86741476D01*
X339685380Y87122428D01*
X339733000Y87217666D01*
X339780619Y87265285D01*
X339875857Y87312904D01*
X340018714Y87312904D01*
X340113952Y87265285D01*
X340161571Y87217666D01*
X340209190Y87122428D01*
X340209190Y86741476D01*
X340685380Y87741476D02*
X340018714Y87741476D01*
X339685380Y87741476D02*
X339733000Y87693857D01*
X339780619Y87741476D01*
X339733000Y87789095D01*
X339685380Y87741476D01*
X339780619Y87741476D01*
X340637761Y88170047D02*
X340685380Y88265285D01*
X340685380Y88455761D01*
X340637761Y88551000D01*
X340542523Y88598619D01*
X340494904Y88598619D01*
X340399666Y88551000D01*
X340352047Y88455761D01*
X340352047Y88312904D01*
X340304428Y88217666D01*
X340209190Y88170047D01*
X340161571Y88170047D01*
X340066333Y88217666D01*
X340018714Y88312904D01*
X340018714Y88455761D01*
X340066333Y88551000D01*
X340685380Y89027190D02*
X339685380Y89027190D01*
X340685380Y89455761D02*
X340161571Y89455761D01*
X340066333Y89408142D01*
X340018714Y89312904D01*
X340018714Y89170047D01*
X340066333Y89074809D01*
X340113952Y89027190D01*
X340685380Y90360523D02*
X340161571Y90360523D01*
X340066333Y90312904D01*
X340018714Y90217666D01*
X340018714Y90027190D01*
X340066333Y89931952D01*
X340637761Y90360523D02*
X340685380Y90265285D01*
X340685380Y90027190D01*
X340637761Y89931952D01*
X340542523Y89884333D01*
X340447285Y89884333D01*
X340352047Y89931952D01*
X340304428Y90027190D01*
X340304428Y90265285D01*
X340256809Y90360523D01*
X340685380Y91265285D02*
X340161571Y91265285D01*
X340066333Y91217666D01*
X340018714Y91122428D01*
X340018714Y90931952D01*
X340066333Y90836714D01*
X340637761Y91265285D02*
X340685380Y91170047D01*
X340685380Y90931952D01*
X340637761Y90836714D01*
X340542523Y90789095D01*
X340447285Y90789095D01*
X340352047Y90836714D01*
X340304428Y90931952D01*
X340304428Y91170047D01*
X340256809Y91265285D01*
X340018714Y91741476D02*
X340685380Y91741476D01*
X340113952Y91741476D02*
X340066333Y91789095D01*
X340018714Y91884333D01*
X340018714Y92027190D01*
X340066333Y92122428D01*
X340161571Y92170047D01*
X340685380Y92170047D01*
X340590142Y92646238D02*
X340637761Y92693857D01*
X340685380Y92646238D01*
X340637761Y92598619D01*
X340590142Y92646238D01*
X340685380Y92646238D01*
X340018714Y93122428D02*
X340685380Y93122428D01*
X340113952Y93122428D02*
X340066333Y93170047D01*
X340018714Y93265285D01*
X340018714Y93408142D01*
X340066333Y93503380D01*
X340161571Y93551000D01*
X340685380Y93551000D01*
X340018714Y93931952D02*
X340018714Y94455761D01*
X340685380Y93931952D01*
X340685380Y94455761D01*
D11*
X328189250Y108743750D02*
X318939250Y108743750D01*
D12*
X249330000Y6442000D02*
G75*
G03X249330000Y6442000I-125000J0D01*
G01*
D13*
X247755000Y11517000D02*
X247755000Y6517000D01*
X245005000Y11517000D02*
X247755000Y11517000D01*
X245005000Y6517000D02*
X245005000Y11517000D01*
X247755000Y6517000D02*
X245005000Y6517000D01*
D12*
X305656000Y106715000D02*
G75*
G03X305656000Y106715000I-125000J0D01*
G01*
D13*
X306981000Y101640000D02*
X306981000Y106640000D01*
X309731000Y101640000D02*
X306981000Y101640000D01*
X309731000Y106640000D02*
X309731000Y101640000D01*
X306981000Y106640000D02*
X309731000Y106640000D01*
D12*
X311306000Y82515000D02*
G75*
G03X311306000Y82515000I-125000J0D01*
G01*
D13*
X309731000Y87590000D02*
X309731000Y82590000D01*
X306981000Y87590000D02*
X309731000Y87590000D01*
X306981000Y82590000D02*
X306981000Y87590000D01*
X309731000Y82590000D02*
X306981000Y82590000D01*
D12*
X305656000Y68615000D02*
G75*
G03X305656000Y68615000I-125000J0D01*
G01*
D13*
X306981000Y63540000D02*
X306981000Y68540000D01*
X309731000Y63540000D02*
X306981000Y63540000D01*
X309731000Y68540000D02*
X309731000Y63540000D01*
X306981000Y68540000D02*
X309731000Y68540000D01*
D12*
X286606000Y106715000D02*
G75*
G03X286606000Y106715000I-125000J0D01*
G01*
D13*
X287931000Y101640000D02*
X287931000Y106640000D01*
X290681000Y101640000D02*
X287931000Y101640000D01*
X290681000Y106640000D02*
X290681000Y101640000D01*
X287931000Y106640000D02*
X290681000Y106640000D01*
D12*
X311306000Y44415000D02*
G75*
G03X311306000Y44415000I-125000J0D01*
G01*
D13*
X309731000Y49490000D02*
X309731000Y44490000D01*
X306981000Y49490000D02*
X309731000Y49490000D01*
X306981000Y44490000D02*
X306981000Y49490000D01*
X309731000Y44490000D02*
X306981000Y44490000D01*
D12*
X282731000Y82515000D02*
G75*
G03X282731000Y82515000I-125000J0D01*
G01*
D13*
X281156000Y87590000D02*
X281156000Y82590000D01*
X278406000Y87590000D02*
X281156000Y87590000D01*
X278406000Y82590000D02*
X278406000Y87590000D01*
X281156000Y82590000D02*
X278406000Y82590000D01*
D12*
X305656000Y30515000D02*
G75*
G03X305656000Y30515000I-125000J0D01*
G01*
D13*
X306981000Y25440000D02*
X306981000Y30440000D01*
X309731000Y25440000D02*
X306981000Y25440000D01*
X309731000Y30440000D02*
X309731000Y25440000D01*
X306981000Y30440000D02*
X309731000Y30440000D01*
D12*
X281780000Y68615000D02*
G75*
G03X281780000Y68615000I-125000J0D01*
G01*
D13*
X283105000Y63540000D02*
X283105000Y68540000D01*
X285855000Y63540000D02*
X283105000Y63540000D01*
X285855000Y68540000D02*
X285855000Y63540000D01*
X283105000Y68540000D02*
X285855000Y68540000D01*
D12*
X267556000Y106715000D02*
G75*
G03X267556000Y106715000I-125000J0D01*
G01*
D13*
X268881000Y101640000D02*
X268881000Y106640000D01*
X271631000Y101640000D02*
X268881000Y101640000D01*
X271631000Y106640000D02*
X271631000Y101640000D01*
X268881000Y106640000D02*
X271631000Y106640000D01*
D12*
X280318000Y44415000D02*
G75*
G03X280318000Y44415000I-125000J0D01*
G01*
D13*
X278743000Y49490000D02*
X278743000Y44490000D01*
X275993000Y49490000D02*
X278743000Y49490000D01*
X275993000Y44490000D02*
X275993000Y49490000D01*
X278743000Y44490000D02*
X275993000Y44490000D01*
D12*
X254156000Y82515000D02*
G75*
G03X254156000Y82515000I-125000J0D01*
G01*
D13*
X252581000Y87590000D02*
X252581000Y82590000D01*
X249831000Y87590000D02*
X252581000Y87590000D01*
X249831000Y82590000D02*
X249831000Y87590000D01*
X252581000Y82590000D02*
X249831000Y82590000D01*
D12*
X286606000Y30515000D02*
G75*
G03X286606000Y30515000I-125000J0D01*
G01*
D13*
X287931000Y25440000D02*
X287931000Y30440000D01*
X290681000Y25440000D02*
X287931000Y25440000D01*
X290681000Y30440000D02*
X290681000Y25440000D01*
X287931000Y30440000D02*
X290681000Y30440000D01*
D12*
X258031000Y68615000D02*
G75*
G03X258031000Y68615000I-125000J0D01*
G01*
D13*
X259356000Y63540000D02*
X259356000Y68540000D01*
X262106000Y63540000D02*
X259356000Y63540000D01*
X262106000Y68540000D02*
X262106000Y63540000D01*
X259356000Y68540000D02*
X262106000Y68540000D01*
D12*
X248506000Y106715000D02*
G75*
G03X248506000Y106715000I-125000J0D01*
G01*
D13*
X249831000Y101640000D02*
X249831000Y106640000D01*
X252581000Y101640000D02*
X249831000Y101640000D01*
X252581000Y106640000D02*
X252581000Y101640000D01*
X249831000Y106640000D02*
X252581000Y106640000D01*
D12*
X249330000Y44415000D02*
G75*
G03X249330000Y44415000I-125000J0D01*
G01*
D13*
X247755000Y49490000D02*
X247755000Y44490000D01*
X245005000Y49490000D02*
X247755000Y49490000D01*
X245005000Y44490000D02*
X245005000Y49490000D01*
X247755000Y44490000D02*
X245005000Y44490000D01*
D12*
X235106000Y82515000D02*
G75*
G03X235106000Y82515000I-125000J0D01*
G01*
D13*
X233531000Y87590000D02*
X233531000Y82590000D01*
X230781000Y87590000D02*
X233531000Y87590000D01*
X230781000Y82590000D02*
X230781000Y87590000D01*
X233531000Y82590000D02*
X230781000Y82590000D01*
D12*
X260444000Y30515000D02*
G75*
G03X260444000Y30515000I-125000J0D01*
G01*
D13*
X261769000Y25440000D02*
X261769000Y30440000D01*
X264519000Y25440000D02*
X261769000Y25440000D01*
X264519000Y30440000D02*
X264519000Y25440000D01*
X261769000Y30440000D02*
X264519000Y30440000D01*
D12*
X238981000Y68615000D02*
G75*
G03X238981000Y68615000I-125000J0D01*
G01*
D13*
X240306000Y63540000D02*
X240306000Y68540000D01*
X243056000Y63540000D02*
X240306000Y63540000D01*
X243056000Y68540000D02*
X243056000Y63540000D01*
X240306000Y68540000D02*
X243056000Y68540000D01*
D12*
X229456000Y106715000D02*
G75*
G03X229456000Y106715000I-125000J0D01*
G01*
D13*
X230781000Y101640000D02*
X230781000Y106640000D01*
X233531000Y101640000D02*
X230781000Y101640000D01*
X233531000Y106640000D02*
X233531000Y101640000D01*
X230781000Y106640000D02*
X233531000Y106640000D01*
D12*
X230280000Y44415000D02*
G75*
G03X230280000Y44415000I-125000J0D01*
G01*
D13*
X228705000Y49490000D02*
X228705000Y44490000D01*
X225955000Y49490000D02*
X228705000Y49490000D01*
X225955000Y44490000D02*
X225955000Y49490000D01*
X228705000Y44490000D02*
X225955000Y44490000D01*
D12*
X216056000Y82515000D02*
G75*
G03X216056000Y82515000I-125000J0D01*
G01*
D13*
X214481000Y87590000D02*
X214481000Y82590000D01*
X211731000Y87590000D02*
X214481000Y87590000D01*
X211731000Y82590000D02*
X211731000Y87590000D01*
X214481000Y82590000D02*
X211731000Y82590000D01*
D12*
X234155000Y30515000D02*
G75*
G03X234155000Y30515000I-125000J0D01*
G01*
D13*
X235480000Y25440000D02*
X235480000Y30440000D01*
X238230000Y25440000D02*
X235480000Y25440000D01*
X238230000Y30440000D02*
X238230000Y25440000D01*
X235480000Y30440000D02*
X238230000Y30440000D01*
D12*
X219931000Y68615000D02*
G75*
G03X219931000Y68615000I-125000J0D01*
G01*
D13*
X221256000Y63540000D02*
X221256000Y68540000D01*
X224006000Y63540000D02*
X221256000Y63540000D01*
X224006000Y68540000D02*
X224006000Y63540000D01*
X221256000Y68540000D02*
X224006000Y68540000D01*
D12*
X210406000Y106715000D02*
G75*
G03X210406000Y106715000I-125000J0D01*
G01*
D13*
X211731000Y101640000D02*
X211731000Y106640000D01*
X214481000Y101640000D02*
X211731000Y101640000D01*
X214481000Y106640000D02*
X214481000Y101640000D01*
X211731000Y106640000D02*
X214481000Y106640000D01*
D12*
X211230000Y44415000D02*
G75*
G03X211230000Y44415000I-125000J0D01*
G01*
D13*
X209655000Y49490000D02*
X209655000Y44490000D01*
X206905000Y49490000D02*
X209655000Y49490000D01*
X206905000Y44490000D02*
X206905000Y49490000D01*
X209655000Y44490000D02*
X206905000Y44490000D01*
D12*
X197006000Y82515000D02*
G75*
G03X197006000Y82515000I-125000J0D01*
G01*
D13*
X195431000Y87590000D02*
X195431000Y82590000D01*
X192681000Y87590000D02*
X195431000Y87590000D01*
X192681000Y82590000D02*
X192681000Y87590000D01*
X195431000Y82590000D02*
X192681000Y82590000D01*
D12*
X215105000Y30515000D02*
G75*
G03X215105000Y30515000I-125000J0D01*
G01*
D13*
X216430000Y25440000D02*
X216430000Y30440000D01*
X219180000Y25440000D02*
X216430000Y25440000D01*
X219180000Y30440000D02*
X219180000Y25440000D01*
X216430000Y30440000D02*
X219180000Y30440000D01*
D12*
X200881000Y68615000D02*
G75*
G03X200881000Y68615000I-125000J0D01*
G01*
D13*
X202206000Y63540000D02*
X202206000Y68540000D01*
X204956000Y63540000D02*
X202206000Y63540000D01*
X204956000Y68540000D02*
X204956000Y63540000D01*
X202206000Y68540000D02*
X204956000Y68540000D01*
D12*
X191356000Y106715000D02*
G75*
G03X191356000Y106715000I-125000J0D01*
G01*
D13*
X192681000Y101640000D02*
X192681000Y106640000D01*
X195431000Y101640000D02*
X192681000Y101640000D01*
X195431000Y106640000D02*
X195431000Y101640000D01*
X192681000Y106640000D02*
X195431000Y106640000D01*
D12*
X311306000Y6315000D02*
G75*
G03X311306000Y6315000I-125000J0D01*
G01*
D13*
X309731000Y11390000D02*
X309731000Y6390000D01*
X306981000Y11390000D02*
X309731000Y11390000D01*
X306981000Y6390000D02*
X306981000Y11390000D01*
X309731000Y6390000D02*
X306981000Y6390000D01*
D12*
X192180000Y44415000D02*
G75*
G03X192180000Y44415000I-125000J0D01*
G01*
D13*
X190605000Y49490000D02*
X190605000Y44490000D01*
X187855000Y49490000D02*
X190605000Y49490000D01*
X187855000Y44490000D02*
X187855000Y49490000D01*
X190605000Y44490000D02*
X187855000Y44490000D01*
D12*
X177956000Y82515000D02*
G75*
G03X177956000Y82515000I-125000J0D01*
G01*
D13*
X176381000Y87590000D02*
X176381000Y82590000D01*
X173631000Y87590000D02*
X176381000Y87590000D01*
X173631000Y82590000D02*
X173631000Y87590000D01*
X176381000Y82590000D02*
X173631000Y82590000D01*
D12*
X196055000Y30515000D02*
G75*
G03X196055000Y30515000I-125000J0D01*
G01*
D13*
X197380000Y25440000D02*
X197380000Y30440000D01*
X200130000Y25440000D02*
X197380000Y25440000D01*
X200130000Y30440000D02*
X200130000Y25440000D01*
X197380000Y30440000D02*
X200130000Y30440000D01*
D12*
X181831000Y68615000D02*
G75*
G03X181831000Y68615000I-125000J0D01*
G01*
D13*
X183156000Y63540000D02*
X183156000Y68540000D01*
X185906000Y63540000D02*
X183156000Y63540000D01*
X185906000Y68540000D02*
X185906000Y63540000D01*
X183156000Y68540000D02*
X185906000Y68540000D01*
D12*
X172306000Y106715000D02*
G75*
G03X172306000Y106715000I-125000J0D01*
G01*
D13*
X173631000Y101640000D02*
X173631000Y106640000D01*
X176381000Y101640000D02*
X173631000Y101640000D01*
X176381000Y106640000D02*
X176381000Y101640000D01*
X173631000Y106640000D02*
X176381000Y106640000D01*
D12*
X292256000Y6315000D02*
G75*
G03X292256000Y6315000I-125000J0D01*
G01*
D13*
X290681000Y11390000D02*
X290681000Y6390000D01*
X287931000Y11390000D02*
X290681000Y11390000D01*
X287931000Y6390000D02*
X287931000Y11390000D01*
X290681000Y6390000D02*
X287931000Y6390000D01*
D12*
X173130000Y44415000D02*
G75*
G03X173130000Y44415000I-125000J0D01*
G01*
D13*
X171555000Y49490000D02*
X171555000Y44490000D01*
X168805000Y49490000D02*
X171555000Y49490000D01*
X168805000Y44490000D02*
X168805000Y49490000D01*
X171555000Y44490000D02*
X168805000Y44490000D01*
D12*
X158906000Y82515000D02*
G75*
G03X158906000Y82515000I-125000J0D01*
G01*
D13*
X157331000Y87590000D02*
X157331000Y82590000D01*
X154581000Y87590000D02*
X157331000Y87590000D01*
X154581000Y82590000D02*
X154581000Y87590000D01*
X157331000Y82590000D02*
X154581000Y82590000D01*
D12*
X177005000Y30515000D02*
G75*
G03X177005000Y30515000I-125000J0D01*
G01*
D13*
X178330000Y25440000D02*
X178330000Y30440000D01*
X181080000Y25440000D02*
X178330000Y25440000D01*
X181080000Y30440000D02*
X181080000Y25440000D01*
X178330000Y30440000D02*
X181080000Y30440000D01*
D12*
X162781000Y68742000D02*
G75*
G03X162781000Y68742000I-125000J0D01*
G01*
D13*
X164106000Y63667000D02*
X164106000Y68667000D01*
X166856000Y63667000D02*
X164106000Y63667000D01*
X166856000Y68667000D02*
X166856000Y63667000D01*
X164106000Y68667000D02*
X166856000Y68667000D01*
D12*
X153256000Y106715000D02*
G75*
G03X153256000Y106715000I-125000J0D01*
G01*
D13*
X154581000Y101640000D02*
X154581000Y106640000D01*
X157331000Y101640000D02*
X154581000Y101640000D01*
X157331000Y106640000D02*
X157331000Y101640000D01*
X154581000Y106640000D02*
X157331000Y106640000D01*
D12*
X273206000Y6315000D02*
G75*
G03X273206000Y6315000I-125000J0D01*
G01*
D13*
X271631000Y11390000D02*
X271631000Y6390000D01*
X268881000Y11390000D02*
X271631000Y11390000D01*
X268881000Y6390000D02*
X268881000Y11390000D01*
X271631000Y6390000D02*
X268881000Y6390000D01*
D12*
X154080000Y44415000D02*
G75*
G03X154080000Y44415000I-125000J0D01*
G01*
D13*
X152505000Y49490000D02*
X152505000Y44490000D01*
X149755000Y49490000D02*
X152505000Y49490000D01*
X149755000Y44490000D02*
X149755000Y49490000D01*
X152505000Y44490000D02*
X149755000Y44490000D01*
D12*
X139856000Y82515000D02*
G75*
G03X139856000Y82515000I-125000J0D01*
G01*
D13*
X138281000Y87590000D02*
X138281000Y82590000D01*
X135531000Y87590000D02*
X138281000Y87590000D01*
X135531000Y82590000D02*
X135531000Y87590000D01*
X138281000Y82590000D02*
X135531000Y82590000D01*
D12*
X157955000Y30515000D02*
G75*
G03X157955000Y30515000I-125000J0D01*
G01*
D13*
X159280000Y25440000D02*
X159280000Y30440000D01*
X162030000Y25440000D02*
X159280000Y25440000D01*
X162030000Y30440000D02*
X162030000Y25440000D01*
X159280000Y30440000D02*
X162030000Y30440000D01*
D12*
X143731000Y68615000D02*
G75*
G03X143731000Y68615000I-125000J0D01*
G01*
D13*
X145056000Y63540000D02*
X145056000Y68540000D01*
X147806000Y63540000D02*
X145056000Y63540000D01*
X147806000Y68540000D02*
X147806000Y63540000D01*
X145056000Y68540000D02*
X147806000Y68540000D01*
D12*
X134206000Y106715000D02*
G75*
G03X134206000Y106715000I-125000J0D01*
G01*
D13*
X135531000Y101640000D02*
X135531000Y106640000D01*
X138281000Y101640000D02*
X135531000Y101640000D01*
X138281000Y106640000D02*
X138281000Y101640000D01*
X135531000Y106640000D02*
X138281000Y106640000D01*
D12*
X135030000Y44415000D02*
G75*
G03X135030000Y44415000I-125000J0D01*
G01*
D13*
X133455000Y49490000D02*
X133455000Y44490000D01*
X130705000Y49490000D02*
X133455000Y49490000D01*
X130705000Y44490000D02*
X130705000Y49490000D01*
X133455000Y44490000D02*
X130705000Y44490000D01*
D12*
X120806000Y82515000D02*
G75*
G03X120806000Y82515000I-125000J0D01*
G01*
D13*
X119231000Y87590000D02*
X119231000Y82590000D01*
X116481000Y87590000D02*
X119231000Y87590000D01*
X116481000Y82590000D02*
X116481000Y87590000D01*
X119231000Y82590000D02*
X116481000Y82590000D01*
D12*
X138905000Y30515000D02*
G75*
G03X138905000Y30515000I-125000J0D01*
G01*
D13*
X140230000Y25440000D02*
X140230000Y30440000D01*
X142980000Y25440000D02*
X140230000Y25440000D01*
X142980000Y30440000D02*
X142980000Y25440000D01*
X140230000Y30440000D02*
X142980000Y30440000D01*
D12*
X124681000Y68615000D02*
G75*
G03X124681000Y68615000I-125000J0D01*
G01*
D13*
X126006000Y63540000D02*
X126006000Y68540000D01*
X128756000Y63540000D02*
X126006000Y63540000D01*
X128756000Y68540000D02*
X128756000Y63540000D01*
X126006000Y68540000D02*
X128756000Y68540000D01*
D12*
X115156000Y106715000D02*
G75*
G03X115156000Y106715000I-125000J0D01*
G01*
D13*
X116481000Y101640000D02*
X116481000Y106640000D01*
X119231000Y101640000D02*
X116481000Y101640000D01*
X119231000Y106640000D02*
X119231000Y101640000D01*
X116481000Y106640000D02*
X119231000Y106640000D01*
D12*
X223168000Y6315000D02*
G75*
G03X223168000Y6315000I-125000J0D01*
G01*
D13*
X221593000Y11390000D02*
X221593000Y6390000D01*
X218843000Y11390000D02*
X221593000Y11390000D01*
X218843000Y6390000D02*
X218843000Y11390000D01*
X221593000Y6390000D02*
X218843000Y6390000D01*
D12*
X115980000Y44415000D02*
G75*
G03X115980000Y44415000I-125000J0D01*
G01*
D13*
X114405000Y49490000D02*
X114405000Y44490000D01*
X111655000Y49490000D02*
X114405000Y49490000D01*
X111655000Y44490000D02*
X111655000Y49490000D01*
X114405000Y44490000D02*
X111655000Y44490000D01*
D12*
X101756000Y82515000D02*
G75*
G03X101756000Y82515000I-125000J0D01*
G01*
D13*
X100181000Y87590000D02*
X100181000Y82590000D01*
X97431000Y87590000D02*
X100181000Y87590000D01*
X97431000Y82590000D02*
X97431000Y87590000D01*
X100181000Y82590000D02*
X97431000Y82590000D01*
D12*
X119855000Y30515000D02*
G75*
G03X119855000Y30515000I-125000J0D01*
G01*
D13*
X121180000Y25440000D02*
X121180000Y30440000D01*
X123930000Y25440000D02*
X121180000Y25440000D01*
X123930000Y30440000D02*
X123930000Y25440000D01*
X121180000Y30440000D02*
X123930000Y30440000D01*
D12*
X105631000Y68615000D02*
G75*
G03X105631000Y68615000I-125000J0D01*
G01*
D13*
X106956000Y63540000D02*
X106956000Y68540000D01*
X109706000Y63540000D02*
X106956000Y63540000D01*
X109706000Y68540000D02*
X109706000Y63540000D01*
X106956000Y68540000D02*
X109706000Y68540000D01*
D12*
X96106000Y106715000D02*
G75*
G03X96106000Y106715000I-125000J0D01*
G01*
D13*
X97431000Y101640000D02*
X97431000Y106640000D01*
X100181000Y101640000D02*
X97431000Y101640000D01*
X100181000Y106640000D02*
X100181000Y101640000D01*
X97431000Y106640000D02*
X100181000Y106640000D01*
D12*
X151794000Y6315000D02*
G75*
G03X151794000Y6315000I-125000J0D01*
G01*
D13*
X150219000Y11390000D02*
X150219000Y6390000D01*
X147469000Y11390000D02*
X150219000Y11390000D01*
X147469000Y6390000D02*
X147469000Y11390000D01*
X150219000Y6390000D02*
X147469000Y6390000D01*
D12*
X96930000Y44415000D02*
G75*
G03X96930000Y44415000I-125000J0D01*
G01*
D13*
X95355000Y49490000D02*
X95355000Y44490000D01*
X92605000Y49490000D02*
X95355000Y49490000D01*
X92605000Y44490000D02*
X92605000Y49490000D01*
X95355000Y44490000D02*
X92605000Y44490000D01*
D12*
X82706000Y82515000D02*
G75*
G03X82706000Y82515000I-125000J0D01*
G01*
D13*
X81131000Y87590000D02*
X81131000Y82590000D01*
X78381000Y87590000D02*
X81131000Y87590000D01*
X78381000Y82590000D02*
X78381000Y87590000D01*
X81131000Y82590000D02*
X78381000Y82590000D01*
D12*
X100805000Y30515000D02*
G75*
G03X100805000Y30515000I-125000J0D01*
G01*
D13*
X102130000Y25440000D02*
X102130000Y30440000D01*
X104880000Y25440000D02*
X102130000Y25440000D01*
X104880000Y30440000D02*
X104880000Y25440000D01*
X102130000Y30440000D02*
X104880000Y30440000D01*
D12*
X86581000Y68742000D02*
G75*
G03X86581000Y68742000I-125000J0D01*
G01*
D13*
X87906000Y63667000D02*
X87906000Y68667000D01*
X90656000Y63667000D02*
X87906000Y63667000D01*
X90656000Y68667000D02*
X90656000Y63667000D01*
X87906000Y68667000D02*
X90656000Y68667000D01*
D12*
X77056000Y106715000D02*
G75*
G03X77056000Y106715000I-125000J0D01*
G01*
D13*
X78381000Y101640000D02*
X78381000Y106640000D01*
X81131000Y101640000D02*
X78381000Y101640000D01*
X81131000Y106640000D02*
X81131000Y101640000D01*
X78381000Y106640000D02*
X81131000Y106640000D01*
D12*
X78007000Y6442000D02*
G75*
G03X78007000Y6442000I-125000J0D01*
G01*
D13*
X76432000Y11517000D02*
X76432000Y6517000D01*
X73682000Y11517000D02*
X76432000Y11517000D01*
X73682000Y6517000D02*
X73682000Y11517000D01*
X76432000Y6517000D02*
X73682000Y6517000D01*
D12*
X77880000Y44415000D02*
G75*
G03X77880000Y44415000I-125000J0D01*
G01*
D13*
X76305000Y49490000D02*
X76305000Y44490000D01*
X73555000Y49490000D02*
X76305000Y49490000D01*
X73555000Y44490000D02*
X73555000Y49490000D01*
X76305000Y44490000D02*
X73555000Y44490000D01*
D12*
X63656000Y82515000D02*
G75*
G03X63656000Y82515000I-125000J0D01*
G01*
D13*
X62081000Y87590000D02*
X62081000Y82590000D01*
X59331000Y87590000D02*
X62081000Y87590000D01*
X59331000Y82590000D02*
X59331000Y87590000D01*
X62081000Y82590000D02*
X59331000Y82590000D01*
D12*
X81755000Y30515000D02*
G75*
G03X81755000Y30515000I-125000J0D01*
G01*
D13*
X83080000Y25440000D02*
X83080000Y30440000D01*
X85830000Y25440000D02*
X83080000Y25440000D01*
X85830000Y30440000D02*
X85830000Y25440000D01*
X83080000Y30440000D02*
X85830000Y30440000D01*
D12*
X67531000Y68615000D02*
G75*
G03X67531000Y68615000I-125000J0D01*
G01*
D13*
X68856000Y63540000D02*
X68856000Y68540000D01*
X71606000Y63540000D02*
X68856000Y63540000D01*
X71606000Y68540000D02*
X71606000Y63540000D01*
X68856000Y68540000D02*
X71606000Y68540000D01*
D12*
X58006000Y106715000D02*
G75*
G03X58006000Y106715000I-125000J0D01*
G01*
D13*
X59331000Y101640000D02*
X59331000Y106640000D01*
X62081000Y101640000D02*
X59331000Y101640000D01*
X62081000Y106640000D02*
X62081000Y101640000D01*
X59331000Y106640000D02*
X62081000Y106640000D01*
D12*
X54131000Y6315000D02*
G75*
G03X54131000Y6315000I-125000J0D01*
G01*
D13*
X52556000Y11390000D02*
X52556000Y6390000D01*
X49806000Y11390000D02*
X52556000Y11390000D01*
X49806000Y6390000D02*
X49806000Y11390000D01*
X52556000Y6390000D02*
X49806000Y6390000D01*
D12*
X58830000Y44415000D02*
G75*
G03X58830000Y44415000I-125000J0D01*
G01*
D13*
X57255000Y49490000D02*
X57255000Y44490000D01*
X54505000Y49490000D02*
X57255000Y49490000D01*
X54505000Y44490000D02*
X54505000Y49490000D01*
X57255000Y44490000D02*
X54505000Y44490000D01*
D12*
X44606000Y82515000D02*
G75*
G03X44606000Y82515000I-125000J0D01*
G01*
D13*
X43031000Y87590000D02*
X43031000Y82590000D01*
X40281000Y87590000D02*
X43031000Y87590000D01*
X40281000Y82590000D02*
X40281000Y87590000D01*
X43031000Y82590000D02*
X40281000Y82590000D01*
D12*
X62705000Y30515000D02*
G75*
G03X62705000Y30515000I-125000J0D01*
G01*
D13*
X64030000Y25440000D02*
X64030000Y30440000D01*
X66780000Y25440000D02*
X64030000Y25440000D01*
X66780000Y30440000D02*
X66780000Y25440000D01*
X64030000Y30440000D02*
X66780000Y30440000D01*
D12*
X48481000Y68615000D02*
G75*
G03X48481000Y68615000I-125000J0D01*
G01*
D13*
X49806000Y63540000D02*
X49806000Y68540000D01*
X52556000Y63540000D02*
X49806000Y63540000D01*
X52556000Y68540000D02*
X52556000Y63540000D01*
X49806000Y68540000D02*
X52556000Y68540000D01*
D12*
X38956000Y106715000D02*
G75*
G03X38956000Y106715000I-125000J0D01*
G01*
D13*
X40281000Y101640000D02*
X40281000Y106640000D01*
X43031000Y101640000D02*
X40281000Y101640000D01*
X43031000Y106640000D02*
X43031000Y101640000D01*
X40281000Y106640000D02*
X43031000Y106640000D01*
D12*
X30255000Y6315000D02*
G75*
G03X30255000Y6315000I-125000J0D01*
G01*
D13*
X28680000Y11390000D02*
X28680000Y6390000D01*
X25930000Y11390000D02*
X28680000Y11390000D01*
X25930000Y6390000D02*
X25930000Y11390000D01*
X28680000Y6390000D02*
X25930000Y6390000D01*
D12*
X32668000Y44542000D02*
G75*
G03X32668000Y44542000I-125000J0D01*
G01*
D13*
X31093000Y49617000D02*
X31093000Y44617000D01*
X28343000Y49617000D02*
X31093000Y49617000D01*
X28343000Y44617000D02*
X28343000Y49617000D01*
X31093000Y44617000D02*
X28343000Y44617000D01*
D12*
X25556000Y82515000D02*
G75*
G03X25556000Y82515000I-125000J0D01*
G01*
D13*
X23981000Y87590000D02*
X23981000Y82590000D01*
X21231000Y87590000D02*
X23981000Y87590000D01*
X21231000Y82590000D02*
X21231000Y87590000D01*
X23981000Y82590000D02*
X21231000Y82590000D01*
D12*
X31844000Y30515000D02*
G75*
G03X31844000Y30515000I-125000J0D01*
G01*
D13*
X33169000Y25440000D02*
X33169000Y30440000D01*
X35919000Y25440000D02*
X33169000Y25440000D01*
X35919000Y30440000D02*
X35919000Y25440000D01*
X33169000Y30440000D02*
X35919000Y30440000D01*
D12*
X24605000Y68615000D02*
G75*
G03X24605000Y68615000I-125000J0D01*
G01*
D13*
X25930000Y63540000D02*
X25930000Y68540000D01*
X28680000Y63540000D02*
X25930000Y63540000D01*
X28680000Y68540000D02*
X28680000Y63540000D01*
X25930000Y68540000D02*
X28680000Y68540000D01*
D12*
X19906000Y106715000D02*
G75*
G03X19906000Y106715000I-125000J0D01*
G01*
D13*
X21231000Y101640000D02*
X21231000Y106640000D01*
X23981000Y101640000D02*
X21231000Y101640000D01*
X23981000Y106640000D02*
X23981000Y101640000D01*
X21231000Y106640000D02*
X23981000Y106640000D01*
D12*
X6506000Y6315000D02*
G75*
G03X6506000Y6315000I-125000J0D01*
G01*
D13*
X4931000Y11390000D02*
X4931000Y6390000D01*
X2181000Y11390000D02*
X4931000Y11390000D01*
X2181000Y6390000D02*
X2181000Y11390000D01*
X4931000Y6390000D02*
X2181000Y6390000D01*
D12*
X6506000Y44415000D02*
G75*
G03X6506000Y44415000I-125000J0D01*
G01*
D13*
X4931000Y49490000D02*
X4931000Y44490000D01*
X2181000Y49490000D02*
X4931000Y49490000D01*
X2181000Y44490000D02*
X2181000Y49490000D01*
X4931000Y44490000D02*
X2181000Y44490000D01*
D12*
X6506000Y82515000D02*
G75*
G03X6506000Y82515000I-125000J0D01*
G01*
D13*
X4931000Y87590000D02*
X4931000Y82590000D01*
X2181000Y87590000D02*
X4931000Y87590000D01*
X2181000Y82590000D02*
X2181000Y87590000D01*
X4931000Y82590000D02*
X2181000Y82590000D01*
D12*
X856000Y30515000D02*
G75*
G03X856000Y30515000I-125000J0D01*
G01*
D13*
X2181000Y25440000D02*
X2181000Y30440000D01*
X4931000Y25440000D02*
X2181000Y25440000D01*
X4931000Y30440000D02*
X4931000Y25440000D01*
X2181000Y30440000D02*
X4931000Y30440000D01*
D12*
X856000Y68615000D02*
G75*
G03X856000Y68615000I-125000J0D01*
G01*
D13*
X2181000Y63540000D02*
X2181000Y68540000D01*
X4931000Y63540000D02*
X2181000Y63540000D01*
X4931000Y68540000D02*
X4931000Y63540000D01*
X2181000Y68540000D02*
X4931000Y68540000D01*
D12*
X856000Y106715000D02*
G75*
G03X856000Y106715000I-125000J0D01*
G01*
D13*
X2181000Y101640000D02*
X2181000Y106640000D01*
X4931000Y101640000D02*
X2181000Y101640000D01*
X4931000Y106640000D02*
X4931000Y101640000D01*
X2181000Y106640000D02*
X4931000Y106640000D01*
D12*
X-12544000Y6315000D02*
G75*
G03X-12544000Y6315000I-125000J0D01*
G01*
D13*
X-14119000Y11390000D02*
X-14119000Y6390000D01*
X-16869000Y11390000D02*
X-14119000Y11390000D01*
X-16869000Y6390000D02*
X-16869000Y11390000D01*
X-14119000Y6390000D02*
X-16869000Y6390000D01*
D12*
X-12544000Y44415000D02*
G75*
G03X-12544000Y44415000I-125000J0D01*
G01*
D13*
X-14119000Y49490000D02*
X-14119000Y44490000D01*
X-16869000Y49490000D02*
X-14119000Y49490000D01*
X-16869000Y44490000D02*
X-16869000Y49490000D01*
X-14119000Y44490000D02*
X-16869000Y44490000D01*
D12*
X-12544000Y82515000D02*
G75*
G03X-12544000Y82515000I-125000J0D01*
G01*
D13*
X-14119000Y87590000D02*
X-14119000Y82590000D01*
X-16869000Y87590000D02*
X-14119000Y87590000D01*
X-16869000Y82590000D02*
X-16869000Y87590000D01*
X-14119000Y82590000D02*
X-16869000Y82590000D01*
D12*
X-18194000Y30515000D02*
G75*
G03X-18194000Y30515000I-125000J0D01*
G01*
D13*
X-16869000Y25440000D02*
X-16869000Y30440000D01*
X-14119000Y25440000D02*
X-16869000Y25440000D01*
X-14119000Y30440000D02*
X-14119000Y25440000D01*
X-16869000Y30440000D02*
X-14119000Y30440000D01*
D12*
X-18194000Y68615000D02*
G75*
G03X-18194000Y68615000I-125000J0D01*
G01*
D13*
X-16869000Y63540000D02*
X-16869000Y68540000D01*
X-14119000Y63540000D02*
X-16869000Y63540000D01*
X-14119000Y68540000D02*
X-14119000Y63540000D01*
X-16869000Y68540000D02*
X-14119000Y68540000D01*
D12*
X-18194000Y106715000D02*
G75*
G03X-18194000Y106715000I-125000J0D01*
G01*
D13*
X-16869000Y101640000D02*
X-16869000Y106640000D01*
X-14119000Y101640000D02*
X-16869000Y101640000D01*
X-14119000Y106640000D02*
X-14119000Y101640000D01*
X-16869000Y106640000D02*
X-14119000Y106640000D01*
D10*
X328348000Y108743750D02*
X319098000Y108743750D01*
X328198000Y102083750D02*
X319248000Y102083750D01*
X319243000Y110493750D02*
X319248000Y111253750D01*
X328198000Y111253750D02*
X319248000Y111253750D01*
X328198000Y111253750D02*
X328203000Y110493750D01*
X323723000Y108743750D02*
X323723000Y107473750D01*
D14*
X244535476Y8442476D02*
X244535476Y9712476D01*
X245865952Y8563428D02*
X245805476Y8502952D01*
X245624047Y8442476D01*
X245503095Y8442476D01*
X245321666Y8502952D01*
X245200714Y8623904D01*
X245140238Y8744857D01*
X245079761Y8986761D01*
X245079761Y9168190D01*
X245140238Y9410095D01*
X245200714Y9531047D01*
X245321666Y9652000D01*
X245503095Y9712476D01*
X245624047Y9712476D01*
X245805476Y9652000D01*
X245865952Y9591523D01*
X246954523Y9289142D02*
X246954523Y8442476D01*
X246652142Y9772952D02*
X246349761Y8865809D01*
X247135952Y8865809D01*
X247801190Y9168190D02*
X247680238Y9228666D01*
X247619761Y9289142D01*
X247559285Y9410095D01*
X247559285Y9470571D01*
X247619761Y9591523D01*
X247680238Y9652000D01*
X247801190Y9712476D01*
X248043095Y9712476D01*
X248164047Y9652000D01*
X248224523Y9591523D01*
X248285000Y9470571D01*
X248285000Y9410095D01*
X248224523Y9289142D01*
X248164047Y9228666D01*
X248043095Y9168190D01*
X247801190Y9168190D01*
X247680238Y9107714D01*
X247619761Y9047238D01*
X247559285Y8926285D01*
X247559285Y8684380D01*
X247619761Y8563428D01*
X247680238Y8502952D01*
X247801190Y8442476D01*
X248043095Y8442476D01*
X248164047Y8502952D01*
X248224523Y8563428D01*
X248285000Y8684380D01*
X248285000Y8926285D01*
X248224523Y9047238D01*
X248164047Y9107714D01*
X248043095Y9168190D01*
X306511476Y103565476D02*
X306511476Y104835476D01*
X307841952Y103686428D02*
X307781476Y103625952D01*
X307600047Y103565476D01*
X307479095Y103565476D01*
X307297666Y103625952D01*
X307176714Y103746904D01*
X307116238Y103867857D01*
X307055761Y104109761D01*
X307055761Y104291190D01*
X307116238Y104533095D01*
X307176714Y104654047D01*
X307297666Y104775000D01*
X307479095Y104835476D01*
X307600047Y104835476D01*
X307781476Y104775000D01*
X307841952Y104714523D01*
X308446714Y103565476D02*
X308688619Y103565476D01*
X308809571Y103625952D01*
X308870047Y103686428D01*
X308991000Y103867857D01*
X309051476Y104109761D01*
X309051476Y104593571D01*
X308991000Y104714523D01*
X308930523Y104775000D01*
X308809571Y104835476D01*
X308567666Y104835476D01*
X308446714Y104775000D01*
X308386238Y104714523D01*
X308325761Y104593571D01*
X308325761Y104291190D01*
X308386238Y104170238D01*
X308446714Y104109761D01*
X308567666Y104049285D01*
X308809571Y104049285D01*
X308930523Y104109761D01*
X308991000Y104170238D01*
X309051476Y104291190D01*
X310200523Y104835476D02*
X309595761Y104835476D01*
X309535285Y104230714D01*
X309595761Y104291190D01*
X309716714Y104351666D01*
X310019095Y104351666D01*
X310140047Y104291190D01*
X310200523Y104230714D01*
X310261000Y104109761D01*
X310261000Y103807380D01*
X310200523Y103686428D01*
X310140047Y103625952D01*
X310019095Y103565476D01*
X309716714Y103565476D01*
X309595761Y103625952D01*
X309535285Y103686428D01*
X306511476Y84515476D02*
X306511476Y85785476D01*
X307841952Y84636428D02*
X307781476Y84575952D01*
X307600047Y84515476D01*
X307479095Y84515476D01*
X307297666Y84575952D01*
X307176714Y84696904D01*
X307116238Y84817857D01*
X307055761Y85059761D01*
X307055761Y85241190D01*
X307116238Y85483095D01*
X307176714Y85604047D01*
X307297666Y85725000D01*
X307479095Y85785476D01*
X307600047Y85785476D01*
X307781476Y85725000D01*
X307841952Y85664523D01*
X308446714Y84515476D02*
X308688619Y84515476D01*
X308809571Y84575952D01*
X308870047Y84636428D01*
X308991000Y84817857D01*
X309051476Y85059761D01*
X309051476Y85543571D01*
X308991000Y85664523D01*
X308930523Y85725000D01*
X308809571Y85785476D01*
X308567666Y85785476D01*
X308446714Y85725000D01*
X308386238Y85664523D01*
X308325761Y85543571D01*
X308325761Y85241190D01*
X308386238Y85120238D01*
X308446714Y85059761D01*
X308567666Y84999285D01*
X308809571Y84999285D01*
X308930523Y85059761D01*
X308991000Y85120238D01*
X309051476Y85241190D01*
X310140047Y85362142D02*
X310140047Y84515476D01*
X309837666Y85845952D02*
X309535285Y84938809D01*
X310321476Y84938809D01*
X306511476Y65465476D02*
X306511476Y66735476D01*
X307841952Y65586428D02*
X307781476Y65525952D01*
X307600047Y65465476D01*
X307479095Y65465476D01*
X307297666Y65525952D01*
X307176714Y65646904D01*
X307116238Y65767857D01*
X307055761Y66009761D01*
X307055761Y66191190D01*
X307116238Y66433095D01*
X307176714Y66554047D01*
X307297666Y66675000D01*
X307479095Y66735476D01*
X307600047Y66735476D01*
X307781476Y66675000D01*
X307841952Y66614523D01*
X308446714Y65465476D02*
X308688619Y65465476D01*
X308809571Y65525952D01*
X308870047Y65586428D01*
X308991000Y65767857D01*
X309051476Y66009761D01*
X309051476Y66493571D01*
X308991000Y66614523D01*
X308930523Y66675000D01*
X308809571Y66735476D01*
X308567666Y66735476D01*
X308446714Y66675000D01*
X308386238Y66614523D01*
X308325761Y66493571D01*
X308325761Y66191190D01*
X308386238Y66070238D01*
X308446714Y66009761D01*
X308567666Y65949285D01*
X308809571Y65949285D01*
X308930523Y66009761D01*
X308991000Y66070238D01*
X309051476Y66191190D01*
X309474809Y66735476D02*
X310261000Y66735476D01*
X309837666Y66251666D01*
X310019095Y66251666D01*
X310140047Y66191190D01*
X310200523Y66130714D01*
X310261000Y66009761D01*
X310261000Y65707380D01*
X310200523Y65586428D01*
X310140047Y65525952D01*
X310019095Y65465476D01*
X309656238Y65465476D01*
X309535285Y65525952D01*
X309474809Y65586428D01*
X287461476Y103565476D02*
X287461476Y104835476D01*
X288791952Y103686428D02*
X288731476Y103625952D01*
X288550047Y103565476D01*
X288429095Y103565476D01*
X288247666Y103625952D01*
X288126714Y103746904D01*
X288066238Y103867857D01*
X288005761Y104109761D01*
X288005761Y104291190D01*
X288066238Y104533095D01*
X288126714Y104654047D01*
X288247666Y104775000D01*
X288429095Y104835476D01*
X288550047Y104835476D01*
X288731476Y104775000D01*
X288791952Y104714523D01*
X289396714Y103565476D02*
X289638619Y103565476D01*
X289759571Y103625952D01*
X289820047Y103686428D01*
X289941000Y103867857D01*
X290001476Y104109761D01*
X290001476Y104593571D01*
X289941000Y104714523D01*
X289880523Y104775000D01*
X289759571Y104835476D01*
X289517666Y104835476D01*
X289396714Y104775000D01*
X289336238Y104714523D01*
X289275761Y104593571D01*
X289275761Y104291190D01*
X289336238Y104170238D01*
X289396714Y104109761D01*
X289517666Y104049285D01*
X289759571Y104049285D01*
X289880523Y104109761D01*
X289941000Y104170238D01*
X290001476Y104291190D01*
X290485285Y104714523D02*
X290545761Y104775000D01*
X290666714Y104835476D01*
X290969095Y104835476D01*
X291090047Y104775000D01*
X291150523Y104714523D01*
X291211000Y104593571D01*
X291211000Y104472619D01*
X291150523Y104291190D01*
X290424809Y103565476D01*
X291211000Y103565476D01*
X306511476Y46415476D02*
X306511476Y47685476D01*
X307841952Y46536428D02*
X307781476Y46475952D01*
X307600047Y46415476D01*
X307479095Y46415476D01*
X307297666Y46475952D01*
X307176714Y46596904D01*
X307116238Y46717857D01*
X307055761Y46959761D01*
X307055761Y47141190D01*
X307116238Y47383095D01*
X307176714Y47504047D01*
X307297666Y47625000D01*
X307479095Y47685476D01*
X307600047Y47685476D01*
X307781476Y47625000D01*
X307841952Y47564523D01*
X308446714Y46415476D02*
X308688619Y46415476D01*
X308809571Y46475952D01*
X308870047Y46536428D01*
X308991000Y46717857D01*
X309051476Y46959761D01*
X309051476Y47443571D01*
X308991000Y47564523D01*
X308930523Y47625000D01*
X308809571Y47685476D01*
X308567666Y47685476D01*
X308446714Y47625000D01*
X308386238Y47564523D01*
X308325761Y47443571D01*
X308325761Y47141190D01*
X308386238Y47020238D01*
X308446714Y46959761D01*
X308567666Y46899285D01*
X308809571Y46899285D01*
X308930523Y46959761D01*
X308991000Y47020238D01*
X309051476Y47141190D01*
X310261000Y46415476D02*
X309535285Y46415476D01*
X309898142Y46415476D02*
X309898142Y47685476D01*
X309777190Y47504047D01*
X309656238Y47383095D01*
X309535285Y47322619D01*
X277936476Y84515476D02*
X277936476Y85785476D01*
X279266952Y84636428D02*
X279206476Y84575952D01*
X279025047Y84515476D01*
X278904095Y84515476D01*
X278722666Y84575952D01*
X278601714Y84696904D01*
X278541238Y84817857D01*
X278480761Y85059761D01*
X278480761Y85241190D01*
X278541238Y85483095D01*
X278601714Y85604047D01*
X278722666Y85725000D01*
X278904095Y85785476D01*
X279025047Y85785476D01*
X279206476Y85725000D01*
X279266952Y85664523D01*
X279871714Y84515476D02*
X280113619Y84515476D01*
X280234571Y84575952D01*
X280295047Y84636428D01*
X280416000Y84817857D01*
X280476476Y85059761D01*
X280476476Y85543571D01*
X280416000Y85664523D01*
X280355523Y85725000D01*
X280234571Y85785476D01*
X279992666Y85785476D01*
X279871714Y85725000D01*
X279811238Y85664523D01*
X279750761Y85543571D01*
X279750761Y85241190D01*
X279811238Y85120238D01*
X279871714Y85059761D01*
X279992666Y84999285D01*
X280234571Y84999285D01*
X280355523Y85059761D01*
X280416000Y85120238D01*
X280476476Y85241190D01*
X281262666Y85785476D02*
X281383619Y85785476D01*
X281504571Y85725000D01*
X281565047Y85664523D01*
X281625523Y85543571D01*
X281686000Y85301666D01*
X281686000Y84999285D01*
X281625523Y84757380D01*
X281565047Y84636428D01*
X281504571Y84575952D01*
X281383619Y84515476D01*
X281262666Y84515476D01*
X281141714Y84575952D01*
X281081238Y84636428D01*
X281020761Y84757380D01*
X280960285Y84999285D01*
X280960285Y85301666D01*
X281020761Y85543571D01*
X281081238Y85664523D01*
X281141714Y85725000D01*
X281262666Y85785476D01*
X306511476Y27365476D02*
X306511476Y28635476D01*
X307841952Y27486428D02*
X307781476Y27425952D01*
X307600047Y27365476D01*
X307479095Y27365476D01*
X307297666Y27425952D01*
X307176714Y27546904D01*
X307116238Y27667857D01*
X307055761Y27909761D01*
X307055761Y28091190D01*
X307116238Y28333095D01*
X307176714Y28454047D01*
X307297666Y28575000D01*
X307479095Y28635476D01*
X307600047Y28635476D01*
X307781476Y28575000D01*
X307841952Y28514523D01*
X308567666Y28091190D02*
X308446714Y28151666D01*
X308386238Y28212142D01*
X308325761Y28333095D01*
X308325761Y28393571D01*
X308386238Y28514523D01*
X308446714Y28575000D01*
X308567666Y28635476D01*
X308809571Y28635476D01*
X308930523Y28575000D01*
X308991000Y28514523D01*
X309051476Y28393571D01*
X309051476Y28333095D01*
X308991000Y28212142D01*
X308930523Y28151666D01*
X308809571Y28091190D01*
X308567666Y28091190D01*
X308446714Y28030714D01*
X308386238Y27970238D01*
X308325761Y27849285D01*
X308325761Y27607380D01*
X308386238Y27486428D01*
X308446714Y27425952D01*
X308567666Y27365476D01*
X308809571Y27365476D01*
X308930523Y27425952D01*
X308991000Y27486428D01*
X309051476Y27607380D01*
X309051476Y27849285D01*
X308991000Y27970238D01*
X308930523Y28030714D01*
X308809571Y28091190D01*
X309656238Y27365476D02*
X309898142Y27365476D01*
X310019095Y27425952D01*
X310079571Y27486428D01*
X310200523Y27667857D01*
X310261000Y27909761D01*
X310261000Y28393571D01*
X310200523Y28514523D01*
X310140047Y28575000D01*
X310019095Y28635476D01*
X309777190Y28635476D01*
X309656238Y28575000D01*
X309595761Y28514523D01*
X309535285Y28393571D01*
X309535285Y28091190D01*
X309595761Y27970238D01*
X309656238Y27909761D01*
X309777190Y27849285D01*
X310019095Y27849285D01*
X310140047Y27909761D01*
X310200523Y27970238D01*
X310261000Y28091190D01*
X282635476Y65465476D02*
X282635476Y66735476D01*
X283965952Y65586428D02*
X283905476Y65525952D01*
X283724047Y65465476D01*
X283603095Y65465476D01*
X283421666Y65525952D01*
X283300714Y65646904D01*
X283240238Y65767857D01*
X283179761Y66009761D01*
X283179761Y66191190D01*
X283240238Y66433095D01*
X283300714Y66554047D01*
X283421666Y66675000D01*
X283603095Y66735476D01*
X283724047Y66735476D01*
X283905476Y66675000D01*
X283965952Y66614523D01*
X284691666Y66191190D02*
X284570714Y66251666D01*
X284510238Y66312142D01*
X284449761Y66433095D01*
X284449761Y66493571D01*
X284510238Y66614523D01*
X284570714Y66675000D01*
X284691666Y66735476D01*
X284933571Y66735476D01*
X285054523Y66675000D01*
X285115000Y66614523D01*
X285175476Y66493571D01*
X285175476Y66433095D01*
X285115000Y66312142D01*
X285054523Y66251666D01*
X284933571Y66191190D01*
X284691666Y66191190D01*
X284570714Y66130714D01*
X284510238Y66070238D01*
X284449761Y65949285D01*
X284449761Y65707380D01*
X284510238Y65586428D01*
X284570714Y65525952D01*
X284691666Y65465476D01*
X284933571Y65465476D01*
X285054523Y65525952D01*
X285115000Y65586428D01*
X285175476Y65707380D01*
X285175476Y65949285D01*
X285115000Y66070238D01*
X285054523Y66130714D01*
X284933571Y66191190D01*
X285901190Y66191190D02*
X285780238Y66251666D01*
X285719761Y66312142D01*
X285659285Y66433095D01*
X285659285Y66493571D01*
X285719761Y66614523D01*
X285780238Y66675000D01*
X285901190Y66735476D01*
X286143095Y66735476D01*
X286264047Y66675000D01*
X286324523Y66614523D01*
X286385000Y66493571D01*
X286385000Y66433095D01*
X286324523Y66312142D01*
X286264047Y66251666D01*
X286143095Y66191190D01*
X285901190Y66191190D01*
X285780238Y66130714D01*
X285719761Y66070238D01*
X285659285Y65949285D01*
X285659285Y65707380D01*
X285719761Y65586428D01*
X285780238Y65525952D01*
X285901190Y65465476D01*
X286143095Y65465476D01*
X286264047Y65525952D01*
X286324523Y65586428D01*
X286385000Y65707380D01*
X286385000Y65949285D01*
X286324523Y66070238D01*
X286264047Y66130714D01*
X286143095Y66191190D01*
X268411476Y103565476D02*
X268411476Y104835476D01*
X269741952Y103686428D02*
X269681476Y103625952D01*
X269500047Y103565476D01*
X269379095Y103565476D01*
X269197666Y103625952D01*
X269076714Y103746904D01*
X269016238Y103867857D01*
X268955761Y104109761D01*
X268955761Y104291190D01*
X269016238Y104533095D01*
X269076714Y104654047D01*
X269197666Y104775000D01*
X269379095Y104835476D01*
X269500047Y104835476D01*
X269681476Y104775000D01*
X269741952Y104714523D01*
X270467666Y104291190D02*
X270346714Y104351666D01*
X270286238Y104412142D01*
X270225761Y104533095D01*
X270225761Y104593571D01*
X270286238Y104714523D01*
X270346714Y104775000D01*
X270467666Y104835476D01*
X270709571Y104835476D01*
X270830523Y104775000D01*
X270891000Y104714523D01*
X270951476Y104593571D01*
X270951476Y104533095D01*
X270891000Y104412142D01*
X270830523Y104351666D01*
X270709571Y104291190D01*
X270467666Y104291190D01*
X270346714Y104230714D01*
X270286238Y104170238D01*
X270225761Y104049285D01*
X270225761Y103807380D01*
X270286238Y103686428D01*
X270346714Y103625952D01*
X270467666Y103565476D01*
X270709571Y103565476D01*
X270830523Y103625952D01*
X270891000Y103686428D01*
X270951476Y103807380D01*
X270951476Y104049285D01*
X270891000Y104170238D01*
X270830523Y104230714D01*
X270709571Y104291190D01*
X271374809Y104835476D02*
X272221476Y104835476D01*
X271677190Y103565476D01*
X275523476Y46415476D02*
X275523476Y47685476D01*
X276853952Y46536428D02*
X276793476Y46475952D01*
X276612047Y46415476D01*
X276491095Y46415476D01*
X276309666Y46475952D01*
X276188714Y46596904D01*
X276128238Y46717857D01*
X276067761Y46959761D01*
X276067761Y47141190D01*
X276128238Y47383095D01*
X276188714Y47504047D01*
X276309666Y47625000D01*
X276491095Y47685476D01*
X276612047Y47685476D01*
X276793476Y47625000D01*
X276853952Y47564523D01*
X277579666Y47141190D02*
X277458714Y47201666D01*
X277398238Y47262142D01*
X277337761Y47383095D01*
X277337761Y47443571D01*
X277398238Y47564523D01*
X277458714Y47625000D01*
X277579666Y47685476D01*
X277821571Y47685476D01*
X277942523Y47625000D01*
X278003000Y47564523D01*
X278063476Y47443571D01*
X278063476Y47383095D01*
X278003000Y47262142D01*
X277942523Y47201666D01*
X277821571Y47141190D01*
X277579666Y47141190D01*
X277458714Y47080714D01*
X277398238Y47020238D01*
X277337761Y46899285D01*
X277337761Y46657380D01*
X277398238Y46536428D01*
X277458714Y46475952D01*
X277579666Y46415476D01*
X277821571Y46415476D01*
X277942523Y46475952D01*
X278003000Y46536428D01*
X278063476Y46657380D01*
X278063476Y46899285D01*
X278003000Y47020238D01*
X277942523Y47080714D01*
X277821571Y47141190D01*
X279152047Y47685476D02*
X278910142Y47685476D01*
X278789190Y47625000D01*
X278728714Y47564523D01*
X278607761Y47383095D01*
X278547285Y47141190D01*
X278547285Y46657380D01*
X278607761Y46536428D01*
X278668238Y46475952D01*
X278789190Y46415476D01*
X279031095Y46415476D01*
X279152047Y46475952D01*
X279212523Y46536428D01*
X279273000Y46657380D01*
X279273000Y46959761D01*
X279212523Y47080714D01*
X279152047Y47141190D01*
X279031095Y47201666D01*
X278789190Y47201666D01*
X278668238Y47141190D01*
X278607761Y47080714D01*
X278547285Y46959761D01*
X249361476Y84515476D02*
X249361476Y85785476D01*
X250691952Y84636428D02*
X250631476Y84575952D01*
X250450047Y84515476D01*
X250329095Y84515476D01*
X250147666Y84575952D01*
X250026714Y84696904D01*
X249966238Y84817857D01*
X249905761Y85059761D01*
X249905761Y85241190D01*
X249966238Y85483095D01*
X250026714Y85604047D01*
X250147666Y85725000D01*
X250329095Y85785476D01*
X250450047Y85785476D01*
X250631476Y85725000D01*
X250691952Y85664523D01*
X251417666Y85241190D02*
X251296714Y85301666D01*
X251236238Y85362142D01*
X251175761Y85483095D01*
X251175761Y85543571D01*
X251236238Y85664523D01*
X251296714Y85725000D01*
X251417666Y85785476D01*
X251659571Y85785476D01*
X251780523Y85725000D01*
X251841000Y85664523D01*
X251901476Y85543571D01*
X251901476Y85483095D01*
X251841000Y85362142D01*
X251780523Y85301666D01*
X251659571Y85241190D01*
X251417666Y85241190D01*
X251296714Y85180714D01*
X251236238Y85120238D01*
X251175761Y84999285D01*
X251175761Y84757380D01*
X251236238Y84636428D01*
X251296714Y84575952D01*
X251417666Y84515476D01*
X251659571Y84515476D01*
X251780523Y84575952D01*
X251841000Y84636428D01*
X251901476Y84757380D01*
X251901476Y84999285D01*
X251841000Y85120238D01*
X251780523Y85180714D01*
X251659571Y85241190D01*
X253050523Y85785476D02*
X252445761Y85785476D01*
X252385285Y85180714D01*
X252445761Y85241190D01*
X252566714Y85301666D01*
X252869095Y85301666D01*
X252990047Y85241190D01*
X253050523Y85180714D01*
X253111000Y85059761D01*
X253111000Y84757380D01*
X253050523Y84636428D01*
X252990047Y84575952D01*
X252869095Y84515476D01*
X252566714Y84515476D01*
X252445761Y84575952D01*
X252385285Y84636428D01*
X287461476Y27365476D02*
X287461476Y28635476D01*
X288791952Y27486428D02*
X288731476Y27425952D01*
X288550047Y27365476D01*
X288429095Y27365476D01*
X288247666Y27425952D01*
X288126714Y27546904D01*
X288066238Y27667857D01*
X288005761Y27909761D01*
X288005761Y28091190D01*
X288066238Y28333095D01*
X288126714Y28454047D01*
X288247666Y28575000D01*
X288429095Y28635476D01*
X288550047Y28635476D01*
X288731476Y28575000D01*
X288791952Y28514523D01*
X289517666Y28091190D02*
X289396714Y28151666D01*
X289336238Y28212142D01*
X289275761Y28333095D01*
X289275761Y28393571D01*
X289336238Y28514523D01*
X289396714Y28575000D01*
X289517666Y28635476D01*
X289759571Y28635476D01*
X289880523Y28575000D01*
X289941000Y28514523D01*
X290001476Y28393571D01*
X290001476Y28333095D01*
X289941000Y28212142D01*
X289880523Y28151666D01*
X289759571Y28091190D01*
X289517666Y28091190D01*
X289396714Y28030714D01*
X289336238Y27970238D01*
X289275761Y27849285D01*
X289275761Y27607380D01*
X289336238Y27486428D01*
X289396714Y27425952D01*
X289517666Y27365476D01*
X289759571Y27365476D01*
X289880523Y27425952D01*
X289941000Y27486428D01*
X290001476Y27607380D01*
X290001476Y27849285D01*
X289941000Y27970238D01*
X289880523Y28030714D01*
X289759571Y28091190D01*
X291090047Y28212142D02*
X291090047Y27365476D01*
X290787666Y28695952D02*
X290485285Y27788809D01*
X291271476Y27788809D01*
X258886476Y65465476D02*
X258886476Y66735476D01*
X260216952Y65586428D02*
X260156476Y65525952D01*
X259975047Y65465476D01*
X259854095Y65465476D01*
X259672666Y65525952D01*
X259551714Y65646904D01*
X259491238Y65767857D01*
X259430761Y66009761D01*
X259430761Y66191190D01*
X259491238Y66433095D01*
X259551714Y66554047D01*
X259672666Y66675000D01*
X259854095Y66735476D01*
X259975047Y66735476D01*
X260156476Y66675000D01*
X260216952Y66614523D01*
X260942666Y66191190D02*
X260821714Y66251666D01*
X260761238Y66312142D01*
X260700761Y66433095D01*
X260700761Y66493571D01*
X260761238Y66614523D01*
X260821714Y66675000D01*
X260942666Y66735476D01*
X261184571Y66735476D01*
X261305523Y66675000D01*
X261366000Y66614523D01*
X261426476Y66493571D01*
X261426476Y66433095D01*
X261366000Y66312142D01*
X261305523Y66251666D01*
X261184571Y66191190D01*
X260942666Y66191190D01*
X260821714Y66130714D01*
X260761238Y66070238D01*
X260700761Y65949285D01*
X260700761Y65707380D01*
X260761238Y65586428D01*
X260821714Y65525952D01*
X260942666Y65465476D01*
X261184571Y65465476D01*
X261305523Y65525952D01*
X261366000Y65586428D01*
X261426476Y65707380D01*
X261426476Y65949285D01*
X261366000Y66070238D01*
X261305523Y66130714D01*
X261184571Y66191190D01*
X261849809Y66735476D02*
X262636000Y66735476D01*
X262212666Y66251666D01*
X262394095Y66251666D01*
X262515047Y66191190D01*
X262575523Y66130714D01*
X262636000Y66009761D01*
X262636000Y65707380D01*
X262575523Y65586428D01*
X262515047Y65525952D01*
X262394095Y65465476D01*
X262031238Y65465476D01*
X261910285Y65525952D01*
X261849809Y65586428D01*
X249361476Y103565476D02*
X249361476Y104835476D01*
X250691952Y103686428D02*
X250631476Y103625952D01*
X250450047Y103565476D01*
X250329095Y103565476D01*
X250147666Y103625952D01*
X250026714Y103746904D01*
X249966238Y103867857D01*
X249905761Y104109761D01*
X249905761Y104291190D01*
X249966238Y104533095D01*
X250026714Y104654047D01*
X250147666Y104775000D01*
X250329095Y104835476D01*
X250450047Y104835476D01*
X250631476Y104775000D01*
X250691952Y104714523D01*
X251417666Y104291190D02*
X251296714Y104351666D01*
X251236238Y104412142D01*
X251175761Y104533095D01*
X251175761Y104593571D01*
X251236238Y104714523D01*
X251296714Y104775000D01*
X251417666Y104835476D01*
X251659571Y104835476D01*
X251780523Y104775000D01*
X251841000Y104714523D01*
X251901476Y104593571D01*
X251901476Y104533095D01*
X251841000Y104412142D01*
X251780523Y104351666D01*
X251659571Y104291190D01*
X251417666Y104291190D01*
X251296714Y104230714D01*
X251236238Y104170238D01*
X251175761Y104049285D01*
X251175761Y103807380D01*
X251236238Y103686428D01*
X251296714Y103625952D01*
X251417666Y103565476D01*
X251659571Y103565476D01*
X251780523Y103625952D01*
X251841000Y103686428D01*
X251901476Y103807380D01*
X251901476Y104049285D01*
X251841000Y104170238D01*
X251780523Y104230714D01*
X251659571Y104291190D01*
X252385285Y104714523D02*
X252445761Y104775000D01*
X252566714Y104835476D01*
X252869095Y104835476D01*
X252990047Y104775000D01*
X253050523Y104714523D01*
X253111000Y104593571D01*
X253111000Y104472619D01*
X253050523Y104291190D01*
X252324809Y103565476D01*
X253111000Y103565476D01*
X244535476Y46415476D02*
X244535476Y47685476D01*
X245865952Y46536428D02*
X245805476Y46475952D01*
X245624047Y46415476D01*
X245503095Y46415476D01*
X245321666Y46475952D01*
X245200714Y46596904D01*
X245140238Y46717857D01*
X245079761Y46959761D01*
X245079761Y47141190D01*
X245140238Y47383095D01*
X245200714Y47504047D01*
X245321666Y47625000D01*
X245503095Y47685476D01*
X245624047Y47685476D01*
X245805476Y47625000D01*
X245865952Y47564523D01*
X246591666Y47141190D02*
X246470714Y47201666D01*
X246410238Y47262142D01*
X246349761Y47383095D01*
X246349761Y47443571D01*
X246410238Y47564523D01*
X246470714Y47625000D01*
X246591666Y47685476D01*
X246833571Y47685476D01*
X246954523Y47625000D01*
X247015000Y47564523D01*
X247075476Y47443571D01*
X247075476Y47383095D01*
X247015000Y47262142D01*
X246954523Y47201666D01*
X246833571Y47141190D01*
X246591666Y47141190D01*
X246470714Y47080714D01*
X246410238Y47020238D01*
X246349761Y46899285D01*
X246349761Y46657380D01*
X246410238Y46536428D01*
X246470714Y46475952D01*
X246591666Y46415476D01*
X246833571Y46415476D01*
X246954523Y46475952D01*
X247015000Y46536428D01*
X247075476Y46657380D01*
X247075476Y46899285D01*
X247015000Y47020238D01*
X246954523Y47080714D01*
X246833571Y47141190D01*
X248285000Y46415476D02*
X247559285Y46415476D01*
X247922142Y46415476D02*
X247922142Y47685476D01*
X247801190Y47504047D01*
X247680238Y47383095D01*
X247559285Y47322619D01*
X230311476Y84515476D02*
X230311476Y85785476D01*
X231641952Y84636428D02*
X231581476Y84575952D01*
X231400047Y84515476D01*
X231279095Y84515476D01*
X231097666Y84575952D01*
X230976714Y84696904D01*
X230916238Y84817857D01*
X230855761Y85059761D01*
X230855761Y85241190D01*
X230916238Y85483095D01*
X230976714Y85604047D01*
X231097666Y85725000D01*
X231279095Y85785476D01*
X231400047Y85785476D01*
X231581476Y85725000D01*
X231641952Y85664523D01*
X232367666Y85241190D02*
X232246714Y85301666D01*
X232186238Y85362142D01*
X232125761Y85483095D01*
X232125761Y85543571D01*
X232186238Y85664523D01*
X232246714Y85725000D01*
X232367666Y85785476D01*
X232609571Y85785476D01*
X232730523Y85725000D01*
X232791000Y85664523D01*
X232851476Y85543571D01*
X232851476Y85483095D01*
X232791000Y85362142D01*
X232730523Y85301666D01*
X232609571Y85241190D01*
X232367666Y85241190D01*
X232246714Y85180714D01*
X232186238Y85120238D01*
X232125761Y84999285D01*
X232125761Y84757380D01*
X232186238Y84636428D01*
X232246714Y84575952D01*
X232367666Y84515476D01*
X232609571Y84515476D01*
X232730523Y84575952D01*
X232791000Y84636428D01*
X232851476Y84757380D01*
X232851476Y84999285D01*
X232791000Y85120238D01*
X232730523Y85180714D01*
X232609571Y85241190D01*
X233637666Y85785476D02*
X233758619Y85785476D01*
X233879571Y85725000D01*
X233940047Y85664523D01*
X234000523Y85543571D01*
X234061000Y85301666D01*
X234061000Y84999285D01*
X234000523Y84757380D01*
X233940047Y84636428D01*
X233879571Y84575952D01*
X233758619Y84515476D01*
X233637666Y84515476D01*
X233516714Y84575952D01*
X233456238Y84636428D01*
X233395761Y84757380D01*
X233335285Y84999285D01*
X233335285Y85301666D01*
X233395761Y85543571D01*
X233456238Y85664523D01*
X233516714Y85725000D01*
X233637666Y85785476D01*
X261299476Y27365476D02*
X261299476Y28635476D01*
X262629952Y27486428D02*
X262569476Y27425952D01*
X262388047Y27365476D01*
X262267095Y27365476D01*
X262085666Y27425952D01*
X261964714Y27546904D01*
X261904238Y27667857D01*
X261843761Y27909761D01*
X261843761Y28091190D01*
X261904238Y28333095D01*
X261964714Y28454047D01*
X262085666Y28575000D01*
X262267095Y28635476D01*
X262388047Y28635476D01*
X262569476Y28575000D01*
X262629952Y28514523D01*
X263053285Y28635476D02*
X263899952Y28635476D01*
X263355666Y27365476D01*
X264444238Y27365476D02*
X264686142Y27365476D01*
X264807095Y27425952D01*
X264867571Y27486428D01*
X264988523Y27667857D01*
X265049000Y27909761D01*
X265049000Y28393571D01*
X264988523Y28514523D01*
X264928047Y28575000D01*
X264807095Y28635476D01*
X264565190Y28635476D01*
X264444238Y28575000D01*
X264383761Y28514523D01*
X264323285Y28393571D01*
X264323285Y28091190D01*
X264383761Y27970238D01*
X264444238Y27909761D01*
X264565190Y27849285D01*
X264807095Y27849285D01*
X264928047Y27909761D01*
X264988523Y27970238D01*
X265049000Y28091190D01*
X239836476Y65465476D02*
X239836476Y66735476D01*
X241166952Y65586428D02*
X241106476Y65525952D01*
X240925047Y65465476D01*
X240804095Y65465476D01*
X240622666Y65525952D01*
X240501714Y65646904D01*
X240441238Y65767857D01*
X240380761Y66009761D01*
X240380761Y66191190D01*
X240441238Y66433095D01*
X240501714Y66554047D01*
X240622666Y66675000D01*
X240804095Y66735476D01*
X240925047Y66735476D01*
X241106476Y66675000D01*
X241166952Y66614523D01*
X241590285Y66735476D02*
X242436952Y66735476D01*
X241892666Y65465476D01*
X243102190Y66191190D02*
X242981238Y66251666D01*
X242920761Y66312142D01*
X242860285Y66433095D01*
X242860285Y66493571D01*
X242920761Y66614523D01*
X242981238Y66675000D01*
X243102190Y66735476D01*
X243344095Y66735476D01*
X243465047Y66675000D01*
X243525523Y66614523D01*
X243586000Y66493571D01*
X243586000Y66433095D01*
X243525523Y66312142D01*
X243465047Y66251666D01*
X243344095Y66191190D01*
X243102190Y66191190D01*
X242981238Y66130714D01*
X242920761Y66070238D01*
X242860285Y65949285D01*
X242860285Y65707380D01*
X242920761Y65586428D01*
X242981238Y65525952D01*
X243102190Y65465476D01*
X243344095Y65465476D01*
X243465047Y65525952D01*
X243525523Y65586428D01*
X243586000Y65707380D01*
X243586000Y65949285D01*
X243525523Y66070238D01*
X243465047Y66130714D01*
X243344095Y66191190D01*
X230311476Y103565476D02*
X230311476Y104835476D01*
X231641952Y103686428D02*
X231581476Y103625952D01*
X231400047Y103565476D01*
X231279095Y103565476D01*
X231097666Y103625952D01*
X230976714Y103746904D01*
X230916238Y103867857D01*
X230855761Y104109761D01*
X230855761Y104291190D01*
X230916238Y104533095D01*
X230976714Y104654047D01*
X231097666Y104775000D01*
X231279095Y104835476D01*
X231400047Y104835476D01*
X231581476Y104775000D01*
X231641952Y104714523D01*
X232065285Y104835476D02*
X232911952Y104835476D01*
X232367666Y103565476D01*
X233274809Y104835476D02*
X234121476Y104835476D01*
X233577190Y103565476D01*
X225485476Y46415476D02*
X225485476Y47685476D01*
X226815952Y46536428D02*
X226755476Y46475952D01*
X226574047Y46415476D01*
X226453095Y46415476D01*
X226271666Y46475952D01*
X226150714Y46596904D01*
X226090238Y46717857D01*
X226029761Y46959761D01*
X226029761Y47141190D01*
X226090238Y47383095D01*
X226150714Y47504047D01*
X226271666Y47625000D01*
X226453095Y47685476D01*
X226574047Y47685476D01*
X226755476Y47625000D01*
X226815952Y47564523D01*
X227239285Y47685476D02*
X228085952Y47685476D01*
X227541666Y46415476D01*
X229114047Y47685476D02*
X228872142Y47685476D01*
X228751190Y47625000D01*
X228690714Y47564523D01*
X228569761Y47383095D01*
X228509285Y47141190D01*
X228509285Y46657380D01*
X228569761Y46536428D01*
X228630238Y46475952D01*
X228751190Y46415476D01*
X228993095Y46415476D01*
X229114047Y46475952D01*
X229174523Y46536428D01*
X229235000Y46657380D01*
X229235000Y46959761D01*
X229174523Y47080714D01*
X229114047Y47141190D01*
X228993095Y47201666D01*
X228751190Y47201666D01*
X228630238Y47141190D01*
X228569761Y47080714D01*
X228509285Y46959761D01*
X211261476Y84515476D02*
X211261476Y85785476D01*
X212591952Y84636428D02*
X212531476Y84575952D01*
X212350047Y84515476D01*
X212229095Y84515476D01*
X212047666Y84575952D01*
X211926714Y84696904D01*
X211866238Y84817857D01*
X211805761Y85059761D01*
X211805761Y85241190D01*
X211866238Y85483095D01*
X211926714Y85604047D01*
X212047666Y85725000D01*
X212229095Y85785476D01*
X212350047Y85785476D01*
X212531476Y85725000D01*
X212591952Y85664523D01*
X213015285Y85785476D02*
X213861952Y85785476D01*
X213317666Y84515476D01*
X214950523Y85785476D02*
X214345761Y85785476D01*
X214285285Y85180714D01*
X214345761Y85241190D01*
X214466714Y85301666D01*
X214769095Y85301666D01*
X214890047Y85241190D01*
X214950523Y85180714D01*
X215011000Y85059761D01*
X215011000Y84757380D01*
X214950523Y84636428D01*
X214890047Y84575952D01*
X214769095Y84515476D01*
X214466714Y84515476D01*
X214345761Y84575952D01*
X214285285Y84636428D01*
X235010476Y27365476D02*
X235010476Y28635476D01*
X236340952Y27486428D02*
X236280476Y27425952D01*
X236099047Y27365476D01*
X235978095Y27365476D01*
X235796666Y27425952D01*
X235675714Y27546904D01*
X235615238Y27667857D01*
X235554761Y27909761D01*
X235554761Y28091190D01*
X235615238Y28333095D01*
X235675714Y28454047D01*
X235796666Y28575000D01*
X235978095Y28635476D01*
X236099047Y28635476D01*
X236280476Y28575000D01*
X236340952Y28514523D01*
X236764285Y28635476D02*
X237610952Y28635476D01*
X237066666Y27365476D01*
X238639047Y28212142D02*
X238639047Y27365476D01*
X238336666Y28695952D02*
X238034285Y27788809D01*
X238820476Y27788809D01*
X220786476Y65465476D02*
X220786476Y66735476D01*
X222116952Y65586428D02*
X222056476Y65525952D01*
X221875047Y65465476D01*
X221754095Y65465476D01*
X221572666Y65525952D01*
X221451714Y65646904D01*
X221391238Y65767857D01*
X221330761Y66009761D01*
X221330761Y66191190D01*
X221391238Y66433095D01*
X221451714Y66554047D01*
X221572666Y66675000D01*
X221754095Y66735476D01*
X221875047Y66735476D01*
X222056476Y66675000D01*
X222116952Y66614523D01*
X222540285Y66735476D02*
X223386952Y66735476D01*
X222842666Y65465476D01*
X223749809Y66735476D02*
X224536000Y66735476D01*
X224112666Y66251666D01*
X224294095Y66251666D01*
X224415047Y66191190D01*
X224475523Y66130714D01*
X224536000Y66009761D01*
X224536000Y65707380D01*
X224475523Y65586428D01*
X224415047Y65525952D01*
X224294095Y65465476D01*
X223931238Y65465476D01*
X223810285Y65525952D01*
X223749809Y65586428D01*
X211261476Y103565476D02*
X211261476Y104835476D01*
X212591952Y103686428D02*
X212531476Y103625952D01*
X212350047Y103565476D01*
X212229095Y103565476D01*
X212047666Y103625952D01*
X211926714Y103746904D01*
X211866238Y103867857D01*
X211805761Y104109761D01*
X211805761Y104291190D01*
X211866238Y104533095D01*
X211926714Y104654047D01*
X212047666Y104775000D01*
X212229095Y104835476D01*
X212350047Y104835476D01*
X212531476Y104775000D01*
X212591952Y104714523D01*
X213015285Y104835476D02*
X213861952Y104835476D01*
X213317666Y103565476D01*
X214285285Y104714523D02*
X214345761Y104775000D01*
X214466714Y104835476D01*
X214769095Y104835476D01*
X214890047Y104775000D01*
X214950523Y104714523D01*
X215011000Y104593571D01*
X215011000Y104472619D01*
X214950523Y104291190D01*
X214224809Y103565476D01*
X215011000Y103565476D01*
X206435476Y46415476D02*
X206435476Y47685476D01*
X207765952Y46536428D02*
X207705476Y46475952D01*
X207524047Y46415476D01*
X207403095Y46415476D01*
X207221666Y46475952D01*
X207100714Y46596904D01*
X207040238Y46717857D01*
X206979761Y46959761D01*
X206979761Y47141190D01*
X207040238Y47383095D01*
X207100714Y47504047D01*
X207221666Y47625000D01*
X207403095Y47685476D01*
X207524047Y47685476D01*
X207705476Y47625000D01*
X207765952Y47564523D01*
X208189285Y47685476D02*
X209035952Y47685476D01*
X208491666Y46415476D01*
X210185000Y46415476D02*
X209459285Y46415476D01*
X209822142Y46415476D02*
X209822142Y47685476D01*
X209701190Y47504047D01*
X209580238Y47383095D01*
X209459285Y47322619D01*
X192211476Y84515476D02*
X192211476Y85785476D01*
X193541952Y84636428D02*
X193481476Y84575952D01*
X193300047Y84515476D01*
X193179095Y84515476D01*
X192997666Y84575952D01*
X192876714Y84696904D01*
X192816238Y84817857D01*
X192755761Y85059761D01*
X192755761Y85241190D01*
X192816238Y85483095D01*
X192876714Y85604047D01*
X192997666Y85725000D01*
X193179095Y85785476D01*
X193300047Y85785476D01*
X193481476Y85725000D01*
X193541952Y85664523D01*
X193965285Y85785476D02*
X194811952Y85785476D01*
X194267666Y84515476D01*
X195537666Y85785476D02*
X195658619Y85785476D01*
X195779571Y85725000D01*
X195840047Y85664523D01*
X195900523Y85543571D01*
X195961000Y85301666D01*
X195961000Y84999285D01*
X195900523Y84757380D01*
X195840047Y84636428D01*
X195779571Y84575952D01*
X195658619Y84515476D01*
X195537666Y84515476D01*
X195416714Y84575952D01*
X195356238Y84636428D01*
X195295761Y84757380D01*
X195235285Y84999285D01*
X195235285Y85301666D01*
X195295761Y85543571D01*
X195356238Y85664523D01*
X195416714Y85725000D01*
X195537666Y85785476D01*
X215960476Y27365476D02*
X215960476Y28635476D01*
X217290952Y27486428D02*
X217230476Y27425952D01*
X217049047Y27365476D01*
X216928095Y27365476D01*
X216746666Y27425952D01*
X216625714Y27546904D01*
X216565238Y27667857D01*
X216504761Y27909761D01*
X216504761Y28091190D01*
X216565238Y28333095D01*
X216625714Y28454047D01*
X216746666Y28575000D01*
X216928095Y28635476D01*
X217049047Y28635476D01*
X217230476Y28575000D01*
X217290952Y28514523D01*
X218379523Y28635476D02*
X218137619Y28635476D01*
X218016666Y28575000D01*
X217956190Y28514523D01*
X217835238Y28333095D01*
X217774761Y28091190D01*
X217774761Y27607380D01*
X217835238Y27486428D01*
X217895714Y27425952D01*
X218016666Y27365476D01*
X218258571Y27365476D01*
X218379523Y27425952D01*
X218440000Y27486428D01*
X218500476Y27607380D01*
X218500476Y27909761D01*
X218440000Y28030714D01*
X218379523Y28091190D01*
X218258571Y28151666D01*
X218016666Y28151666D01*
X217895714Y28091190D01*
X217835238Y28030714D01*
X217774761Y27909761D01*
X219105238Y27365476D02*
X219347142Y27365476D01*
X219468095Y27425952D01*
X219528571Y27486428D01*
X219649523Y27667857D01*
X219710000Y27909761D01*
X219710000Y28393571D01*
X219649523Y28514523D01*
X219589047Y28575000D01*
X219468095Y28635476D01*
X219226190Y28635476D01*
X219105238Y28575000D01*
X219044761Y28514523D01*
X218984285Y28393571D01*
X218984285Y28091190D01*
X219044761Y27970238D01*
X219105238Y27909761D01*
X219226190Y27849285D01*
X219468095Y27849285D01*
X219589047Y27909761D01*
X219649523Y27970238D01*
X219710000Y28091190D01*
X201736476Y65465476D02*
X201736476Y66735476D01*
X203066952Y65586428D02*
X203006476Y65525952D01*
X202825047Y65465476D01*
X202704095Y65465476D01*
X202522666Y65525952D01*
X202401714Y65646904D01*
X202341238Y65767857D01*
X202280761Y66009761D01*
X202280761Y66191190D01*
X202341238Y66433095D01*
X202401714Y66554047D01*
X202522666Y66675000D01*
X202704095Y66735476D01*
X202825047Y66735476D01*
X203006476Y66675000D01*
X203066952Y66614523D01*
X204155523Y66735476D02*
X203913619Y66735476D01*
X203792666Y66675000D01*
X203732190Y66614523D01*
X203611238Y66433095D01*
X203550761Y66191190D01*
X203550761Y65707380D01*
X203611238Y65586428D01*
X203671714Y65525952D01*
X203792666Y65465476D01*
X204034571Y65465476D01*
X204155523Y65525952D01*
X204216000Y65586428D01*
X204276476Y65707380D01*
X204276476Y66009761D01*
X204216000Y66130714D01*
X204155523Y66191190D01*
X204034571Y66251666D01*
X203792666Y66251666D01*
X203671714Y66191190D01*
X203611238Y66130714D01*
X203550761Y66009761D01*
X205002190Y66191190D02*
X204881238Y66251666D01*
X204820761Y66312142D01*
X204760285Y66433095D01*
X204760285Y66493571D01*
X204820761Y66614523D01*
X204881238Y66675000D01*
X205002190Y66735476D01*
X205244095Y66735476D01*
X205365047Y66675000D01*
X205425523Y66614523D01*
X205486000Y66493571D01*
X205486000Y66433095D01*
X205425523Y66312142D01*
X205365047Y66251666D01*
X205244095Y66191190D01*
X205002190Y66191190D01*
X204881238Y66130714D01*
X204820761Y66070238D01*
X204760285Y65949285D01*
X204760285Y65707380D01*
X204820761Y65586428D01*
X204881238Y65525952D01*
X205002190Y65465476D01*
X205244095Y65465476D01*
X205365047Y65525952D01*
X205425523Y65586428D01*
X205486000Y65707380D01*
X205486000Y65949285D01*
X205425523Y66070238D01*
X205365047Y66130714D01*
X205244095Y66191190D01*
X192211476Y103565476D02*
X192211476Y104835476D01*
X193541952Y103686428D02*
X193481476Y103625952D01*
X193300047Y103565476D01*
X193179095Y103565476D01*
X192997666Y103625952D01*
X192876714Y103746904D01*
X192816238Y103867857D01*
X192755761Y104109761D01*
X192755761Y104291190D01*
X192816238Y104533095D01*
X192876714Y104654047D01*
X192997666Y104775000D01*
X193179095Y104835476D01*
X193300047Y104835476D01*
X193481476Y104775000D01*
X193541952Y104714523D01*
X194630523Y104835476D02*
X194388619Y104835476D01*
X194267666Y104775000D01*
X194207190Y104714523D01*
X194086238Y104533095D01*
X194025761Y104291190D01*
X194025761Y103807380D01*
X194086238Y103686428D01*
X194146714Y103625952D01*
X194267666Y103565476D01*
X194509571Y103565476D01*
X194630523Y103625952D01*
X194691000Y103686428D01*
X194751476Y103807380D01*
X194751476Y104109761D01*
X194691000Y104230714D01*
X194630523Y104291190D01*
X194509571Y104351666D01*
X194267666Y104351666D01*
X194146714Y104291190D01*
X194086238Y104230714D01*
X194025761Y104109761D01*
X195174809Y104835476D02*
X196021476Y104835476D01*
X195477190Y103565476D01*
X306511476Y8315476D02*
X306511476Y9585476D01*
X307841952Y8436428D02*
X307781476Y8375952D01*
X307600047Y8315476D01*
X307479095Y8315476D01*
X307297666Y8375952D01*
X307176714Y8496904D01*
X307116238Y8617857D01*
X307055761Y8859761D01*
X307055761Y9041190D01*
X307116238Y9283095D01*
X307176714Y9404047D01*
X307297666Y9525000D01*
X307479095Y9585476D01*
X307600047Y9585476D01*
X307781476Y9525000D01*
X307841952Y9464523D01*
X308930523Y9585476D02*
X308688619Y9585476D01*
X308567666Y9525000D01*
X308507190Y9464523D01*
X308386238Y9283095D01*
X308325761Y9041190D01*
X308325761Y8557380D01*
X308386238Y8436428D01*
X308446714Y8375952D01*
X308567666Y8315476D01*
X308809571Y8315476D01*
X308930523Y8375952D01*
X308991000Y8436428D01*
X309051476Y8557380D01*
X309051476Y8859761D01*
X308991000Y8980714D01*
X308930523Y9041190D01*
X308809571Y9101666D01*
X308567666Y9101666D01*
X308446714Y9041190D01*
X308386238Y8980714D01*
X308325761Y8859761D01*
X310140047Y9585476D02*
X309898142Y9585476D01*
X309777190Y9525000D01*
X309716714Y9464523D01*
X309595761Y9283095D01*
X309535285Y9041190D01*
X309535285Y8557380D01*
X309595761Y8436428D01*
X309656238Y8375952D01*
X309777190Y8315476D01*
X310019095Y8315476D01*
X310140047Y8375952D01*
X310200523Y8436428D01*
X310261000Y8557380D01*
X310261000Y8859761D01*
X310200523Y8980714D01*
X310140047Y9041190D01*
X310019095Y9101666D01*
X309777190Y9101666D01*
X309656238Y9041190D01*
X309595761Y8980714D01*
X309535285Y8859761D01*
X187385476Y46415476D02*
X187385476Y47685476D01*
X188715952Y46536428D02*
X188655476Y46475952D01*
X188474047Y46415476D01*
X188353095Y46415476D01*
X188171666Y46475952D01*
X188050714Y46596904D01*
X187990238Y46717857D01*
X187929761Y46959761D01*
X187929761Y47141190D01*
X187990238Y47383095D01*
X188050714Y47504047D01*
X188171666Y47625000D01*
X188353095Y47685476D01*
X188474047Y47685476D01*
X188655476Y47625000D01*
X188715952Y47564523D01*
X189804523Y47685476D02*
X189562619Y47685476D01*
X189441666Y47625000D01*
X189381190Y47564523D01*
X189260238Y47383095D01*
X189199761Y47141190D01*
X189199761Y46657380D01*
X189260238Y46536428D01*
X189320714Y46475952D01*
X189441666Y46415476D01*
X189683571Y46415476D01*
X189804523Y46475952D01*
X189865000Y46536428D01*
X189925476Y46657380D01*
X189925476Y46959761D01*
X189865000Y47080714D01*
X189804523Y47141190D01*
X189683571Y47201666D01*
X189441666Y47201666D01*
X189320714Y47141190D01*
X189260238Y47080714D01*
X189199761Y46959761D01*
X191074523Y47685476D02*
X190469761Y47685476D01*
X190409285Y47080714D01*
X190469761Y47141190D01*
X190590714Y47201666D01*
X190893095Y47201666D01*
X191014047Y47141190D01*
X191074523Y47080714D01*
X191135000Y46959761D01*
X191135000Y46657380D01*
X191074523Y46536428D01*
X191014047Y46475952D01*
X190893095Y46415476D01*
X190590714Y46415476D01*
X190469761Y46475952D01*
X190409285Y46536428D01*
X173161476Y84515476D02*
X173161476Y85785476D01*
X174491952Y84636428D02*
X174431476Y84575952D01*
X174250047Y84515476D01*
X174129095Y84515476D01*
X173947666Y84575952D01*
X173826714Y84696904D01*
X173766238Y84817857D01*
X173705761Y85059761D01*
X173705761Y85241190D01*
X173766238Y85483095D01*
X173826714Y85604047D01*
X173947666Y85725000D01*
X174129095Y85785476D01*
X174250047Y85785476D01*
X174431476Y85725000D01*
X174491952Y85664523D01*
X175580523Y85785476D02*
X175338619Y85785476D01*
X175217666Y85725000D01*
X175157190Y85664523D01*
X175036238Y85483095D01*
X174975761Y85241190D01*
X174975761Y84757380D01*
X175036238Y84636428D01*
X175096714Y84575952D01*
X175217666Y84515476D01*
X175459571Y84515476D01*
X175580523Y84575952D01*
X175641000Y84636428D01*
X175701476Y84757380D01*
X175701476Y85059761D01*
X175641000Y85180714D01*
X175580523Y85241190D01*
X175459571Y85301666D01*
X175217666Y85301666D01*
X175096714Y85241190D01*
X175036238Y85180714D01*
X174975761Y85059761D01*
X176790047Y85362142D02*
X176790047Y84515476D01*
X176487666Y85845952D02*
X176185285Y84938809D01*
X176971476Y84938809D01*
X196910476Y27365476D02*
X196910476Y28635476D01*
X198240952Y27486428D02*
X198180476Y27425952D01*
X197999047Y27365476D01*
X197878095Y27365476D01*
X197696666Y27425952D01*
X197575714Y27546904D01*
X197515238Y27667857D01*
X197454761Y27909761D01*
X197454761Y28091190D01*
X197515238Y28333095D01*
X197575714Y28454047D01*
X197696666Y28575000D01*
X197878095Y28635476D01*
X197999047Y28635476D01*
X198180476Y28575000D01*
X198240952Y28514523D01*
X199329523Y28635476D02*
X199087619Y28635476D01*
X198966666Y28575000D01*
X198906190Y28514523D01*
X198785238Y28333095D01*
X198724761Y28091190D01*
X198724761Y27607380D01*
X198785238Y27486428D01*
X198845714Y27425952D01*
X198966666Y27365476D01*
X199208571Y27365476D01*
X199329523Y27425952D01*
X199390000Y27486428D01*
X199450476Y27607380D01*
X199450476Y27909761D01*
X199390000Y28030714D01*
X199329523Y28091190D01*
X199208571Y28151666D01*
X198966666Y28151666D01*
X198845714Y28091190D01*
X198785238Y28030714D01*
X198724761Y27909761D01*
X199873809Y28635476D02*
X200660000Y28635476D01*
X200236666Y28151666D01*
X200418095Y28151666D01*
X200539047Y28091190D01*
X200599523Y28030714D01*
X200660000Y27909761D01*
X200660000Y27607380D01*
X200599523Y27486428D01*
X200539047Y27425952D01*
X200418095Y27365476D01*
X200055238Y27365476D01*
X199934285Y27425952D01*
X199873809Y27486428D01*
X182686476Y65465476D02*
X182686476Y66735476D01*
X184016952Y65586428D02*
X183956476Y65525952D01*
X183775047Y65465476D01*
X183654095Y65465476D01*
X183472666Y65525952D01*
X183351714Y65646904D01*
X183291238Y65767857D01*
X183230761Y66009761D01*
X183230761Y66191190D01*
X183291238Y66433095D01*
X183351714Y66554047D01*
X183472666Y66675000D01*
X183654095Y66735476D01*
X183775047Y66735476D01*
X183956476Y66675000D01*
X184016952Y66614523D01*
X185105523Y66735476D02*
X184863619Y66735476D01*
X184742666Y66675000D01*
X184682190Y66614523D01*
X184561238Y66433095D01*
X184500761Y66191190D01*
X184500761Y65707380D01*
X184561238Y65586428D01*
X184621714Y65525952D01*
X184742666Y65465476D01*
X184984571Y65465476D01*
X185105523Y65525952D01*
X185166000Y65586428D01*
X185226476Y65707380D01*
X185226476Y66009761D01*
X185166000Y66130714D01*
X185105523Y66191190D01*
X184984571Y66251666D01*
X184742666Y66251666D01*
X184621714Y66191190D01*
X184561238Y66130714D01*
X184500761Y66009761D01*
X185710285Y66614523D02*
X185770761Y66675000D01*
X185891714Y66735476D01*
X186194095Y66735476D01*
X186315047Y66675000D01*
X186375523Y66614523D01*
X186436000Y66493571D01*
X186436000Y66372619D01*
X186375523Y66191190D01*
X185649809Y65465476D01*
X186436000Y65465476D01*
X173161476Y103565476D02*
X173161476Y104835476D01*
X174491952Y103686428D02*
X174431476Y103625952D01*
X174250047Y103565476D01*
X174129095Y103565476D01*
X173947666Y103625952D01*
X173826714Y103746904D01*
X173766238Y103867857D01*
X173705761Y104109761D01*
X173705761Y104291190D01*
X173766238Y104533095D01*
X173826714Y104654047D01*
X173947666Y104775000D01*
X174129095Y104835476D01*
X174250047Y104835476D01*
X174431476Y104775000D01*
X174491952Y104714523D01*
X175580523Y104835476D02*
X175338619Y104835476D01*
X175217666Y104775000D01*
X175157190Y104714523D01*
X175036238Y104533095D01*
X174975761Y104291190D01*
X174975761Y103807380D01*
X175036238Y103686428D01*
X175096714Y103625952D01*
X175217666Y103565476D01*
X175459571Y103565476D01*
X175580523Y103625952D01*
X175641000Y103686428D01*
X175701476Y103807380D01*
X175701476Y104109761D01*
X175641000Y104230714D01*
X175580523Y104291190D01*
X175459571Y104351666D01*
X175217666Y104351666D01*
X175096714Y104291190D01*
X175036238Y104230714D01*
X174975761Y104109761D01*
X176911000Y103565476D02*
X176185285Y103565476D01*
X176548142Y103565476D02*
X176548142Y104835476D01*
X176427190Y104654047D01*
X176306238Y104533095D01*
X176185285Y104472619D01*
X287461476Y8315476D02*
X287461476Y9585476D01*
X288791952Y8436428D02*
X288731476Y8375952D01*
X288550047Y8315476D01*
X288429095Y8315476D01*
X288247666Y8375952D01*
X288126714Y8496904D01*
X288066238Y8617857D01*
X288005761Y8859761D01*
X288005761Y9041190D01*
X288066238Y9283095D01*
X288126714Y9404047D01*
X288247666Y9525000D01*
X288429095Y9585476D01*
X288550047Y9585476D01*
X288731476Y9525000D01*
X288791952Y9464523D01*
X289880523Y9585476D02*
X289638619Y9585476D01*
X289517666Y9525000D01*
X289457190Y9464523D01*
X289336238Y9283095D01*
X289275761Y9041190D01*
X289275761Y8557380D01*
X289336238Y8436428D01*
X289396714Y8375952D01*
X289517666Y8315476D01*
X289759571Y8315476D01*
X289880523Y8375952D01*
X289941000Y8436428D01*
X290001476Y8557380D01*
X290001476Y8859761D01*
X289941000Y8980714D01*
X289880523Y9041190D01*
X289759571Y9101666D01*
X289517666Y9101666D01*
X289396714Y9041190D01*
X289336238Y8980714D01*
X289275761Y8859761D01*
X290787666Y9585476D02*
X290908619Y9585476D01*
X291029571Y9525000D01*
X291090047Y9464523D01*
X291150523Y9343571D01*
X291211000Y9101666D01*
X291211000Y8799285D01*
X291150523Y8557380D01*
X291090047Y8436428D01*
X291029571Y8375952D01*
X290908619Y8315476D01*
X290787666Y8315476D01*
X290666714Y8375952D01*
X290606238Y8436428D01*
X290545761Y8557380D01*
X290485285Y8799285D01*
X290485285Y9101666D01*
X290545761Y9343571D01*
X290606238Y9464523D01*
X290666714Y9525000D01*
X290787666Y9585476D01*
X168335476Y46415476D02*
X168335476Y47685476D01*
X169665952Y46536428D02*
X169605476Y46475952D01*
X169424047Y46415476D01*
X169303095Y46415476D01*
X169121666Y46475952D01*
X169000714Y46596904D01*
X168940238Y46717857D01*
X168879761Y46959761D01*
X168879761Y47141190D01*
X168940238Y47383095D01*
X169000714Y47504047D01*
X169121666Y47625000D01*
X169303095Y47685476D01*
X169424047Y47685476D01*
X169605476Y47625000D01*
X169665952Y47564523D01*
X170815000Y47685476D02*
X170210238Y47685476D01*
X170149761Y47080714D01*
X170210238Y47141190D01*
X170331190Y47201666D01*
X170633571Y47201666D01*
X170754523Y47141190D01*
X170815000Y47080714D01*
X170875476Y46959761D01*
X170875476Y46657380D01*
X170815000Y46536428D01*
X170754523Y46475952D01*
X170633571Y46415476D01*
X170331190Y46415476D01*
X170210238Y46475952D01*
X170149761Y46536428D01*
X171480238Y46415476D02*
X171722142Y46415476D01*
X171843095Y46475952D01*
X171903571Y46536428D01*
X172024523Y46717857D01*
X172085000Y46959761D01*
X172085000Y47443571D01*
X172024523Y47564523D01*
X171964047Y47625000D01*
X171843095Y47685476D01*
X171601190Y47685476D01*
X171480238Y47625000D01*
X171419761Y47564523D01*
X171359285Y47443571D01*
X171359285Y47141190D01*
X171419761Y47020238D01*
X171480238Y46959761D01*
X171601190Y46899285D01*
X171843095Y46899285D01*
X171964047Y46959761D01*
X172024523Y47020238D01*
X172085000Y47141190D01*
X154111476Y84515476D02*
X154111476Y85785476D01*
X155441952Y84636428D02*
X155381476Y84575952D01*
X155200047Y84515476D01*
X155079095Y84515476D01*
X154897666Y84575952D01*
X154776714Y84696904D01*
X154716238Y84817857D01*
X154655761Y85059761D01*
X154655761Y85241190D01*
X154716238Y85483095D01*
X154776714Y85604047D01*
X154897666Y85725000D01*
X155079095Y85785476D01*
X155200047Y85785476D01*
X155381476Y85725000D01*
X155441952Y85664523D01*
X156591000Y85785476D02*
X155986238Y85785476D01*
X155925761Y85180714D01*
X155986238Y85241190D01*
X156107190Y85301666D01*
X156409571Y85301666D01*
X156530523Y85241190D01*
X156591000Y85180714D01*
X156651476Y85059761D01*
X156651476Y84757380D01*
X156591000Y84636428D01*
X156530523Y84575952D01*
X156409571Y84515476D01*
X156107190Y84515476D01*
X155986238Y84575952D01*
X155925761Y84636428D01*
X157377190Y85241190D02*
X157256238Y85301666D01*
X157195761Y85362142D01*
X157135285Y85483095D01*
X157135285Y85543571D01*
X157195761Y85664523D01*
X157256238Y85725000D01*
X157377190Y85785476D01*
X157619095Y85785476D01*
X157740047Y85725000D01*
X157800523Y85664523D01*
X157861000Y85543571D01*
X157861000Y85483095D01*
X157800523Y85362142D01*
X157740047Y85301666D01*
X157619095Y85241190D01*
X157377190Y85241190D01*
X157256238Y85180714D01*
X157195761Y85120238D01*
X157135285Y84999285D01*
X157135285Y84757380D01*
X157195761Y84636428D01*
X157256238Y84575952D01*
X157377190Y84515476D01*
X157619095Y84515476D01*
X157740047Y84575952D01*
X157800523Y84636428D01*
X157861000Y84757380D01*
X157861000Y84999285D01*
X157800523Y85120238D01*
X157740047Y85180714D01*
X157619095Y85241190D01*
X177860476Y27365476D02*
X177860476Y28635476D01*
X179190952Y27486428D02*
X179130476Y27425952D01*
X178949047Y27365476D01*
X178828095Y27365476D01*
X178646666Y27425952D01*
X178525714Y27546904D01*
X178465238Y27667857D01*
X178404761Y27909761D01*
X178404761Y28091190D01*
X178465238Y28333095D01*
X178525714Y28454047D01*
X178646666Y28575000D01*
X178828095Y28635476D01*
X178949047Y28635476D01*
X179130476Y28575000D01*
X179190952Y28514523D01*
X180340000Y28635476D02*
X179735238Y28635476D01*
X179674761Y28030714D01*
X179735238Y28091190D01*
X179856190Y28151666D01*
X180158571Y28151666D01*
X180279523Y28091190D01*
X180340000Y28030714D01*
X180400476Y27909761D01*
X180400476Y27607380D01*
X180340000Y27486428D01*
X180279523Y27425952D01*
X180158571Y27365476D01*
X179856190Y27365476D01*
X179735238Y27425952D01*
X179674761Y27486428D01*
X180823809Y28635476D02*
X181670476Y28635476D01*
X181126190Y27365476D01*
X163636476Y65592476D02*
X163636476Y66862476D01*
X164966952Y65713428D02*
X164906476Y65652952D01*
X164725047Y65592476D01*
X164604095Y65592476D01*
X164422666Y65652952D01*
X164301714Y65773904D01*
X164241238Y65894857D01*
X164180761Y66136761D01*
X164180761Y66318190D01*
X164241238Y66560095D01*
X164301714Y66681047D01*
X164422666Y66802000D01*
X164604095Y66862476D01*
X164725047Y66862476D01*
X164906476Y66802000D01*
X164966952Y66741523D01*
X166116000Y66862476D02*
X165511238Y66862476D01*
X165450761Y66257714D01*
X165511238Y66318190D01*
X165632190Y66378666D01*
X165934571Y66378666D01*
X166055523Y66318190D01*
X166116000Y66257714D01*
X166176476Y66136761D01*
X166176476Y65834380D01*
X166116000Y65713428D01*
X166055523Y65652952D01*
X165934571Y65592476D01*
X165632190Y65592476D01*
X165511238Y65652952D01*
X165450761Y65713428D01*
X167265047Y66862476D02*
X167023142Y66862476D01*
X166902190Y66802000D01*
X166841714Y66741523D01*
X166720761Y66560095D01*
X166660285Y66318190D01*
X166660285Y65834380D01*
X166720761Y65713428D01*
X166781238Y65652952D01*
X166902190Y65592476D01*
X167144095Y65592476D01*
X167265047Y65652952D01*
X167325523Y65713428D01*
X167386000Y65834380D01*
X167386000Y66136761D01*
X167325523Y66257714D01*
X167265047Y66318190D01*
X167144095Y66378666D01*
X166902190Y66378666D01*
X166781238Y66318190D01*
X166720761Y66257714D01*
X166660285Y66136761D01*
X154111476Y103565476D02*
X154111476Y104835476D01*
X155441952Y103686428D02*
X155381476Y103625952D01*
X155200047Y103565476D01*
X155079095Y103565476D01*
X154897666Y103625952D01*
X154776714Y103746904D01*
X154716238Y103867857D01*
X154655761Y104109761D01*
X154655761Y104291190D01*
X154716238Y104533095D01*
X154776714Y104654047D01*
X154897666Y104775000D01*
X155079095Y104835476D01*
X155200047Y104835476D01*
X155381476Y104775000D01*
X155441952Y104714523D01*
X156591000Y104835476D02*
X155986238Y104835476D01*
X155925761Y104230714D01*
X155986238Y104291190D01*
X156107190Y104351666D01*
X156409571Y104351666D01*
X156530523Y104291190D01*
X156591000Y104230714D01*
X156651476Y104109761D01*
X156651476Y103807380D01*
X156591000Y103686428D01*
X156530523Y103625952D01*
X156409571Y103565476D01*
X156107190Y103565476D01*
X155986238Y103625952D01*
X155925761Y103686428D01*
X157800523Y104835476D02*
X157195761Y104835476D01*
X157135285Y104230714D01*
X157195761Y104291190D01*
X157316714Y104351666D01*
X157619095Y104351666D01*
X157740047Y104291190D01*
X157800523Y104230714D01*
X157861000Y104109761D01*
X157861000Y103807380D01*
X157800523Y103686428D01*
X157740047Y103625952D01*
X157619095Y103565476D01*
X157316714Y103565476D01*
X157195761Y103625952D01*
X157135285Y103686428D01*
X268411476Y8315476D02*
X268411476Y9585476D01*
X269741952Y8436428D02*
X269681476Y8375952D01*
X269500047Y8315476D01*
X269379095Y8315476D01*
X269197666Y8375952D01*
X269076714Y8496904D01*
X269016238Y8617857D01*
X268955761Y8859761D01*
X268955761Y9041190D01*
X269016238Y9283095D01*
X269076714Y9404047D01*
X269197666Y9525000D01*
X269379095Y9585476D01*
X269500047Y9585476D01*
X269681476Y9525000D01*
X269741952Y9464523D01*
X270891000Y9585476D02*
X270286238Y9585476D01*
X270225761Y8980714D01*
X270286238Y9041190D01*
X270407190Y9101666D01*
X270709571Y9101666D01*
X270830523Y9041190D01*
X270891000Y8980714D01*
X270951476Y8859761D01*
X270951476Y8557380D01*
X270891000Y8436428D01*
X270830523Y8375952D01*
X270709571Y8315476D01*
X270407190Y8315476D01*
X270286238Y8375952D01*
X270225761Y8436428D01*
X272040047Y9162142D02*
X272040047Y8315476D01*
X271737666Y9645952D02*
X271435285Y8738809D01*
X272221476Y8738809D01*
X149285476Y46415476D02*
X149285476Y47685476D01*
X150615952Y46536428D02*
X150555476Y46475952D01*
X150374047Y46415476D01*
X150253095Y46415476D01*
X150071666Y46475952D01*
X149950714Y46596904D01*
X149890238Y46717857D01*
X149829761Y46959761D01*
X149829761Y47141190D01*
X149890238Y47383095D01*
X149950714Y47504047D01*
X150071666Y47625000D01*
X150253095Y47685476D01*
X150374047Y47685476D01*
X150555476Y47625000D01*
X150615952Y47564523D01*
X151765000Y47685476D02*
X151160238Y47685476D01*
X151099761Y47080714D01*
X151160238Y47141190D01*
X151281190Y47201666D01*
X151583571Y47201666D01*
X151704523Y47141190D01*
X151765000Y47080714D01*
X151825476Y46959761D01*
X151825476Y46657380D01*
X151765000Y46536428D01*
X151704523Y46475952D01*
X151583571Y46415476D01*
X151281190Y46415476D01*
X151160238Y46475952D01*
X151099761Y46536428D01*
X152248809Y47685476D02*
X153035000Y47685476D01*
X152611666Y47201666D01*
X152793095Y47201666D01*
X152914047Y47141190D01*
X152974523Y47080714D01*
X153035000Y46959761D01*
X153035000Y46657380D01*
X152974523Y46536428D01*
X152914047Y46475952D01*
X152793095Y46415476D01*
X152430238Y46415476D01*
X152309285Y46475952D01*
X152248809Y46536428D01*
X135061476Y84515476D02*
X135061476Y85785476D01*
X136391952Y84636428D02*
X136331476Y84575952D01*
X136150047Y84515476D01*
X136029095Y84515476D01*
X135847666Y84575952D01*
X135726714Y84696904D01*
X135666238Y84817857D01*
X135605761Y85059761D01*
X135605761Y85241190D01*
X135666238Y85483095D01*
X135726714Y85604047D01*
X135847666Y85725000D01*
X136029095Y85785476D01*
X136150047Y85785476D01*
X136331476Y85725000D01*
X136391952Y85664523D01*
X137541000Y85785476D02*
X136936238Y85785476D01*
X136875761Y85180714D01*
X136936238Y85241190D01*
X137057190Y85301666D01*
X137359571Y85301666D01*
X137480523Y85241190D01*
X137541000Y85180714D01*
X137601476Y85059761D01*
X137601476Y84757380D01*
X137541000Y84636428D01*
X137480523Y84575952D01*
X137359571Y84515476D01*
X137057190Y84515476D01*
X136936238Y84575952D01*
X136875761Y84636428D01*
X138085285Y85664523D02*
X138145761Y85725000D01*
X138266714Y85785476D01*
X138569095Y85785476D01*
X138690047Y85725000D01*
X138750523Y85664523D01*
X138811000Y85543571D01*
X138811000Y85422619D01*
X138750523Y85241190D01*
X138024809Y84515476D01*
X138811000Y84515476D01*
X158810476Y27365476D02*
X158810476Y28635476D01*
X160140952Y27486428D02*
X160080476Y27425952D01*
X159899047Y27365476D01*
X159778095Y27365476D01*
X159596666Y27425952D01*
X159475714Y27546904D01*
X159415238Y27667857D01*
X159354761Y27909761D01*
X159354761Y28091190D01*
X159415238Y28333095D01*
X159475714Y28454047D01*
X159596666Y28575000D01*
X159778095Y28635476D01*
X159899047Y28635476D01*
X160080476Y28575000D01*
X160140952Y28514523D01*
X161290000Y28635476D02*
X160685238Y28635476D01*
X160624761Y28030714D01*
X160685238Y28091190D01*
X160806190Y28151666D01*
X161108571Y28151666D01*
X161229523Y28091190D01*
X161290000Y28030714D01*
X161350476Y27909761D01*
X161350476Y27607380D01*
X161290000Y27486428D01*
X161229523Y27425952D01*
X161108571Y27365476D01*
X160806190Y27365476D01*
X160685238Y27425952D01*
X160624761Y27486428D01*
X162560000Y27365476D02*
X161834285Y27365476D01*
X162197142Y27365476D02*
X162197142Y28635476D01*
X162076190Y28454047D01*
X161955238Y28333095D01*
X161834285Y28272619D01*
X144586476Y65465476D02*
X144586476Y66735476D01*
X145916952Y65586428D02*
X145856476Y65525952D01*
X145675047Y65465476D01*
X145554095Y65465476D01*
X145372666Y65525952D01*
X145251714Y65646904D01*
X145191238Y65767857D01*
X145130761Y66009761D01*
X145130761Y66191190D01*
X145191238Y66433095D01*
X145251714Y66554047D01*
X145372666Y66675000D01*
X145554095Y66735476D01*
X145675047Y66735476D01*
X145856476Y66675000D01*
X145916952Y66614523D01*
X147066000Y66735476D02*
X146461238Y66735476D01*
X146400761Y66130714D01*
X146461238Y66191190D01*
X146582190Y66251666D01*
X146884571Y66251666D01*
X147005523Y66191190D01*
X147066000Y66130714D01*
X147126476Y66009761D01*
X147126476Y65707380D01*
X147066000Y65586428D01*
X147005523Y65525952D01*
X146884571Y65465476D01*
X146582190Y65465476D01*
X146461238Y65525952D01*
X146400761Y65586428D01*
X147912666Y66735476D02*
X148033619Y66735476D01*
X148154571Y66675000D01*
X148215047Y66614523D01*
X148275523Y66493571D01*
X148336000Y66251666D01*
X148336000Y65949285D01*
X148275523Y65707380D01*
X148215047Y65586428D01*
X148154571Y65525952D01*
X148033619Y65465476D01*
X147912666Y65465476D01*
X147791714Y65525952D01*
X147731238Y65586428D01*
X147670761Y65707380D01*
X147610285Y65949285D01*
X147610285Y66251666D01*
X147670761Y66493571D01*
X147731238Y66614523D01*
X147791714Y66675000D01*
X147912666Y66735476D01*
X135061476Y103565476D02*
X135061476Y104835476D01*
X136391952Y103686428D02*
X136331476Y103625952D01*
X136150047Y103565476D01*
X136029095Y103565476D01*
X135847666Y103625952D01*
X135726714Y103746904D01*
X135666238Y103867857D01*
X135605761Y104109761D01*
X135605761Y104291190D01*
X135666238Y104533095D01*
X135726714Y104654047D01*
X135847666Y104775000D01*
X136029095Y104835476D01*
X136150047Y104835476D01*
X136331476Y104775000D01*
X136391952Y104714523D01*
X137480523Y104412142D02*
X137480523Y103565476D01*
X137178142Y104895952D02*
X136875761Y103988809D01*
X137661952Y103988809D01*
X138206238Y103565476D02*
X138448142Y103565476D01*
X138569095Y103625952D01*
X138629571Y103686428D01*
X138750523Y103867857D01*
X138811000Y104109761D01*
X138811000Y104593571D01*
X138750523Y104714523D01*
X138690047Y104775000D01*
X138569095Y104835476D01*
X138327190Y104835476D01*
X138206238Y104775000D01*
X138145761Y104714523D01*
X138085285Y104593571D01*
X138085285Y104291190D01*
X138145761Y104170238D01*
X138206238Y104109761D01*
X138327190Y104049285D01*
X138569095Y104049285D01*
X138690047Y104109761D01*
X138750523Y104170238D01*
X138811000Y104291190D01*
X130235476Y46415476D02*
X130235476Y47685476D01*
X131565952Y46536428D02*
X131505476Y46475952D01*
X131324047Y46415476D01*
X131203095Y46415476D01*
X131021666Y46475952D01*
X130900714Y46596904D01*
X130840238Y46717857D01*
X130779761Y46959761D01*
X130779761Y47141190D01*
X130840238Y47383095D01*
X130900714Y47504047D01*
X131021666Y47625000D01*
X131203095Y47685476D01*
X131324047Y47685476D01*
X131505476Y47625000D01*
X131565952Y47564523D01*
X132654523Y47262142D02*
X132654523Y46415476D01*
X132352142Y47745952D02*
X132049761Y46838809D01*
X132835952Y46838809D01*
X133198809Y47685476D02*
X134045476Y47685476D01*
X133501190Y46415476D01*
X116011476Y84515476D02*
X116011476Y85785476D01*
X117341952Y84636428D02*
X117281476Y84575952D01*
X117100047Y84515476D01*
X116979095Y84515476D01*
X116797666Y84575952D01*
X116676714Y84696904D01*
X116616238Y84817857D01*
X116555761Y85059761D01*
X116555761Y85241190D01*
X116616238Y85483095D01*
X116676714Y85604047D01*
X116797666Y85725000D01*
X116979095Y85785476D01*
X117100047Y85785476D01*
X117281476Y85725000D01*
X117341952Y85664523D01*
X118430523Y85362142D02*
X118430523Y84515476D01*
X118128142Y85845952D02*
X117825761Y84938809D01*
X118611952Y84938809D01*
X119640047Y85785476D02*
X119398142Y85785476D01*
X119277190Y85725000D01*
X119216714Y85664523D01*
X119095761Y85483095D01*
X119035285Y85241190D01*
X119035285Y84757380D01*
X119095761Y84636428D01*
X119156238Y84575952D01*
X119277190Y84515476D01*
X119519095Y84515476D01*
X119640047Y84575952D01*
X119700523Y84636428D01*
X119761000Y84757380D01*
X119761000Y85059761D01*
X119700523Y85180714D01*
X119640047Y85241190D01*
X119519095Y85301666D01*
X119277190Y85301666D01*
X119156238Y85241190D01*
X119095761Y85180714D01*
X119035285Y85059761D01*
X139760476Y27365476D02*
X139760476Y28635476D01*
X141090952Y27486428D02*
X141030476Y27425952D01*
X140849047Y27365476D01*
X140728095Y27365476D01*
X140546666Y27425952D01*
X140425714Y27546904D01*
X140365238Y27667857D01*
X140304761Y27909761D01*
X140304761Y28091190D01*
X140365238Y28333095D01*
X140425714Y28454047D01*
X140546666Y28575000D01*
X140728095Y28635476D01*
X140849047Y28635476D01*
X141030476Y28575000D01*
X141090952Y28514523D01*
X142179523Y28212142D02*
X142179523Y27365476D01*
X141877142Y28695952D02*
X141574761Y27788809D01*
X142360952Y27788809D01*
X143449523Y28635476D02*
X142844761Y28635476D01*
X142784285Y28030714D01*
X142844761Y28091190D01*
X142965714Y28151666D01*
X143268095Y28151666D01*
X143389047Y28091190D01*
X143449523Y28030714D01*
X143510000Y27909761D01*
X143510000Y27607380D01*
X143449523Y27486428D01*
X143389047Y27425952D01*
X143268095Y27365476D01*
X142965714Y27365476D01*
X142844761Y27425952D01*
X142784285Y27486428D01*
X125536476Y65465476D02*
X125536476Y66735476D01*
X126866952Y65586428D02*
X126806476Y65525952D01*
X126625047Y65465476D01*
X126504095Y65465476D01*
X126322666Y65525952D01*
X126201714Y65646904D01*
X126141238Y65767857D01*
X126080761Y66009761D01*
X126080761Y66191190D01*
X126141238Y66433095D01*
X126201714Y66554047D01*
X126322666Y66675000D01*
X126504095Y66735476D01*
X126625047Y66735476D01*
X126806476Y66675000D01*
X126866952Y66614523D01*
X127955523Y66312142D02*
X127955523Y65465476D01*
X127653142Y66795952D02*
X127350761Y65888809D01*
X128136952Y65888809D01*
X129165047Y66312142D02*
X129165047Y65465476D01*
X128862666Y66795952D02*
X128560285Y65888809D01*
X129346476Y65888809D01*
X116011476Y103565476D02*
X116011476Y104835476D01*
X117341952Y103686428D02*
X117281476Y103625952D01*
X117100047Y103565476D01*
X116979095Y103565476D01*
X116797666Y103625952D01*
X116676714Y103746904D01*
X116616238Y103867857D01*
X116555761Y104109761D01*
X116555761Y104291190D01*
X116616238Y104533095D01*
X116676714Y104654047D01*
X116797666Y104775000D01*
X116979095Y104835476D01*
X117100047Y104835476D01*
X117281476Y104775000D01*
X117341952Y104714523D01*
X118430523Y104412142D02*
X118430523Y103565476D01*
X118128142Y104895952D02*
X117825761Y103988809D01*
X118611952Y103988809D01*
X118974809Y104835476D02*
X119761000Y104835476D01*
X119337666Y104351666D01*
X119519095Y104351666D01*
X119640047Y104291190D01*
X119700523Y104230714D01*
X119761000Y104109761D01*
X119761000Y103807380D01*
X119700523Y103686428D01*
X119640047Y103625952D01*
X119519095Y103565476D01*
X119156238Y103565476D01*
X119035285Y103625952D01*
X118974809Y103686428D01*
X218373476Y8315476D02*
X218373476Y9585476D01*
X219703952Y8436428D02*
X219643476Y8375952D01*
X219462047Y8315476D01*
X219341095Y8315476D01*
X219159666Y8375952D01*
X219038714Y8496904D01*
X218978238Y8617857D01*
X218917761Y8859761D01*
X218917761Y9041190D01*
X218978238Y9283095D01*
X219038714Y9404047D01*
X219159666Y9525000D01*
X219341095Y9585476D01*
X219462047Y9585476D01*
X219643476Y9525000D01*
X219703952Y9464523D01*
X220792523Y9162142D02*
X220792523Y8315476D01*
X220490142Y9645952D02*
X220187761Y8738809D01*
X220973952Y8738809D01*
X221397285Y9464523D02*
X221457761Y9525000D01*
X221578714Y9585476D01*
X221881095Y9585476D01*
X222002047Y9525000D01*
X222062523Y9464523D01*
X222123000Y9343571D01*
X222123000Y9222619D01*
X222062523Y9041190D01*
X221336809Y8315476D01*
X222123000Y8315476D01*
X111185476Y46415476D02*
X111185476Y47685476D01*
X112515952Y46536428D02*
X112455476Y46475952D01*
X112274047Y46415476D01*
X112153095Y46415476D01*
X111971666Y46475952D01*
X111850714Y46596904D01*
X111790238Y46717857D01*
X111729761Y46959761D01*
X111729761Y47141190D01*
X111790238Y47383095D01*
X111850714Y47504047D01*
X111971666Y47625000D01*
X112153095Y47685476D01*
X112274047Y47685476D01*
X112455476Y47625000D01*
X112515952Y47564523D01*
X113604523Y47262142D02*
X113604523Y46415476D01*
X113302142Y47745952D02*
X112999761Y46838809D01*
X113785952Y46838809D01*
X114935000Y46415476D02*
X114209285Y46415476D01*
X114572142Y46415476D02*
X114572142Y47685476D01*
X114451190Y47504047D01*
X114330238Y47383095D01*
X114209285Y47322619D01*
X96961476Y84515476D02*
X96961476Y85785476D01*
X98291952Y84636428D02*
X98231476Y84575952D01*
X98050047Y84515476D01*
X97929095Y84515476D01*
X97747666Y84575952D01*
X97626714Y84696904D01*
X97566238Y84817857D01*
X97505761Y85059761D01*
X97505761Y85241190D01*
X97566238Y85483095D01*
X97626714Y85604047D01*
X97747666Y85725000D01*
X97929095Y85785476D01*
X98050047Y85785476D01*
X98231476Y85725000D01*
X98291952Y85664523D01*
X99380523Y85362142D02*
X99380523Y84515476D01*
X99078142Y85845952D02*
X98775761Y84938809D01*
X99561952Y84938809D01*
X100287666Y85785476D02*
X100408619Y85785476D01*
X100529571Y85725000D01*
X100590047Y85664523D01*
X100650523Y85543571D01*
X100711000Y85301666D01*
X100711000Y84999285D01*
X100650523Y84757380D01*
X100590047Y84636428D01*
X100529571Y84575952D01*
X100408619Y84515476D01*
X100287666Y84515476D01*
X100166714Y84575952D01*
X100106238Y84636428D01*
X100045761Y84757380D01*
X99985285Y84999285D01*
X99985285Y85301666D01*
X100045761Y85543571D01*
X100106238Y85664523D01*
X100166714Y85725000D01*
X100287666Y85785476D01*
X120710476Y27365476D02*
X120710476Y28635476D01*
X122040952Y27486428D02*
X121980476Y27425952D01*
X121799047Y27365476D01*
X121678095Y27365476D01*
X121496666Y27425952D01*
X121375714Y27546904D01*
X121315238Y27667857D01*
X121254761Y27909761D01*
X121254761Y28091190D01*
X121315238Y28333095D01*
X121375714Y28454047D01*
X121496666Y28575000D01*
X121678095Y28635476D01*
X121799047Y28635476D01*
X121980476Y28575000D01*
X122040952Y28514523D01*
X122464285Y28635476D02*
X123250476Y28635476D01*
X122827142Y28151666D01*
X123008571Y28151666D01*
X123129523Y28091190D01*
X123190000Y28030714D01*
X123250476Y27909761D01*
X123250476Y27607380D01*
X123190000Y27486428D01*
X123129523Y27425952D01*
X123008571Y27365476D01*
X122645714Y27365476D01*
X122524761Y27425952D01*
X122464285Y27486428D01*
X123855238Y27365476D02*
X124097142Y27365476D01*
X124218095Y27425952D01*
X124278571Y27486428D01*
X124399523Y27667857D01*
X124460000Y27909761D01*
X124460000Y28393571D01*
X124399523Y28514523D01*
X124339047Y28575000D01*
X124218095Y28635476D01*
X123976190Y28635476D01*
X123855238Y28575000D01*
X123794761Y28514523D01*
X123734285Y28393571D01*
X123734285Y28091190D01*
X123794761Y27970238D01*
X123855238Y27909761D01*
X123976190Y27849285D01*
X124218095Y27849285D01*
X124339047Y27909761D01*
X124399523Y27970238D01*
X124460000Y28091190D01*
X106486476Y65465476D02*
X106486476Y66735476D01*
X107816952Y65586428D02*
X107756476Y65525952D01*
X107575047Y65465476D01*
X107454095Y65465476D01*
X107272666Y65525952D01*
X107151714Y65646904D01*
X107091238Y65767857D01*
X107030761Y66009761D01*
X107030761Y66191190D01*
X107091238Y66433095D01*
X107151714Y66554047D01*
X107272666Y66675000D01*
X107454095Y66735476D01*
X107575047Y66735476D01*
X107756476Y66675000D01*
X107816952Y66614523D01*
X108240285Y66735476D02*
X109026476Y66735476D01*
X108603142Y66251666D01*
X108784571Y66251666D01*
X108905523Y66191190D01*
X108966000Y66130714D01*
X109026476Y66009761D01*
X109026476Y65707380D01*
X108966000Y65586428D01*
X108905523Y65525952D01*
X108784571Y65465476D01*
X108421714Y65465476D01*
X108300761Y65525952D01*
X108240285Y65586428D01*
X109752190Y66191190D02*
X109631238Y66251666D01*
X109570761Y66312142D01*
X109510285Y66433095D01*
X109510285Y66493571D01*
X109570761Y66614523D01*
X109631238Y66675000D01*
X109752190Y66735476D01*
X109994095Y66735476D01*
X110115047Y66675000D01*
X110175523Y66614523D01*
X110236000Y66493571D01*
X110236000Y66433095D01*
X110175523Y66312142D01*
X110115047Y66251666D01*
X109994095Y66191190D01*
X109752190Y66191190D01*
X109631238Y66130714D01*
X109570761Y66070238D01*
X109510285Y65949285D01*
X109510285Y65707380D01*
X109570761Y65586428D01*
X109631238Y65525952D01*
X109752190Y65465476D01*
X109994095Y65465476D01*
X110115047Y65525952D01*
X110175523Y65586428D01*
X110236000Y65707380D01*
X110236000Y65949285D01*
X110175523Y66070238D01*
X110115047Y66130714D01*
X109994095Y66191190D01*
X96961476Y103565476D02*
X96961476Y104835476D01*
X98291952Y103686428D02*
X98231476Y103625952D01*
X98050047Y103565476D01*
X97929095Y103565476D01*
X97747666Y103625952D01*
X97626714Y103746904D01*
X97566238Y103867857D01*
X97505761Y104109761D01*
X97505761Y104291190D01*
X97566238Y104533095D01*
X97626714Y104654047D01*
X97747666Y104775000D01*
X97929095Y104835476D01*
X98050047Y104835476D01*
X98231476Y104775000D01*
X98291952Y104714523D01*
X98715285Y104835476D02*
X99501476Y104835476D01*
X99078142Y104351666D01*
X99259571Y104351666D01*
X99380523Y104291190D01*
X99441000Y104230714D01*
X99501476Y104109761D01*
X99501476Y103807380D01*
X99441000Y103686428D01*
X99380523Y103625952D01*
X99259571Y103565476D01*
X98896714Y103565476D01*
X98775761Y103625952D01*
X98715285Y103686428D01*
X99924809Y104835476D02*
X100771476Y104835476D01*
X100227190Y103565476D01*
X146999476Y8315476D02*
X146999476Y9585476D01*
X148329952Y8436428D02*
X148269476Y8375952D01*
X148088047Y8315476D01*
X147967095Y8315476D01*
X147785666Y8375952D01*
X147664714Y8496904D01*
X147604238Y8617857D01*
X147543761Y8859761D01*
X147543761Y9041190D01*
X147604238Y9283095D01*
X147664714Y9404047D01*
X147785666Y9525000D01*
X147967095Y9585476D01*
X148088047Y9585476D01*
X148269476Y9525000D01*
X148329952Y9464523D01*
X148753285Y9585476D02*
X149539476Y9585476D01*
X149116142Y9101666D01*
X149297571Y9101666D01*
X149418523Y9041190D01*
X149479000Y8980714D01*
X149539476Y8859761D01*
X149539476Y8557380D01*
X149479000Y8436428D01*
X149418523Y8375952D01*
X149297571Y8315476D01*
X148934714Y8315476D01*
X148813761Y8375952D01*
X148753285Y8436428D01*
X150628047Y9585476D02*
X150386142Y9585476D01*
X150265190Y9525000D01*
X150204714Y9464523D01*
X150083761Y9283095D01*
X150023285Y9041190D01*
X150023285Y8557380D01*
X150083761Y8436428D01*
X150144238Y8375952D01*
X150265190Y8315476D01*
X150507095Y8315476D01*
X150628047Y8375952D01*
X150688523Y8436428D01*
X150749000Y8557380D01*
X150749000Y8859761D01*
X150688523Y8980714D01*
X150628047Y9041190D01*
X150507095Y9101666D01*
X150265190Y9101666D01*
X150144238Y9041190D01*
X150083761Y8980714D01*
X150023285Y8859761D01*
X92135476Y46415476D02*
X92135476Y47685476D01*
X93465952Y46536428D02*
X93405476Y46475952D01*
X93224047Y46415476D01*
X93103095Y46415476D01*
X92921666Y46475952D01*
X92800714Y46596904D01*
X92740238Y46717857D01*
X92679761Y46959761D01*
X92679761Y47141190D01*
X92740238Y47383095D01*
X92800714Y47504047D01*
X92921666Y47625000D01*
X93103095Y47685476D01*
X93224047Y47685476D01*
X93405476Y47625000D01*
X93465952Y47564523D01*
X93889285Y47685476D02*
X94675476Y47685476D01*
X94252142Y47201666D01*
X94433571Y47201666D01*
X94554523Y47141190D01*
X94615000Y47080714D01*
X94675476Y46959761D01*
X94675476Y46657380D01*
X94615000Y46536428D01*
X94554523Y46475952D01*
X94433571Y46415476D01*
X94070714Y46415476D01*
X93949761Y46475952D01*
X93889285Y46536428D01*
X95824523Y47685476D02*
X95219761Y47685476D01*
X95159285Y47080714D01*
X95219761Y47141190D01*
X95340714Y47201666D01*
X95643095Y47201666D01*
X95764047Y47141190D01*
X95824523Y47080714D01*
X95885000Y46959761D01*
X95885000Y46657380D01*
X95824523Y46536428D01*
X95764047Y46475952D01*
X95643095Y46415476D01*
X95340714Y46415476D01*
X95219761Y46475952D01*
X95159285Y46536428D01*
X77911476Y84515476D02*
X77911476Y85785476D01*
X79241952Y84636428D02*
X79181476Y84575952D01*
X79000047Y84515476D01*
X78879095Y84515476D01*
X78697666Y84575952D01*
X78576714Y84696904D01*
X78516238Y84817857D01*
X78455761Y85059761D01*
X78455761Y85241190D01*
X78516238Y85483095D01*
X78576714Y85604047D01*
X78697666Y85725000D01*
X78879095Y85785476D01*
X79000047Y85785476D01*
X79181476Y85725000D01*
X79241952Y85664523D01*
X79665285Y85785476D02*
X80451476Y85785476D01*
X80028142Y85301666D01*
X80209571Y85301666D01*
X80330523Y85241190D01*
X80391000Y85180714D01*
X80451476Y85059761D01*
X80451476Y84757380D01*
X80391000Y84636428D01*
X80330523Y84575952D01*
X80209571Y84515476D01*
X79846714Y84515476D01*
X79725761Y84575952D01*
X79665285Y84636428D01*
X81540047Y85362142D02*
X81540047Y84515476D01*
X81237666Y85845952D02*
X80935285Y84938809D01*
X81721476Y84938809D01*
X101660476Y27365476D02*
X101660476Y28635476D01*
X102990952Y27486428D02*
X102930476Y27425952D01*
X102749047Y27365476D01*
X102628095Y27365476D01*
X102446666Y27425952D01*
X102325714Y27546904D01*
X102265238Y27667857D01*
X102204761Y27909761D01*
X102204761Y28091190D01*
X102265238Y28333095D01*
X102325714Y28454047D01*
X102446666Y28575000D01*
X102628095Y28635476D01*
X102749047Y28635476D01*
X102930476Y28575000D01*
X102990952Y28514523D01*
X103414285Y28635476D02*
X104200476Y28635476D01*
X103777142Y28151666D01*
X103958571Y28151666D01*
X104079523Y28091190D01*
X104140000Y28030714D01*
X104200476Y27909761D01*
X104200476Y27607380D01*
X104140000Y27486428D01*
X104079523Y27425952D01*
X103958571Y27365476D01*
X103595714Y27365476D01*
X103474761Y27425952D01*
X103414285Y27486428D01*
X104623809Y28635476D02*
X105410000Y28635476D01*
X104986666Y28151666D01*
X105168095Y28151666D01*
X105289047Y28091190D01*
X105349523Y28030714D01*
X105410000Y27909761D01*
X105410000Y27607380D01*
X105349523Y27486428D01*
X105289047Y27425952D01*
X105168095Y27365476D01*
X104805238Y27365476D01*
X104684285Y27425952D01*
X104623809Y27486428D01*
X87436476Y65592476D02*
X87436476Y66862476D01*
X88766952Y65713428D02*
X88706476Y65652952D01*
X88525047Y65592476D01*
X88404095Y65592476D01*
X88222666Y65652952D01*
X88101714Y65773904D01*
X88041238Y65894857D01*
X87980761Y66136761D01*
X87980761Y66318190D01*
X88041238Y66560095D01*
X88101714Y66681047D01*
X88222666Y66802000D01*
X88404095Y66862476D01*
X88525047Y66862476D01*
X88706476Y66802000D01*
X88766952Y66741523D01*
X89190285Y66862476D02*
X89976476Y66862476D01*
X89553142Y66378666D01*
X89734571Y66378666D01*
X89855523Y66318190D01*
X89916000Y66257714D01*
X89976476Y66136761D01*
X89976476Y65834380D01*
X89916000Y65713428D01*
X89855523Y65652952D01*
X89734571Y65592476D01*
X89371714Y65592476D01*
X89250761Y65652952D01*
X89190285Y65713428D01*
X90460285Y66741523D02*
X90520761Y66802000D01*
X90641714Y66862476D01*
X90944095Y66862476D01*
X91065047Y66802000D01*
X91125523Y66741523D01*
X91186000Y66620571D01*
X91186000Y66499619D01*
X91125523Y66318190D01*
X90399809Y65592476D01*
X91186000Y65592476D01*
X77911476Y103565476D02*
X77911476Y104835476D01*
X79241952Y103686428D02*
X79181476Y103625952D01*
X79000047Y103565476D01*
X78879095Y103565476D01*
X78697666Y103625952D01*
X78576714Y103746904D01*
X78516238Y103867857D01*
X78455761Y104109761D01*
X78455761Y104291190D01*
X78516238Y104533095D01*
X78576714Y104654047D01*
X78697666Y104775000D01*
X78879095Y104835476D01*
X79000047Y104835476D01*
X79181476Y104775000D01*
X79241952Y104714523D01*
X79665285Y104835476D02*
X80451476Y104835476D01*
X80028142Y104351666D01*
X80209571Y104351666D01*
X80330523Y104291190D01*
X80391000Y104230714D01*
X80451476Y104109761D01*
X80451476Y103807380D01*
X80391000Y103686428D01*
X80330523Y103625952D01*
X80209571Y103565476D01*
X79846714Y103565476D01*
X79725761Y103625952D01*
X79665285Y103686428D01*
X81661000Y103565476D02*
X80935285Y103565476D01*
X81298142Y103565476D02*
X81298142Y104835476D01*
X81177190Y104654047D01*
X81056238Y104533095D01*
X80935285Y104472619D01*
X73212476Y8442476D02*
X73212476Y9712476D01*
X74542952Y8563428D02*
X74482476Y8502952D01*
X74301047Y8442476D01*
X74180095Y8442476D01*
X73998666Y8502952D01*
X73877714Y8623904D01*
X73817238Y8744857D01*
X73756761Y8986761D01*
X73756761Y9168190D01*
X73817238Y9410095D01*
X73877714Y9531047D01*
X73998666Y9652000D01*
X74180095Y9712476D01*
X74301047Y9712476D01*
X74482476Y9652000D01*
X74542952Y9591523D01*
X74966285Y9712476D02*
X75752476Y9712476D01*
X75329142Y9228666D01*
X75510571Y9228666D01*
X75631523Y9168190D01*
X75692000Y9107714D01*
X75752476Y8986761D01*
X75752476Y8684380D01*
X75692000Y8563428D01*
X75631523Y8502952D01*
X75510571Y8442476D01*
X75147714Y8442476D01*
X75026761Y8502952D01*
X74966285Y8563428D01*
X76538666Y9712476D02*
X76659619Y9712476D01*
X76780571Y9652000D01*
X76841047Y9591523D01*
X76901523Y9470571D01*
X76962000Y9228666D01*
X76962000Y8926285D01*
X76901523Y8684380D01*
X76841047Y8563428D01*
X76780571Y8502952D01*
X76659619Y8442476D01*
X76538666Y8442476D01*
X76417714Y8502952D01*
X76357238Y8563428D01*
X76296761Y8684380D01*
X76236285Y8926285D01*
X76236285Y9228666D01*
X76296761Y9470571D01*
X76357238Y9591523D01*
X76417714Y9652000D01*
X76538666Y9712476D01*
X73085476Y46415476D02*
X73085476Y47685476D01*
X74415952Y46536428D02*
X74355476Y46475952D01*
X74174047Y46415476D01*
X74053095Y46415476D01*
X73871666Y46475952D01*
X73750714Y46596904D01*
X73690238Y46717857D01*
X73629761Y46959761D01*
X73629761Y47141190D01*
X73690238Y47383095D01*
X73750714Y47504047D01*
X73871666Y47625000D01*
X74053095Y47685476D01*
X74174047Y47685476D01*
X74355476Y47625000D01*
X74415952Y47564523D01*
X74899761Y47564523D02*
X74960238Y47625000D01*
X75081190Y47685476D01*
X75383571Y47685476D01*
X75504523Y47625000D01*
X75565000Y47564523D01*
X75625476Y47443571D01*
X75625476Y47322619D01*
X75565000Y47141190D01*
X74839285Y46415476D01*
X75625476Y46415476D01*
X76230238Y46415476D02*
X76472142Y46415476D01*
X76593095Y46475952D01*
X76653571Y46536428D01*
X76774523Y46717857D01*
X76835000Y46959761D01*
X76835000Y47443571D01*
X76774523Y47564523D01*
X76714047Y47625000D01*
X76593095Y47685476D01*
X76351190Y47685476D01*
X76230238Y47625000D01*
X76169761Y47564523D01*
X76109285Y47443571D01*
X76109285Y47141190D01*
X76169761Y47020238D01*
X76230238Y46959761D01*
X76351190Y46899285D01*
X76593095Y46899285D01*
X76714047Y46959761D01*
X76774523Y47020238D01*
X76835000Y47141190D01*
X58861476Y84515476D02*
X58861476Y85785476D01*
X60191952Y84636428D02*
X60131476Y84575952D01*
X59950047Y84515476D01*
X59829095Y84515476D01*
X59647666Y84575952D01*
X59526714Y84696904D01*
X59466238Y84817857D01*
X59405761Y85059761D01*
X59405761Y85241190D01*
X59466238Y85483095D01*
X59526714Y85604047D01*
X59647666Y85725000D01*
X59829095Y85785476D01*
X59950047Y85785476D01*
X60131476Y85725000D01*
X60191952Y85664523D01*
X60675761Y85664523D02*
X60736238Y85725000D01*
X60857190Y85785476D01*
X61159571Y85785476D01*
X61280523Y85725000D01*
X61341000Y85664523D01*
X61401476Y85543571D01*
X61401476Y85422619D01*
X61341000Y85241190D01*
X60615285Y84515476D01*
X61401476Y84515476D01*
X62127190Y85241190D02*
X62006238Y85301666D01*
X61945761Y85362142D01*
X61885285Y85483095D01*
X61885285Y85543571D01*
X61945761Y85664523D01*
X62006238Y85725000D01*
X62127190Y85785476D01*
X62369095Y85785476D01*
X62490047Y85725000D01*
X62550523Y85664523D01*
X62611000Y85543571D01*
X62611000Y85483095D01*
X62550523Y85362142D01*
X62490047Y85301666D01*
X62369095Y85241190D01*
X62127190Y85241190D01*
X62006238Y85180714D01*
X61945761Y85120238D01*
X61885285Y84999285D01*
X61885285Y84757380D01*
X61945761Y84636428D01*
X62006238Y84575952D01*
X62127190Y84515476D01*
X62369095Y84515476D01*
X62490047Y84575952D01*
X62550523Y84636428D01*
X62611000Y84757380D01*
X62611000Y84999285D01*
X62550523Y85120238D01*
X62490047Y85180714D01*
X62369095Y85241190D01*
X82610476Y27365476D02*
X82610476Y28635476D01*
X83940952Y27486428D02*
X83880476Y27425952D01*
X83699047Y27365476D01*
X83578095Y27365476D01*
X83396666Y27425952D01*
X83275714Y27546904D01*
X83215238Y27667857D01*
X83154761Y27909761D01*
X83154761Y28091190D01*
X83215238Y28333095D01*
X83275714Y28454047D01*
X83396666Y28575000D01*
X83578095Y28635476D01*
X83699047Y28635476D01*
X83880476Y28575000D01*
X83940952Y28514523D01*
X84424761Y28514523D02*
X84485238Y28575000D01*
X84606190Y28635476D01*
X84908571Y28635476D01*
X85029523Y28575000D01*
X85090000Y28514523D01*
X85150476Y28393571D01*
X85150476Y28272619D01*
X85090000Y28091190D01*
X84364285Y27365476D01*
X85150476Y27365476D01*
X85573809Y28635476D02*
X86420476Y28635476D01*
X85876190Y27365476D01*
X68386476Y65465476D02*
X68386476Y66735476D01*
X69716952Y65586428D02*
X69656476Y65525952D01*
X69475047Y65465476D01*
X69354095Y65465476D01*
X69172666Y65525952D01*
X69051714Y65646904D01*
X68991238Y65767857D01*
X68930761Y66009761D01*
X68930761Y66191190D01*
X68991238Y66433095D01*
X69051714Y66554047D01*
X69172666Y66675000D01*
X69354095Y66735476D01*
X69475047Y66735476D01*
X69656476Y66675000D01*
X69716952Y66614523D01*
X70200761Y66614523D02*
X70261238Y66675000D01*
X70382190Y66735476D01*
X70684571Y66735476D01*
X70805523Y66675000D01*
X70866000Y66614523D01*
X70926476Y66493571D01*
X70926476Y66372619D01*
X70866000Y66191190D01*
X70140285Y65465476D01*
X70926476Y65465476D01*
X72015047Y66735476D02*
X71773142Y66735476D01*
X71652190Y66675000D01*
X71591714Y66614523D01*
X71470761Y66433095D01*
X71410285Y66191190D01*
X71410285Y65707380D01*
X71470761Y65586428D01*
X71531238Y65525952D01*
X71652190Y65465476D01*
X71894095Y65465476D01*
X72015047Y65525952D01*
X72075523Y65586428D01*
X72136000Y65707380D01*
X72136000Y66009761D01*
X72075523Y66130714D01*
X72015047Y66191190D01*
X71894095Y66251666D01*
X71652190Y66251666D01*
X71531238Y66191190D01*
X71470761Y66130714D01*
X71410285Y66009761D01*
X58861476Y103565476D02*
X58861476Y104835476D01*
X60191952Y103686428D02*
X60131476Y103625952D01*
X59950047Y103565476D01*
X59829095Y103565476D01*
X59647666Y103625952D01*
X59526714Y103746904D01*
X59466238Y103867857D01*
X59405761Y104109761D01*
X59405761Y104291190D01*
X59466238Y104533095D01*
X59526714Y104654047D01*
X59647666Y104775000D01*
X59829095Y104835476D01*
X59950047Y104835476D01*
X60131476Y104775000D01*
X60191952Y104714523D01*
X60675761Y104714523D02*
X60736238Y104775000D01*
X60857190Y104835476D01*
X61159571Y104835476D01*
X61280523Y104775000D01*
X61341000Y104714523D01*
X61401476Y104593571D01*
X61401476Y104472619D01*
X61341000Y104291190D01*
X60615285Y103565476D01*
X61401476Y103565476D01*
X62550523Y104835476D02*
X61945761Y104835476D01*
X61885285Y104230714D01*
X61945761Y104291190D01*
X62066714Y104351666D01*
X62369095Y104351666D01*
X62490047Y104291190D01*
X62550523Y104230714D01*
X62611000Y104109761D01*
X62611000Y103807380D01*
X62550523Y103686428D01*
X62490047Y103625952D01*
X62369095Y103565476D01*
X62066714Y103565476D01*
X61945761Y103625952D01*
X61885285Y103686428D01*
X49336476Y8315476D02*
X49336476Y9585476D01*
X50666952Y8436428D02*
X50606476Y8375952D01*
X50425047Y8315476D01*
X50304095Y8315476D01*
X50122666Y8375952D01*
X50001714Y8496904D01*
X49941238Y8617857D01*
X49880761Y8859761D01*
X49880761Y9041190D01*
X49941238Y9283095D01*
X50001714Y9404047D01*
X50122666Y9525000D01*
X50304095Y9585476D01*
X50425047Y9585476D01*
X50606476Y9525000D01*
X50666952Y9464523D01*
X51150761Y9464523D02*
X51211238Y9525000D01*
X51332190Y9585476D01*
X51634571Y9585476D01*
X51755523Y9525000D01*
X51816000Y9464523D01*
X51876476Y9343571D01*
X51876476Y9222619D01*
X51816000Y9041190D01*
X51090285Y8315476D01*
X51876476Y8315476D01*
X52965047Y9162142D02*
X52965047Y8315476D01*
X52662666Y9645952D02*
X52360285Y8738809D01*
X53146476Y8738809D01*
X54035476Y46415476D02*
X54035476Y47685476D01*
X55365952Y46536428D02*
X55305476Y46475952D01*
X55124047Y46415476D01*
X55003095Y46415476D01*
X54821666Y46475952D01*
X54700714Y46596904D01*
X54640238Y46717857D01*
X54579761Y46959761D01*
X54579761Y47141190D01*
X54640238Y47383095D01*
X54700714Y47504047D01*
X54821666Y47625000D01*
X55003095Y47685476D01*
X55124047Y47685476D01*
X55305476Y47625000D01*
X55365952Y47564523D01*
X55849761Y47564523D02*
X55910238Y47625000D01*
X56031190Y47685476D01*
X56333571Y47685476D01*
X56454523Y47625000D01*
X56515000Y47564523D01*
X56575476Y47443571D01*
X56575476Y47322619D01*
X56515000Y47141190D01*
X55789285Y46415476D01*
X56575476Y46415476D01*
X56998809Y47685476D02*
X57785000Y47685476D01*
X57361666Y47201666D01*
X57543095Y47201666D01*
X57664047Y47141190D01*
X57724523Y47080714D01*
X57785000Y46959761D01*
X57785000Y46657380D01*
X57724523Y46536428D01*
X57664047Y46475952D01*
X57543095Y46415476D01*
X57180238Y46415476D01*
X57059285Y46475952D01*
X56998809Y46536428D01*
X39811476Y84515476D02*
X39811476Y85785476D01*
X41141952Y84636428D02*
X41081476Y84575952D01*
X40900047Y84515476D01*
X40779095Y84515476D01*
X40597666Y84575952D01*
X40476714Y84696904D01*
X40416238Y84817857D01*
X40355761Y85059761D01*
X40355761Y85241190D01*
X40416238Y85483095D01*
X40476714Y85604047D01*
X40597666Y85725000D01*
X40779095Y85785476D01*
X40900047Y85785476D01*
X41081476Y85725000D01*
X41141952Y85664523D01*
X41625761Y85664523D02*
X41686238Y85725000D01*
X41807190Y85785476D01*
X42109571Y85785476D01*
X42230523Y85725000D01*
X42291000Y85664523D01*
X42351476Y85543571D01*
X42351476Y85422619D01*
X42291000Y85241190D01*
X41565285Y84515476D01*
X42351476Y84515476D01*
X42835285Y85664523D02*
X42895761Y85725000D01*
X43016714Y85785476D01*
X43319095Y85785476D01*
X43440047Y85725000D01*
X43500523Y85664523D01*
X43561000Y85543571D01*
X43561000Y85422619D01*
X43500523Y85241190D01*
X42774809Y84515476D01*
X43561000Y84515476D01*
X63560476Y27365476D02*
X63560476Y28635476D01*
X64890952Y27486428D02*
X64830476Y27425952D01*
X64649047Y27365476D01*
X64528095Y27365476D01*
X64346666Y27425952D01*
X64225714Y27546904D01*
X64165238Y27667857D01*
X64104761Y27909761D01*
X64104761Y28091190D01*
X64165238Y28333095D01*
X64225714Y28454047D01*
X64346666Y28575000D01*
X64528095Y28635476D01*
X64649047Y28635476D01*
X64830476Y28575000D01*
X64890952Y28514523D01*
X65374761Y28514523D02*
X65435238Y28575000D01*
X65556190Y28635476D01*
X65858571Y28635476D01*
X65979523Y28575000D01*
X66040000Y28514523D01*
X66100476Y28393571D01*
X66100476Y28272619D01*
X66040000Y28091190D01*
X65314285Y27365476D01*
X66100476Y27365476D01*
X67310000Y27365476D02*
X66584285Y27365476D01*
X66947142Y27365476D02*
X66947142Y28635476D01*
X66826190Y28454047D01*
X66705238Y28333095D01*
X66584285Y28272619D01*
X49336476Y65465476D02*
X49336476Y66735476D01*
X50666952Y65586428D02*
X50606476Y65525952D01*
X50425047Y65465476D01*
X50304095Y65465476D01*
X50122666Y65525952D01*
X50001714Y65646904D01*
X49941238Y65767857D01*
X49880761Y66009761D01*
X49880761Y66191190D01*
X49941238Y66433095D01*
X50001714Y66554047D01*
X50122666Y66675000D01*
X50304095Y66735476D01*
X50425047Y66735476D01*
X50606476Y66675000D01*
X50666952Y66614523D01*
X51150761Y66614523D02*
X51211238Y66675000D01*
X51332190Y66735476D01*
X51634571Y66735476D01*
X51755523Y66675000D01*
X51816000Y66614523D01*
X51876476Y66493571D01*
X51876476Y66372619D01*
X51816000Y66191190D01*
X51090285Y65465476D01*
X51876476Y65465476D01*
X52662666Y66735476D02*
X52783619Y66735476D01*
X52904571Y66675000D01*
X52965047Y66614523D01*
X53025523Y66493571D01*
X53086000Y66251666D01*
X53086000Y65949285D01*
X53025523Y65707380D01*
X52965047Y65586428D01*
X52904571Y65525952D01*
X52783619Y65465476D01*
X52662666Y65465476D01*
X52541714Y65525952D01*
X52481238Y65586428D01*
X52420761Y65707380D01*
X52360285Y65949285D01*
X52360285Y66251666D01*
X52420761Y66493571D01*
X52481238Y66614523D01*
X52541714Y66675000D01*
X52662666Y66735476D01*
X39811476Y103565476D02*
X39811476Y104835476D01*
X41141952Y103686428D02*
X41081476Y103625952D01*
X40900047Y103565476D01*
X40779095Y103565476D01*
X40597666Y103625952D01*
X40476714Y103746904D01*
X40416238Y103867857D01*
X40355761Y104109761D01*
X40355761Y104291190D01*
X40416238Y104533095D01*
X40476714Y104654047D01*
X40597666Y104775000D01*
X40779095Y104835476D01*
X40900047Y104835476D01*
X41081476Y104775000D01*
X41141952Y104714523D01*
X42351476Y103565476D02*
X41625761Y103565476D01*
X41988619Y103565476D02*
X41988619Y104835476D01*
X41867666Y104654047D01*
X41746714Y104533095D01*
X41625761Y104472619D01*
X42956238Y103565476D02*
X43198142Y103565476D01*
X43319095Y103625952D01*
X43379571Y103686428D01*
X43500523Y103867857D01*
X43561000Y104109761D01*
X43561000Y104593571D01*
X43500523Y104714523D01*
X43440047Y104775000D01*
X43319095Y104835476D01*
X43077190Y104835476D01*
X42956238Y104775000D01*
X42895761Y104714523D01*
X42835285Y104593571D01*
X42835285Y104291190D01*
X42895761Y104170238D01*
X42956238Y104109761D01*
X43077190Y104049285D01*
X43319095Y104049285D01*
X43440047Y104109761D01*
X43500523Y104170238D01*
X43561000Y104291190D01*
X25460476Y8315476D02*
X25460476Y9585476D01*
X26790952Y8436428D02*
X26730476Y8375952D01*
X26549047Y8315476D01*
X26428095Y8315476D01*
X26246666Y8375952D01*
X26125714Y8496904D01*
X26065238Y8617857D01*
X26004761Y8859761D01*
X26004761Y9041190D01*
X26065238Y9283095D01*
X26125714Y9404047D01*
X26246666Y9525000D01*
X26428095Y9585476D01*
X26549047Y9585476D01*
X26730476Y9525000D01*
X26790952Y9464523D01*
X28000476Y8315476D02*
X27274761Y8315476D01*
X27637619Y8315476D02*
X27637619Y9585476D01*
X27516666Y9404047D01*
X27395714Y9283095D01*
X27274761Y9222619D01*
X28726190Y9041190D02*
X28605238Y9101666D01*
X28544761Y9162142D01*
X28484285Y9283095D01*
X28484285Y9343571D01*
X28544761Y9464523D01*
X28605238Y9525000D01*
X28726190Y9585476D01*
X28968095Y9585476D01*
X29089047Y9525000D01*
X29149523Y9464523D01*
X29210000Y9343571D01*
X29210000Y9283095D01*
X29149523Y9162142D01*
X29089047Y9101666D01*
X28968095Y9041190D01*
X28726190Y9041190D01*
X28605238Y8980714D01*
X28544761Y8920238D01*
X28484285Y8799285D01*
X28484285Y8557380D01*
X28544761Y8436428D01*
X28605238Y8375952D01*
X28726190Y8315476D01*
X28968095Y8315476D01*
X29089047Y8375952D01*
X29149523Y8436428D01*
X29210000Y8557380D01*
X29210000Y8799285D01*
X29149523Y8920238D01*
X29089047Y8980714D01*
X28968095Y9041190D01*
X27873476Y46542476D02*
X27873476Y47812476D01*
X29203952Y46663428D02*
X29143476Y46602952D01*
X28962047Y46542476D01*
X28841095Y46542476D01*
X28659666Y46602952D01*
X28538714Y46723904D01*
X28478238Y46844857D01*
X28417761Y47086761D01*
X28417761Y47268190D01*
X28478238Y47510095D01*
X28538714Y47631047D01*
X28659666Y47752000D01*
X28841095Y47812476D01*
X28962047Y47812476D01*
X29143476Y47752000D01*
X29203952Y47691523D01*
X30413476Y46542476D02*
X29687761Y46542476D01*
X30050619Y46542476D02*
X30050619Y47812476D01*
X29929666Y47631047D01*
X29808714Y47510095D01*
X29687761Y47449619D01*
X30836809Y47812476D02*
X31683476Y47812476D01*
X31139190Y46542476D01*
X20761476Y84515476D02*
X20761476Y85785476D01*
X22091952Y84636428D02*
X22031476Y84575952D01*
X21850047Y84515476D01*
X21729095Y84515476D01*
X21547666Y84575952D01*
X21426714Y84696904D01*
X21366238Y84817857D01*
X21305761Y85059761D01*
X21305761Y85241190D01*
X21366238Y85483095D01*
X21426714Y85604047D01*
X21547666Y85725000D01*
X21729095Y85785476D01*
X21850047Y85785476D01*
X22031476Y85725000D01*
X22091952Y85664523D01*
X23301476Y84515476D02*
X22575761Y84515476D01*
X22938619Y84515476D02*
X22938619Y85785476D01*
X22817666Y85604047D01*
X22696714Y85483095D01*
X22575761Y85422619D01*
X24390047Y85785476D02*
X24148142Y85785476D01*
X24027190Y85725000D01*
X23966714Y85664523D01*
X23845761Y85483095D01*
X23785285Y85241190D01*
X23785285Y84757380D01*
X23845761Y84636428D01*
X23906238Y84575952D01*
X24027190Y84515476D01*
X24269095Y84515476D01*
X24390047Y84575952D01*
X24450523Y84636428D01*
X24511000Y84757380D01*
X24511000Y85059761D01*
X24450523Y85180714D01*
X24390047Y85241190D01*
X24269095Y85301666D01*
X24027190Y85301666D01*
X23906238Y85241190D01*
X23845761Y85180714D01*
X23785285Y85059761D01*
X32699476Y27365476D02*
X32699476Y28635476D01*
X34029952Y27486428D02*
X33969476Y27425952D01*
X33788047Y27365476D01*
X33667095Y27365476D01*
X33485666Y27425952D01*
X33364714Y27546904D01*
X33304238Y27667857D01*
X33243761Y27909761D01*
X33243761Y28091190D01*
X33304238Y28333095D01*
X33364714Y28454047D01*
X33485666Y28575000D01*
X33667095Y28635476D01*
X33788047Y28635476D01*
X33969476Y28575000D01*
X34029952Y28514523D01*
X35239476Y27365476D02*
X34513761Y27365476D01*
X34876619Y27365476D02*
X34876619Y28635476D01*
X34755666Y28454047D01*
X34634714Y28333095D01*
X34513761Y28272619D01*
X36388523Y28635476D02*
X35783761Y28635476D01*
X35723285Y28030714D01*
X35783761Y28091190D01*
X35904714Y28151666D01*
X36207095Y28151666D01*
X36328047Y28091190D01*
X36388523Y28030714D01*
X36449000Y27909761D01*
X36449000Y27607380D01*
X36388523Y27486428D01*
X36328047Y27425952D01*
X36207095Y27365476D01*
X35904714Y27365476D01*
X35783761Y27425952D01*
X35723285Y27486428D01*
X25460476Y65465476D02*
X25460476Y66735476D01*
X26790952Y65586428D02*
X26730476Y65525952D01*
X26549047Y65465476D01*
X26428095Y65465476D01*
X26246666Y65525952D01*
X26125714Y65646904D01*
X26065238Y65767857D01*
X26004761Y66009761D01*
X26004761Y66191190D01*
X26065238Y66433095D01*
X26125714Y66554047D01*
X26246666Y66675000D01*
X26428095Y66735476D01*
X26549047Y66735476D01*
X26730476Y66675000D01*
X26790952Y66614523D01*
X28000476Y65465476D02*
X27274761Y65465476D01*
X27637619Y65465476D02*
X27637619Y66735476D01*
X27516666Y66554047D01*
X27395714Y66433095D01*
X27274761Y66372619D01*
X29089047Y66312142D02*
X29089047Y65465476D01*
X28786666Y66795952D02*
X28484285Y65888809D01*
X29270476Y65888809D01*
X20761476Y103565476D02*
X20761476Y104835476D01*
X22091952Y103686428D02*
X22031476Y103625952D01*
X21850047Y103565476D01*
X21729095Y103565476D01*
X21547666Y103625952D01*
X21426714Y103746904D01*
X21366238Y103867857D01*
X21305761Y104109761D01*
X21305761Y104291190D01*
X21366238Y104533095D01*
X21426714Y104654047D01*
X21547666Y104775000D01*
X21729095Y104835476D01*
X21850047Y104835476D01*
X22031476Y104775000D01*
X22091952Y104714523D01*
X23301476Y103565476D02*
X22575761Y103565476D01*
X22938619Y103565476D02*
X22938619Y104835476D01*
X22817666Y104654047D01*
X22696714Y104533095D01*
X22575761Y104472619D01*
X23724809Y104835476D02*
X24511000Y104835476D01*
X24087666Y104351666D01*
X24269095Y104351666D01*
X24390047Y104291190D01*
X24450523Y104230714D01*
X24511000Y104109761D01*
X24511000Y103807380D01*
X24450523Y103686428D01*
X24390047Y103625952D01*
X24269095Y103565476D01*
X23906238Y103565476D01*
X23785285Y103625952D01*
X23724809Y103686428D01*
X1711476Y8315476D02*
X1711476Y9585476D01*
X3041952Y8436428D02*
X2981476Y8375952D01*
X2800047Y8315476D01*
X2679095Y8315476D01*
X2497666Y8375952D01*
X2376714Y8496904D01*
X2316238Y8617857D01*
X2255761Y8859761D01*
X2255761Y9041190D01*
X2316238Y9283095D01*
X2376714Y9404047D01*
X2497666Y9525000D01*
X2679095Y9585476D01*
X2800047Y9585476D01*
X2981476Y9525000D01*
X3041952Y9464523D01*
X4251476Y8315476D02*
X3525761Y8315476D01*
X3888619Y8315476D02*
X3888619Y9585476D01*
X3767666Y9404047D01*
X3646714Y9283095D01*
X3525761Y9222619D01*
X4735285Y9464523D02*
X4795761Y9525000D01*
X4916714Y9585476D01*
X5219095Y9585476D01*
X5340047Y9525000D01*
X5400523Y9464523D01*
X5461000Y9343571D01*
X5461000Y9222619D01*
X5400523Y9041190D01*
X4674809Y8315476D01*
X5461000Y8315476D01*
X1711476Y46415476D02*
X1711476Y47685476D01*
X3041952Y46536428D02*
X2981476Y46475952D01*
X2800047Y46415476D01*
X2679095Y46415476D01*
X2497666Y46475952D01*
X2376714Y46596904D01*
X2316238Y46717857D01*
X2255761Y46959761D01*
X2255761Y47141190D01*
X2316238Y47383095D01*
X2376714Y47504047D01*
X2497666Y47625000D01*
X2679095Y47685476D01*
X2800047Y47685476D01*
X2981476Y47625000D01*
X3041952Y47564523D01*
X4251476Y46415476D02*
X3525761Y46415476D01*
X3888619Y46415476D02*
X3888619Y47685476D01*
X3767666Y47504047D01*
X3646714Y47383095D01*
X3525761Y47322619D01*
X5461000Y46415476D02*
X4735285Y46415476D01*
X5098142Y46415476D02*
X5098142Y47685476D01*
X4977190Y47504047D01*
X4856238Y47383095D01*
X4735285Y47322619D01*
X1711476Y84515476D02*
X1711476Y85785476D01*
X3041952Y84636428D02*
X2981476Y84575952D01*
X2800047Y84515476D01*
X2679095Y84515476D01*
X2497666Y84575952D01*
X2376714Y84696904D01*
X2316238Y84817857D01*
X2255761Y85059761D01*
X2255761Y85241190D01*
X2316238Y85483095D01*
X2376714Y85604047D01*
X2497666Y85725000D01*
X2679095Y85785476D01*
X2800047Y85785476D01*
X2981476Y85725000D01*
X3041952Y85664523D01*
X4251476Y84515476D02*
X3525761Y84515476D01*
X3888619Y84515476D02*
X3888619Y85785476D01*
X3767666Y85604047D01*
X3646714Y85483095D01*
X3525761Y85422619D01*
X5037666Y85785476D02*
X5158619Y85785476D01*
X5279571Y85725000D01*
X5340047Y85664523D01*
X5400523Y85543571D01*
X5461000Y85301666D01*
X5461000Y84999285D01*
X5400523Y84757380D01*
X5340047Y84636428D01*
X5279571Y84575952D01*
X5158619Y84515476D01*
X5037666Y84515476D01*
X4916714Y84575952D01*
X4856238Y84636428D01*
X4795761Y84757380D01*
X4735285Y84999285D01*
X4735285Y85301666D01*
X4795761Y85543571D01*
X4856238Y85664523D01*
X4916714Y85725000D01*
X5037666Y85785476D01*
X2316238Y27365476D02*
X2316238Y28635476D01*
X3646714Y27486428D02*
X3586238Y27425952D01*
X3404809Y27365476D01*
X3283857Y27365476D01*
X3102428Y27425952D01*
X2981476Y27546904D01*
X2921000Y27667857D01*
X2860523Y27909761D01*
X2860523Y28091190D01*
X2921000Y28333095D01*
X2981476Y28454047D01*
X3102428Y28575000D01*
X3283857Y28635476D01*
X3404809Y28635476D01*
X3586238Y28575000D01*
X3646714Y28514523D01*
X4251476Y27365476D02*
X4493380Y27365476D01*
X4614333Y27425952D01*
X4674809Y27486428D01*
X4795761Y27667857D01*
X4856238Y27909761D01*
X4856238Y28393571D01*
X4795761Y28514523D01*
X4735285Y28575000D01*
X4614333Y28635476D01*
X4372428Y28635476D01*
X4251476Y28575000D01*
X4191000Y28514523D01*
X4130523Y28393571D01*
X4130523Y28091190D01*
X4191000Y27970238D01*
X4251476Y27909761D01*
X4372428Y27849285D01*
X4614333Y27849285D01*
X4735285Y27909761D01*
X4795761Y27970238D01*
X4856238Y28091190D01*
X2316238Y65465476D02*
X2316238Y66735476D01*
X3646714Y65586428D02*
X3586238Y65525952D01*
X3404809Y65465476D01*
X3283857Y65465476D01*
X3102428Y65525952D01*
X2981476Y65646904D01*
X2921000Y65767857D01*
X2860523Y66009761D01*
X2860523Y66191190D01*
X2921000Y66433095D01*
X2981476Y66554047D01*
X3102428Y66675000D01*
X3283857Y66735476D01*
X3404809Y66735476D01*
X3586238Y66675000D01*
X3646714Y66614523D01*
X4372428Y66191190D02*
X4251476Y66251666D01*
X4191000Y66312142D01*
X4130523Y66433095D01*
X4130523Y66493571D01*
X4191000Y66614523D01*
X4251476Y66675000D01*
X4372428Y66735476D01*
X4614333Y66735476D01*
X4735285Y66675000D01*
X4795761Y66614523D01*
X4856238Y66493571D01*
X4856238Y66433095D01*
X4795761Y66312142D01*
X4735285Y66251666D01*
X4614333Y66191190D01*
X4372428Y66191190D01*
X4251476Y66130714D01*
X4191000Y66070238D01*
X4130523Y65949285D01*
X4130523Y65707380D01*
X4191000Y65586428D01*
X4251476Y65525952D01*
X4372428Y65465476D01*
X4614333Y65465476D01*
X4735285Y65525952D01*
X4795761Y65586428D01*
X4856238Y65707380D01*
X4856238Y65949285D01*
X4795761Y66070238D01*
X4735285Y66130714D01*
X4614333Y66191190D01*
X2316238Y103565476D02*
X2316238Y104835476D01*
X3646714Y103686428D02*
X3586238Y103625952D01*
X3404809Y103565476D01*
X3283857Y103565476D01*
X3102428Y103625952D01*
X2981476Y103746904D01*
X2921000Y103867857D01*
X2860523Y104109761D01*
X2860523Y104291190D01*
X2921000Y104533095D01*
X2981476Y104654047D01*
X3102428Y104775000D01*
X3283857Y104835476D01*
X3404809Y104835476D01*
X3586238Y104775000D01*
X3646714Y104714523D01*
X4070047Y104835476D02*
X4916714Y104835476D01*
X4372428Y103565476D01*
X-16733761Y8315476D02*
X-16733761Y9585476D01*
X-15403285Y8436428D02*
X-15463761Y8375952D01*
X-15645190Y8315476D01*
X-15766142Y8315476D01*
X-15947571Y8375952D01*
X-16068523Y8496904D01*
X-16129000Y8617857D01*
X-16189476Y8859761D01*
X-16189476Y9041190D01*
X-16129000Y9283095D01*
X-16068523Y9404047D01*
X-15947571Y9525000D01*
X-15766142Y9585476D01*
X-15645190Y9585476D01*
X-15463761Y9525000D01*
X-15403285Y9464523D01*
X-14314714Y9585476D02*
X-14556619Y9585476D01*
X-14677571Y9525000D01*
X-14738047Y9464523D01*
X-14859000Y9283095D01*
X-14919476Y9041190D01*
X-14919476Y8557380D01*
X-14859000Y8436428D01*
X-14798523Y8375952D01*
X-14677571Y8315476D01*
X-14435666Y8315476D01*
X-14314714Y8375952D01*
X-14254238Y8436428D01*
X-14193761Y8557380D01*
X-14193761Y8859761D01*
X-14254238Y8980714D01*
X-14314714Y9041190D01*
X-14435666Y9101666D01*
X-14677571Y9101666D01*
X-14798523Y9041190D01*
X-14859000Y8980714D01*
X-14919476Y8859761D01*
X-16733761Y46415476D02*
X-16733761Y47685476D01*
X-15403285Y46536428D02*
X-15463761Y46475952D01*
X-15645190Y46415476D01*
X-15766142Y46415476D01*
X-15947571Y46475952D01*
X-16068523Y46596904D01*
X-16129000Y46717857D01*
X-16189476Y46959761D01*
X-16189476Y47141190D01*
X-16129000Y47383095D01*
X-16068523Y47504047D01*
X-15947571Y47625000D01*
X-15766142Y47685476D01*
X-15645190Y47685476D01*
X-15463761Y47625000D01*
X-15403285Y47564523D01*
X-14254238Y47685476D02*
X-14859000Y47685476D01*
X-14919476Y47080714D01*
X-14859000Y47141190D01*
X-14738047Y47201666D01*
X-14435666Y47201666D01*
X-14314714Y47141190D01*
X-14254238Y47080714D01*
X-14193761Y46959761D01*
X-14193761Y46657380D01*
X-14254238Y46536428D01*
X-14314714Y46475952D01*
X-14435666Y46415476D01*
X-14738047Y46415476D01*
X-14859000Y46475952D01*
X-14919476Y46536428D01*
X-16733761Y84515476D02*
X-16733761Y85785476D01*
X-15403285Y84636428D02*
X-15463761Y84575952D01*
X-15645190Y84515476D01*
X-15766142Y84515476D01*
X-15947571Y84575952D01*
X-16068523Y84696904D01*
X-16129000Y84817857D01*
X-16189476Y85059761D01*
X-16189476Y85241190D01*
X-16129000Y85483095D01*
X-16068523Y85604047D01*
X-15947571Y85725000D01*
X-15766142Y85785476D01*
X-15645190Y85785476D01*
X-15463761Y85725000D01*
X-15403285Y85664523D01*
X-14314714Y85362142D02*
X-14314714Y84515476D01*
X-14617095Y85845952D02*
X-14919476Y84938809D01*
X-14133285Y84938809D01*
X-16733761Y27365476D02*
X-16733761Y28635476D01*
X-15403285Y27486428D02*
X-15463761Y27425952D01*
X-15645190Y27365476D01*
X-15766142Y27365476D01*
X-15947571Y27425952D01*
X-16068523Y27546904D01*
X-16129000Y27667857D01*
X-16189476Y27909761D01*
X-16189476Y28091190D01*
X-16129000Y28333095D01*
X-16068523Y28454047D01*
X-15947571Y28575000D01*
X-15766142Y28635476D01*
X-15645190Y28635476D01*
X-15463761Y28575000D01*
X-15403285Y28514523D01*
X-14979952Y28635476D02*
X-14193761Y28635476D01*
X-14617095Y28151666D01*
X-14435666Y28151666D01*
X-14314714Y28091190D01*
X-14254238Y28030714D01*
X-14193761Y27909761D01*
X-14193761Y27607380D01*
X-14254238Y27486428D01*
X-14314714Y27425952D01*
X-14435666Y27365476D01*
X-14798523Y27365476D01*
X-14919476Y27425952D01*
X-14979952Y27486428D01*
X-16733761Y65465476D02*
X-16733761Y66735476D01*
X-15403285Y65586428D02*
X-15463761Y65525952D01*
X-15645190Y65465476D01*
X-15766142Y65465476D01*
X-15947571Y65525952D01*
X-16068523Y65646904D01*
X-16129000Y65767857D01*
X-16189476Y66009761D01*
X-16189476Y66191190D01*
X-16129000Y66433095D01*
X-16068523Y66554047D01*
X-15947571Y66675000D01*
X-15766142Y66735476D01*
X-15645190Y66735476D01*
X-15463761Y66675000D01*
X-15403285Y66614523D01*
X-14919476Y66614523D02*
X-14859000Y66675000D01*
X-14738047Y66735476D01*
X-14435666Y66735476D01*
X-14314714Y66675000D01*
X-14254238Y66614523D01*
X-14193761Y66493571D01*
X-14193761Y66372619D01*
X-14254238Y66191190D01*
X-14979952Y65465476D01*
X-14193761Y65465476D01*
X-16733761Y103565476D02*
X-16733761Y104835476D01*
X-15403285Y103686428D02*
X-15463761Y103625952D01*
X-15645190Y103565476D01*
X-15766142Y103565476D01*
X-15947571Y103625952D01*
X-16068523Y103746904D01*
X-16129000Y103867857D01*
X-16189476Y104109761D01*
X-16189476Y104291190D01*
X-16129000Y104533095D01*
X-16068523Y104654047D01*
X-15947571Y104775000D01*
X-15766142Y104835476D01*
X-15645190Y104835476D01*
X-15463761Y104775000D01*
X-15403285Y104714523D01*
X-14193761Y103565476D02*
X-14919476Y103565476D01*
X-14556619Y103565476D02*
X-14556619Y104835476D01*
X-14677571Y104654047D01*
X-14798523Y104533095D01*
X-14919476Y104472619D01*
D10*
X322984904Y110141369D02*
X322984904Y111141369D01*
X323365857Y111141369D01*
X323461095Y111093750D01*
X323508714Y111046130D01*
X323556333Y110950892D01*
X323556333Y110808035D01*
X323508714Y110712797D01*
X323461095Y110665178D01*
X323365857Y110617559D01*
X322984904Y110617559D01*
X324508714Y110141369D02*
X323937285Y110141369D01*
X324223000Y110141369D02*
X324223000Y111141369D01*
X324127761Y110998511D01*
X324032523Y110903273D01*
X323937285Y110855654D01*
M02*
