M48
; DRILL file {KiCad (5.1.4)-1} date 1/10/2019 12:47:13 PM
; FORMAT={-:-/ absolute / inch / decimal}
; #@! TF.CreationDate,2019-10-01T12:47:13+13:00
; #@! TF.GenerationSoftware,Kicad,Pcbnew,(5.1.4)-1
; #@! TF.FileFunction,NonPlated,1,2,NPTH
FMAT,2
INCH
T1C0.0689
T2C0.1200
T3C0.1570
T4C0.1693
%
G90
G05
T1
X4.815Y2.405
X5.215Y2.405
X10.815Y3.155
X11.215Y3.155
X10.7212Y1.655
X11.1212Y1.655
X5.565Y2.405
X5.965Y2.405
X3.1275Y0.905
X3.5275Y0.905
X4.2525Y1.655
X4.6525Y1.655
X-0.81Y3.905
X-0.41Y3.905
X11.94Y0.905
X12.34Y0.905
X4.6275Y0.905
X5.0275Y0.905
X10.065Y2.405
X10.465Y2.405
X5.7525Y1.655
X6.1525Y1.655
X1.815Y2.405
X2.215Y2.405
X7.2525Y1.655
X7.6525Y1.655
X-0.81Y1.655
X-0.41Y1.655
X5.19Y3.905
X5.59Y3.905
X-0.06Y0.905
X0.34Y0.905
X9.69Y3.155
X10.09Y3.155
X-0.06Y0.155
X0.34Y0.155
X11.0025Y2.405
X11.4025Y2.405
X8.19Y3.905
X8.59Y3.905
X1.1587Y0.905
X1.5587Y0.905
X3.5025Y1.655
X3.9025Y1.655
X3.8775Y0.905
X4.2775Y0.905
X9.69Y3.905
X10.09Y3.905
X6.69Y3.155
X7.09Y3.155
X9.5025Y0.155
X9.9025Y0.155
X1.44Y3.155
X1.84Y3.155
X5.66Y0.155
X6.06Y0.155
X4.44Y3.155
X4.84Y3.155
X11.19Y0.155
X11.59Y0.155
X-0.06Y3.155
X0.34Y3.155
X9.315Y2.405
X9.715Y2.405
X2.3775Y0.905
X2.7775Y0.905
X3.69Y3.155
X4.09Y3.155
X2.19Y3.905
X2.59Y3.905
X8.3775Y0.905
X8.7775Y0.905
X8.94Y3.155
X9.34Y3.155
X6.8775Y0.905
X7.2775Y0.905
X-0.06Y1.655
X0.34Y1.655
X-0.81Y0.905
X-0.41Y0.905
X9.5025Y1.655
X9.9025Y1.655
X7.815Y2.405
X8.215Y2.405
X11.94Y3.905
X12.34Y3.905
X11.19Y0.905
X11.59Y0.905
X0.8775Y2.405
X1.2775Y2.405
X6.5025Y1.655
X6.9025Y1.655
X4.065Y2.405
X4.465Y2.405
X0.69Y3.155
X1.09Y3.155
X2.7525Y0.155
X3.1525Y0.155
X8.19Y3.155
X8.59Y3.155
X11.94Y0.155
X12.34Y0.155
X0.9712Y1.655
X1.3712Y1.655
X3.69Y3.905
X4.09Y3.905
X8.565Y2.405
X8.965Y2.405
X4.44Y3.905
X4.84Y3.905
X7.44Y3.155
X7.84Y3.155
X7.6275Y0.905
X8.0275Y0.905
X7.44Y3.905
X7.84Y3.905
X2.94Y3.155
X3.34Y3.155
X6.1275Y0.905
X6.5275Y0.905
X8.94Y3.905
X9.34Y3.905
X6.315Y2.405
X6.715Y2.405
X10.44Y3.905
X10.84Y3.905
X11.94Y1.655
X12.34Y1.655
X5.94Y3.905
X6.34Y3.905
X-0.06Y2.405
X0.34Y2.405
X10.1587Y0.905
X10.5587Y0.905
X5.19Y3.155
X5.59Y3.155
X-0.81Y0.155
X-0.41Y0.155
X11.94Y2.405
X12.34Y2.405
X8.47Y0.155
X8.87Y0.155
X8.0025Y1.655
X8.4025Y1.655
X2.565Y2.405
X2.965Y2.405
X8.7525Y1.655
X9.1525Y1.655
X7.065Y2.405
X7.465Y2.405
X6.69Y3.905
X7.09Y3.905
X5.0025Y1.655
X5.4025Y1.655
X11.94Y3.155
X12.34Y3.155
X1.815Y0.155
X2.215Y0.155
X2.0025Y1.655
X2.4025Y1.655
X-0.81Y3.155
X-0.41Y3.155
X0.8775Y0.155
X1.2775Y0.155
X2.7525Y1.655
X3.1525Y1.655
X10.44Y0.155
X10.84Y0.155
X3.315Y2.405
X3.715Y2.405
X11.19Y3.905
X11.59Y3.905
X-0.81Y2.405
X-0.41Y2.405
X9.1275Y0.905
X9.5275Y0.905
X2.94Y3.905
X3.34Y3.905
X5.94Y3.155
X6.34Y3.155
X1.44Y3.905
X1.84Y3.905
X2.19Y3.155
X2.59Y3.155
X0.69Y3.905
X1.09Y3.905
X5.3775Y0.905
X5.7775Y0.905
X-0.06Y3.905
X0.34Y3.905
T2
X10.5463Y2.88
X11.4838Y2.88
X10.4525Y1.38
X11.39Y1.38
X0.89Y0.63
X1.8275Y0.63
X3.8915Y-0.12
X7.8285Y-0.12
T3
X6.515Y2.405
X10.64Y3.905
X12.14Y1.655
X6.14Y3.905
X0.14Y2.405
X10.3588Y0.905
X5.39Y3.155
X-0.61Y0.155
X12.14Y2.405
X8.67Y0.155
X8.2025Y1.655
X2.765Y2.405
X8.9525Y1.655
X7.265Y2.405
X6.89Y3.905
X5.2025Y1.655
X12.14Y3.155
X2.015Y0.155
X2.2025Y1.655
X-0.61Y3.155
X1.0775Y0.155
X2.9525Y1.655
X10.64Y0.155
X3.515Y2.405
X11.39Y3.905
X-0.61Y2.405
X9.3275Y0.905
X3.14Y3.905
X6.14Y3.155
X1.64Y3.905
X2.39Y3.155
X0.89Y3.905
X5.5775Y0.905
X0.14Y3.905
X5.015Y2.405
X10.5463Y3.48
X11.015Y3.155
X11.4838Y3.48
X10.4525Y1.98
X10.9213Y1.655
X11.39Y1.98
X5.765Y2.405
X3.3275Y0.905
X4.4525Y1.655
X-0.61Y3.905
X12.14Y0.905
X4.8275Y0.905
X10.265Y2.405
X5.9525Y1.655
X2.015Y2.405
X7.4525Y1.655
X-0.61Y1.655
X5.39Y3.905
X0.14Y0.905
X9.89Y3.155
X0.14Y0.155
X11.2025Y2.405
X8.39Y3.905
X0.89Y1.23
X1.3587Y0.905
X1.8275Y1.23
X3.7025Y1.655
X4.0775Y0.905
X9.89Y3.905
X6.89Y3.155
X9.7025Y0.155
X1.64Y3.155
X3.8915Y0.48
X5.86Y0.155
X7.8285Y0.48
X4.64Y3.155
X11.39Y0.155
X0.14Y3.155
X9.515Y2.405
X2.5775Y0.905
X3.89Y3.155
X2.39Y3.905
X8.5775Y0.905
X9.14Y3.155
X7.0775Y0.905
X0.14Y1.655
X-0.61Y0.905
X9.7025Y1.655
X8.015Y2.405
X12.14Y3.905
X11.39Y0.905
X1.0775Y2.405
X6.7025Y1.655
X4.265Y2.405
X0.89Y3.155
X2.9525Y0.155
X8.39Y3.155
X12.14Y0.155
X1.1712Y1.655
X3.89Y3.905
X8.765Y2.405
X4.64Y3.905
X7.64Y3.155
X7.8275Y0.905
X7.64Y3.905
X3.14Y3.155
X6.3275Y0.905
X9.14Y3.905
T4
X11.9375Y4.4688
X13.25Y4.0938
X-1.1875Y4.0938
X4.0938Y4.4688
X-1.19Y-0.0625
X4.6789Y0.1156
X13.25Y-0.0625
X7.0411Y0.1156
X-0.8125Y4.4688
X7.4375Y4.4688
T0
M30
